<?xml version="1.0" encoding="UTF-8"?>
<!DOCTYPE svg PUBLIC "-//W3C//DTD SVG 1.1//EN" "http://www.w3.org/Graphics/SVG/1.1/DTD/svg11.dtd">
<!-- Creator: CorelDRAW 2020 (64-Bit) -->
<svg xmlns="http://www.w3.org/2000/svg" xml:space="preserve" width="934.644mm" height="114.3mm" version="1.1" style="shape-rendering:geometricPrecision; text-rendering:geometricPrecision; image-rendering:optimizeQuality; fill-rule:evenodd; clip-rule:evenodd"
viewBox="0 0 93464.38 11430"
 xmlns:xlink="http://www.w3.org/1999/xlink"
 xmlns:xodm="http://www.corel.com/coreldraw/odm/2003">
 <defs>
  <style type="text/css">
   <![CDATA[
    .fil0 {fill:#210BE3;fill-rule:nonzero}
    .fil1 {fill:white;fill-rule:nonzero}
   ]]>
  </style>
 </defs>
 <g id="Layer_x0020_1">
  <metadata id="CorelCorpID_0Corel-Layer"/>
  <g id="_1962641197968">
   <path class="fil0" d="M25312.86 10794.99c-800.15,0 -1570.06,-100.01 -2309.73,-300.05 -739.67,-200.04 -1342.1,-458.22 -1807.3,-774.56l907.14 -2037.58c437.29,279.12 942.03,509.39 1514.23,690.82 572.2,181.43 1142.07,272.15 1709.61,272.15 381.47,0 688.5,-34.89 921.1,-104.67 232.6,-69.78 402.4,-162.82 509.39,-279.13 107,-116.3 160.5,-253.53 160.5,-411.7 0,-223.29 -102.35,-400.07 -307.03,-530.33 -204.69,-130.25 -469.86,-237.25 -795.5,-320.99 -325.64,-83.73 -686.17,-167.47 -1081.59,-251.2 -395.42,-83.74 -790.84,-190.74 -1186.26,-320.99 -395.42,-130.26 -755.95,-300.06 -1081.59,-509.4 -325.65,-209.34 -590.81,-483.81 -795.5,-823.4 -204.69,-339.6 -307.03,-769.91 -307.03,-1290.94 0,-586.15 160.49,-1116.48 481.48,-1590.98 320.99,-474.51 802.47,-855.97 1444.45,-1144.4 641.98,-288.42 1442.12,-432.64 2400.44,-432.64 641.98,0 1272.32,72.11 1891.04,216.32 618.72,144.22 1169.98,355.88 1653.79,635l-851.32 2051.54c-465.2,-251.21 -925.75,-439.62 -1381.64,-565.22 -455.9,-125.6 -897.84,-188.41 -1325.83,-188.41 -381.46,0 -688.5,39.55 -921.1,118.63 -232.6,79.08 -400.07,183.75 -502.41,314.01 -102.35,130.26 -153.52,279.12 -153.52,446.59 0,214 100.02,383.79 300.06,509.4 200.03,125.6 465.2,227.95 795.49,307.03 330.29,79.09 693.15,160.5 1088.57,244.23 395.42,83.74 790.84,188.41 1186.26,314.01 395.42,125.61 755.95,293.08 1081.59,502.42 325.65,209.34 588.48,483.81 788.52,823.4 200.04,339.6 300.05,765.26 300.05,1276.98 0,567.55 -160.49,1090.9 -481.48,1570.06 -320.99,479.15 -800.14,862.94 -1437.47,1151.37 -637.32,288.42 -1439.8,432.63 -2407.41,432.63z"/>
   <path id="1" class="fil0" d="M33379.44 8436.43l-153.52 -3098.24 4200.77 -4507.8 3042.41 0 -4186.81 4535.71 -1535.16 1604.94 -1367.69 1465.39zm-2470.22 2163.18l0 -9769.22 2735.38 0 0 9769.22 -2735.38 0zm6559.34 0l-3181.98 -4033.29 1800.33 -1925.93 4591.53 5959.22 -3209.88 0z"/>
   <polygon id="2" class="fil0" points="41404.15,10599.61 41404.15,830.39 44167.45,830.39 44167.45,10599.61 "/>
   <polygon id="3" class="fil0" points="46135.24,10599.61 46135.24,830.39 48898.54,830.39 48898.54,8408.51 53559.85,8408.51 53559.85,10599.61 "/>
   <polygon id="4" class="fil0" points="54648.42,10599.61 54648.42,830.39 57411.72,830.39 57411.72,8408.51 62073.03,8408.51 62073.03,10599.61 "/>
   <path id="5" class="fil0" d="M70655.99 10794.99c-800.15,0 -1570.06,-100.01 -2309.73,-300.05 -739.67,-200.04 -1342.1,-458.22 -1807.3,-774.56l907.14 -2037.58c437.29,279.12 942.03,509.39 1514.23,690.82 572.2,181.43 1142.07,272.15 1709.61,272.15 381.47,0 688.5,-34.89 921.1,-104.67 232.6,-69.78 402.4,-162.82 509.39,-279.13 107,-116.3 160.5,-253.53 160.5,-411.7 0,-223.29 -102.35,-400.07 -307.03,-530.33 -204.69,-130.25 -469.86,-237.25 -795.5,-320.99 -325.64,-83.73 -686.17,-167.47 -1081.59,-251.2 -395.42,-83.74 -790.84,-190.74 -1186.26,-320.99 -395.42,-130.26 -755.95,-300.06 -1081.59,-509.4 -325.65,-209.34 -590.81,-483.81 -795.5,-823.4 -204.69,-339.6 -307.03,-769.91 -307.03,-1290.94 0,-586.15 160.49,-1116.48 481.48,-1590.98 320.99,-474.51 802.47,-855.97 1444.45,-1144.4 641.98,-288.42 1442.12,-432.64 2400.44,-432.64 641.98,0 1272.32,72.11 1891.04,216.32 618.72,144.22 1169.98,355.88 1653.79,635l-851.32 2051.54c-465.2,-251.21 -925.75,-439.62 -1381.64,-565.22 -455.9,-125.6 -897.84,-188.41 -1325.83,-188.41 -381.46,0 -688.5,39.55 -921.1,118.63 -232.6,79.08 -400.07,183.75 -502.41,314.01 -102.35,130.26 -153.52,279.12 -153.52,446.59 0,214 100.02,383.79 300.06,509.4 200.03,125.6 465.2,227.95 795.49,307.03 330.29,79.09 693.15,160.5 1088.57,244.23 395.42,83.74 790.84,188.41 1186.26,314.01 395.42,125.61 755.95,293.08 1081.59,502.42 325.65,209.34 588.48,483.81 788.52,823.4 200.04,339.6 300.05,765.26 300.05,1276.98 0,567.55 -160.49,1090.9 -481.48,1570.06 -320.99,479.15 -800.14,862.94 -1437.47,1151.37 -637.32,288.42 -1439.8,432.63 -2407.41,432.63z"/>
   <path id="6" class="fil0" d="M78792.35 4612.47l4535.71 0 0 2065.5 -4535.71 0 0 -2065.5zm195.38 3851.87l5107.91 0 0 2135.27 -7843.29 0 0 -9769.22 7661.86 0 0 2135.27 -4926.48 0 0 5498.68z"/>
   <polygon id="7" class="fil0" points="87710.25,10599.61 87710.25,3021.49 84709.7,3021.49 84709.7,830.39 93460.13,830.39 93460.13,3021.49 90473.54,3021.49 90473.54,10599.61 "/>
   <g>
    <path class="fil0" d="M13811.61 10132.53c-3198.65,1729.95 -6397.4,1729.95 -9596.18,0l0 -4579.14 9596.18 0 0 4579.14z"/>
    <path class="fil0" d="M18030.52 3731.54c215.6,0 215.6,1720.12 0,1720.12l-4997.43 -1135.69 0 -2595.89 4997.43 2011.46z"/>
    <polygon class="fil0" points="18030.52,5451.66 9013.54,9183.12 -3.39,5451.66 9013.54,1720.08 "/>
    <path class="fil1" d="M1344.1 3908.63c-60.44,0 -118.44,-3.81 -174.86,-9.97l0 1489.51 7844.3 3246.25 8537.23 -3568.84 0 -1479.64 -16206.67 322.69z"/>
    <polygon class="fil0" points="18030.52,3731.54 9013.54,7463 -3.39,3731.54 9013.54,-0.01 "/>
    <polygon class="fil0" points="16215.94,5194.21 16215.94,10473.05 16588.26,10321.82 16588.26,5050.38 "/>
   </g>
  </g>
 </g>
</svg>
