<?xml version="1.0" encoding="UTF-8"?>
<!DOCTYPE svg PUBLIC "-//W3C//DTD SVG 1.1//EN" "http://www.w3.org/Graphics/SVG/1.1/DTD/svg11.dtd">
<!-- Creator: CorelDRAW 2020 (64-Bit) -->
<svg xmlns="http://www.w3.org/2000/svg" xml:space="preserve" width="381mm" height="53.5686mm" version="1.1" style="shape-rendering:geometricPrecision; text-rendering:geometricPrecision; image-rendering:optimizeQuality; fill-rule:evenodd; clip-rule:evenodd"
viewBox="0 0 38100 5356.86"
 xmlns:xlink="http://www.w3.org/1999/xlink"
 xmlns:xodm="http://www.corel.com/coreldraw/odm/2003">
 <defs>
  <style type="text/css">
   <![CDATA[
    .fil0 {fill:#210BE3;fill-rule:nonzero}
   ]]>
  </style>
 </defs>
 <g id="Layer_x0020_1">
  <metadata id="CorelCorpID_0Corel-Layer"/>
  <path class="fil0" d="M2170.63 5362.26c-421.86,0 -827.78,-52.73 -1217.75,-158.2 -389.98,-105.46 -707.6,-241.58 -952.87,-408.37l478.27 -1074.27c230.55,147.16 496.67,268.57 798.35,364.22 301.68,95.66 602.13,143.48 901.36,143.48 201.12,0 363,-18.39 485.63,-55.18 122.64,-36.79 212.16,-85.85 268.57,-147.16 56.41,-61.32 84.62,-133.67 84.62,-217.07 0,-117.72 -53.96,-210.93 -161.88,-279.6 -107.92,-68.68 -247.72,-125.09 -419.41,-169.24 -171.68,-44.15 -361.77,-88.29 -570.25,-132.44 -208.47,-44.15 -416.95,-100.56 -625.43,-169.24 -208.48,-68.67 -398.56,-158.19 -570.25,-268.57 -171.69,-110.37 -311.49,-255.07 -419.41,-434.12 -107.92,-179.05 -161.87,-405.92 -161.87,-680.62 0,-309.04 84.61,-588.64 253.85,-838.82 169.23,-250.17 423.09,-451.29 761.56,-603.36 338.47,-152.06 760.33,-228.1 1265.58,-228.1 338.47,0 670.81,38.02 997.02,114.05 326.2,76.04 616.85,187.63 871.93,334.79l-448.85 1081.64c-245.26,-132.45 -488.08,-231.78 -728.44,-298 -240.37,-66.23 -473.37,-99.34 -699.02,-99.34 -201.12,0 -362.99,20.85 -485.63,62.55 -122.63,41.69 -210.93,96.88 -264.89,165.55 -53.96,68.68 -80.94,147.16 -80.94,235.46 0,112.82 52.74,202.35 158.2,268.57 105.47,66.22 245.27,120.18 419.41,161.88 174.14,41.69 365.45,84.61 573.93,128.76 208.48,44.15 416.95,99.33 625.43,165.56 208.48,66.22 398.56,154.52 570.25,264.89 171.69,110.37 310.27,255.08 415.73,434.12 105.47,179.05 158.2,403.47 158.2,673.26 0,299.23 -84.62,575.16 -253.85,827.78 -169.24,252.63 -421.87,454.98 -757.88,607.04 -336.02,152.07 -759.11,228.1 -1269.27,228.1z"/>
  <path id="1" class="fil0" d="M6423.59 4118.75l-80.94 -1633.48 2214.77 -2376.65 1604.06 0 -2207.42 2391.36 -809.38 846.18 -721.09 772.59zm-1302.38 1140.5l0 -5150.63 1442.18 0 0 5150.63 -1442.18 0zm3458.29 0l-1677.64 -2126.48 949.19 -1015.41 2420.8 3141.89 -1692.35 0z"/>
  <polygon id="2" class="fil0" points="10654.46,5259.25 10654.46,108.62 12111.36,108.62 12111.36,5259.25 "/>
  <polygon id="3" class="fil0" points="13148.84,5259.25 13148.84,108.62 14605.74,108.62 14605.74,4104.04 17063.33,4104.04 17063.33,5259.25 "/>
  <polygon id="4" class="fil0" points="17637.25,5259.25 17637.25,108.62 19094.15,108.62 19094.15,4104.04 21551.74,4104.04 21551.74,5259.25 "/>
  <path id="5" class="fil0" d="M26076.93 5362.26c-421.86,0 -827.78,-52.73 -1217.75,-158.2 -389.98,-105.46 -707.6,-241.58 -952.87,-408.37l478.27 -1074.27c230.55,147.16 496.67,268.57 798.35,364.22 301.68,95.66 602.13,143.48 901.36,143.48 201.12,0 363,-18.39 485.63,-55.18 122.64,-36.79 212.16,-85.85 268.57,-147.16 56.41,-61.32 84.62,-133.67 84.62,-217.07 0,-117.72 -53.96,-210.93 -161.88,-279.6 -107.92,-68.68 -247.72,-125.09 -419.41,-169.24 -171.68,-44.15 -361.77,-88.29 -570.25,-132.44 -208.47,-44.15 -416.95,-100.56 -625.43,-169.24 -208.48,-68.67 -398.56,-158.19 -570.25,-268.57 -171.69,-110.37 -311.49,-255.07 -419.41,-434.12 -107.92,-179.05 -161.87,-405.92 -161.87,-680.62 0,-309.04 84.61,-588.64 253.85,-838.82 169.23,-250.17 423.09,-451.29 761.56,-603.36 338.47,-152.06 760.33,-228.1 1265.58,-228.1 338.47,0 670.81,38.02 997.02,114.05 326.2,76.04 616.85,187.63 871.93,334.79l-448.85 1081.64c-245.26,-132.45 -488.08,-231.78 -728.44,-298 -240.37,-66.23 -473.37,-99.34 -699.02,-99.34 -201.12,0 -362.99,20.85 -485.63,62.55 -122.63,41.69 -210.93,96.88 -264.89,165.55 -53.96,68.68 -80.94,147.16 -80.94,235.46 0,112.82 52.74,202.35 158.2,268.57 105.47,66.22 245.27,120.18 419.41,161.88 174.14,41.69 365.45,84.61 573.93,128.76 208.48,44.15 416.95,99.33 625.43,165.56 208.48,66.22 398.56,154.52 570.25,264.89 171.69,110.37 310.27,255.08 415.73,434.12 105.47,179.05 158.2,403.47 158.2,673.26 0,299.23 -84.62,575.16 -253.85,827.78 -169.24,252.63 -421.87,454.98 -757.88,607.04 -336.02,152.07 -759.11,228.1 -1269.27,228.1z"/>
  <path id="6" class="fil0" d="M30366.68 2102.65l2391.36 0 0 1088.99 -2391.36 0 0 -1088.99zm103.01 2030.82l2693.05 0 0 1125.78 -4135.23 0 0 -5150.63 4039.57 0 0 1125.78 -2597.39 0 0 2899.07z"/>
  <polygon id="7" class="fil0" points="35068.47,5259.25 35068.47,1263.83 33486.49,1263.83 33486.49,108.62 38099.99,108.62 38099.99,1263.83 36525.37,1263.83 36525.37,5259.25 "/>
 </g>
</svg>
