<?xml version="1.0" encoding="UTF-8"?>
<!DOCTYPE svg PUBLIC "-//W3C//DTD SVG 1.1//EN" "http://www.w3.org/Graphics/SVG/1.1/DTD/svg11.dtd">
<!-- Creator: CorelDRAW 2020 (64-Bit) -->
<svg xmlns="http://www.w3.org/2000/svg" xml:space="preserve" width="679.729mm" height="101.6mm" version="1.1" style="shape-rendering:geometricPrecision; text-rendering:geometricPrecision; image-rendering:optimizeQuality; fill-rule:evenodd; clip-rule:evenodd"
viewBox="0 0 67972.94 10160"
 xmlns:xlink="http://www.w3.org/1999/xlink"
 xmlns:xodm="http://www.corel.com/coreldraw/odm/2003">
 <defs>
  <style type="text/css">
   <![CDATA[
    .fil1 {fill:#210BE3}
    .fil0 {fill:#210BE3;fill-rule:nonzero}
   ]]>
  </style>
 </defs>
 <g id="Layer_x0020_1">
  <metadata id="CorelCorpID_0Corel-Layer"/>
  <g id="_1607307176752">
   <path class="fil0" d="M16860.61 8890c-600.11,0 -1177.54,-75.02 -1732.29,-225.04 -554.76,-150.03 -1006.58,-343.67 -1355.48,-580.92l680.35 -1528.19c327.97,209.34 706.53,382.05 1135.68,518.12 429.14,136.07 856.55,204.11 1282.21,204.11 286.09,0 516.37,-26.17 690.82,-78.51 174.45,-52.33 301.8,-122.11 382.04,-209.34 80.25,-87.22 120.38,-190.15 120.38,-308.77 0,-167.48 -76.76,-300.06 -230.28,-397.75 -153.52,-97.69 -352.39,-177.94 -596.62,-240.74 -244.23,-62.8 -514.63,-125.61 -811.19,-188.41 -296.57,-62.8 -593.13,-143.05 -889.7,-240.74 -296.57,-97.69 -566.96,-225.04 -811.19,-382.05 -244.23,-157 -443.11,-362.85 -596.62,-617.55 -153.52,-254.7 -230.28,-577.43 -230.28,-968.2 0,-439.61 120.37,-837.36 361.11,-1193.24 240.75,-355.88 601.86,-641.98 1083.34,-858.29 481.48,-216.32 1081.59,-324.48 1800.33,-324.48 481.48,0 954.24,54.08 1418.28,162.24 464.04,108.16 877.48,266.91 1240.34,476.25l-638.49 1538.65c-348.9,-188.41 -694.31,-329.71 -1036.23,-423.92 -341.92,-94.2 -673.38,-141.3 -994.37,-141.3 -286.1,0 -516.37,29.66 -690.82,88.97 -174.45,59.31 -300.06,137.81 -376.82,235.51 -76.75,97.69 -115.13,209.34 -115.13,334.94 0,160.5 75.01,287.84 225.04,382.05 150.03,94.2 348.9,170.96 596.62,230.27 247.72,59.31 519.86,120.37 816.43,183.17 296.56,62.81 593.13,141.31 889.69,235.51 296.57,94.21 566.97,219.81 811.2,376.82 244.23,157 441.36,362.85 591.38,617.55 150.03,254.7 225.04,573.94 225.04,957.73 0,425.66 -120.37,818.17 -361.11,1177.54 -240.74,359.37 -600.11,647.21 -1078.1,863.53 -477.99,216.32 -1079.85,324.48 -1805.56,324.48z"/>
   <path id="1" class="fil0" d="M22910.54 7121.07l-115.13 -2323.68 3150.57 -3380.84 2281.81 0 -3140.11 3401.78 -1151.37 1203.7 -1025.77 1099.04zm-1852.66 1622.39l0 -7326.91 2051.54 0 0 7326.91 -2051.54 0zm4919.5 0l-2386.48 -3024.97 1350.25 -1444.45 3443.65 4469.42 -2407.42 0z"/>
   <polygon id="2" class="fil0" points="28929.08,8743.46 28929.08,1416.55 31001.55,1416.55 31001.55,8743.46 "/>
   <polygon id="3" class="fil0" points="32477.4,8743.46 32477.4,1416.55 34549.87,1416.55 34549.87,7100.14 38045.86,7100.14 38045.86,8743.46 "/>
   <polygon id="4" class="fil0" points="38862.28,8743.46 38862.28,1416.55 40934.75,1416.55 40934.75,7100.14 44430.74,7100.14 44430.74,8743.46 "/>
   <path id="5" class="fil0" d="M50867.95 8890c-600.11,0 -1177.54,-75.02 -1732.29,-225.04 -554.76,-150.03 -1006.58,-343.67 -1355.48,-580.92l680.35 -1528.19c327.97,209.34 706.53,382.05 1135.68,518.12 429.14,136.07 856.55,204.11 1282.21,204.11 286.09,0 516.37,-26.17 690.82,-78.51 174.45,-52.33 301.8,-122.11 382.04,-209.34 80.25,-87.22 120.38,-190.15 120.38,-308.77 0,-167.48 -76.76,-300.06 -230.28,-397.75 -153.52,-97.69 -352.39,-177.94 -596.62,-240.74 -244.23,-62.8 -514.63,-125.61 -811.19,-188.41 -296.57,-62.8 -593.13,-143.05 -889.7,-240.74 -296.57,-97.69 -566.96,-225.04 -811.19,-382.05 -244.23,-157 -443.11,-362.85 -596.62,-617.55 -153.52,-254.7 -230.28,-577.43 -230.28,-968.2 0,-439.61 120.37,-837.36 361.11,-1193.24 240.75,-355.88 601.86,-641.98 1083.34,-858.29 481.48,-216.32 1081.59,-324.48 1800.33,-324.48 481.48,0 954.24,54.08 1418.28,162.24 464.04,108.16 877.48,266.91 1240.34,476.25l-638.49 1538.65c-348.9,-188.41 -694.31,-329.71 -1036.23,-423.92 -341.92,-94.2 -673.38,-141.3 -994.37,-141.3 -286.1,0 -516.37,29.66 -690.82,88.97 -174.45,59.31 -300.06,137.81 -376.82,235.51 -76.75,97.69 -115.13,209.34 -115.13,334.94 0,160.5 75.01,287.84 225.04,382.05 150.03,94.2 348.9,170.96 596.62,230.27 247.72,59.31 519.86,120.37 816.43,183.17 296.56,62.81 593.13,141.31 889.69,235.51 296.57,94.21 566.97,219.81 811.2,376.82 244.23,157 441.36,362.85 591.38,617.55 150.03,254.7 225.04,573.94 225.04,957.73 0,425.66 -120.37,818.17 -361.11,1177.54 -240.74,359.37 -600.11,647.21 -1078.1,863.53 -477.99,216.32 -1079.85,324.48 -1805.56,324.48z"/>
   <path id="6" class="fil0" d="M56970.22 4253.11l3401.78 0 0 1549.12 -3401.78 0 0 -1549.12zm146.54 2888.9l3830.93 0 0 1601.45 -5882.47 0 0 -7326.91 5746.4 0 0 1601.45 -3694.86 0 0 4124.01z"/>
   <polygon id="7" class="fil0" points="63658.65,8743.46 63658.65,3059.87 61408.24,3059.87 61408.24,1416.55 67971.06,1416.55 67971.06,3059.87 65731.12,3059.87 65731.12,8743.46 "/>
   <path class="fil1" d="M214.06 3764.22c-277.08,455.94 -294.42,929.81 1.11,1391.53 -186.29,295.53 -282.34,645.55 -163.57,1060.58 52.08,181.98 147.04,314.36 250.2,404.83 108.05,94.76 353.92,129.64 509.61,170.34l1556.45 402.99c128.5,33.9 490.22,100.87 511.23,176.36 42.32,152.02 -85.7,1960.52 60.88,2063.51 79.72,20.48 945.5,-96.88 1155.46,-102.94 1835.36,-53.01 2879.8,822.64 3011.69,828.57 61.98,2.79 595.95,-314.36 856.82,-425.61 1696.17,-723.38 3218.5,-238.28 3316.39,-294.1 129.6,-73.89 78.55,-948.49 78.55,-1189.07 -0.01,-532.85 30.99,-3647.06 -19.26,-3900.94 -355.05,-192.26 -1442.92,-192.38 -1923.43,-144.55 -554.99,55.22 -1197.16,218.05 -1645.61,425.71 -71.78,-409.64 324.01,-582.15 186.08,-836.65 -132.94,-245.32 -285.62,-454.58 -150.42,-863.07 45.76,-138.24 166.67,-298.77 180.24,-367.69 26.64,-135.36 -108.07,-252.1 -164.23,-396.46 -299.41,-769.47 520.52,-1055.92 -0.91,-1192.79 -153.56,-40.32 -293.97,-71.29 -452.61,-113.48 -305.54,-81.24 -579.26,-148.36 -879.72,-229.07 -583.68,-156.8 -1169.93,-297.58 -1759.5,-456.08 -867.23,-233.15 -716.66,-257.22 -1203.63,64.38l-1694.27 1089.01c-466.72,290.47 -884.6,571.29 -1349.77,866.05 -254.51,161.28 -397.73,252.48 -460.96,645.74 -66.82,415.6 31.94,648.8 193.18,922.9zm2659.99 3260.77l2.47 -1072.18 -2410.98 -620.82c-171.13,172.94 -221.73,589.98 -112.05,868.04 107.7,273.04 278.77,241.88 742.01,364.26l1778.55 460.7zm0.33 -1391.32l2.35 -1072.06 -2410.91 -621.85c-189.92,191.99 -329.69,992.6 172.88,1122.85l2235.68 571.06zm1071.44 -1455.88c64.89,-319.31 8.82,-348.81 140.96,-669.16 -86.95,-62.97 -3268.98,-884 -3622.28,-956.37 -213.53,213.72 -227.36,847.27 -6.89,1044.48 90.24,80.72 1955.92,528.1 2237.26,603.09 513.57,136.89 564.59,19.2 1250.95,-22.04zm-771.63 397.47l-2.56 4542.53c135.39,7.22 337.67,-42.66 495.12,-54.02 902.72,-65.14 1653.18,7.53 2509.22,316.07 298.99,107.76 546.53,278.8 791.62,371.12l5.09 -4481.61c-73.36,-133.87 -572.58,-354.76 -747.93,-425.05 -287.65,-115.29 -573.5,-203.19 -891.71,-270.36 -489.32,-103.3 -1714.5,-175.57 -2158.85,1.32zm4091.22 694.09l0.23 4479.73c681.26,-274.21 623.46,-397.32 1665.99,-610.22 783.37,-159.97 1361.92,-88.94 2129.64,-11.93l5.15 -4510.75c-18.81,-68.6 -103.36,-70.82 -210.18,-87.22 -619.84,-95.11 -1313.43,-79.89 -1919.37,44.71 -341.84,70.29 -588.98,137.32 -899.87,263.45 -191.89,77.85 -695.98,289.46 -771.59,432.23zm-462.4 -482.78c307.72,287.35 397.29,144.17 664.42,-7.47l18.49 -445.34c-95.02,50.45 -618.85,379.77 -682.91,452.81zm-1395.05 -506.3c80.07,43.66 489.54,139.33 628.26,184.59 312.39,101.91 352.05,224.28 601.02,51.78 176.84,-122.53 334.87,-209.69 501.21,-322.66 154.9,-105.2 390.27,-216.1 498.78,-344.56 -144.05,-311.17 -218.58,-495.79 -140.68,-906.49 -144.51,66.81 -387.15,233.74 -519.3,324.04 -489.06,334.19 -1122.46,701.53 -1569.29,1013.3zm-1142.7 -118.47c107.95,34.77 444.59,37.65 579.99,45.04 206.39,11.28 1029.24,-593.56 1222.37,-714.13 202.53,-126.46 1499.66,-951.26 1569.85,-1034.83 -155.91,-274.35 -193.45,-541.9 -142.2,-901.97l-878.13 555.35c-254.77,159.53 -2126.66,1336.49 -2214.47,1449.32 -116.05,149.12 -179.2,383.7 -137.41,601.22zm-456.44 -3004.43l1462.02 381.67c163.75,43.06 131.04,53.97 260.12,-29.63 134.13,-86.86 323.73,-190.24 453.38,-293.12 -115.06,-68.5 -955.07,-268.75 -1151.81,-320.5 -101.65,-26.74 -192.62,-48.42 -291.73,-76.41 -231.58,-65.39 -141.76,-52.63 -497.3,166.74l-234.68 171.25z"/>
  </g>
 </g>
</svg>
