<?xml version="1.0" encoding="utf-8"?>
<!-- Generator: Adobe Illustrator 27.0.0, SVG Export Plug-In . SVG Version: 6.00 Build 0)  -->
<svg version="1.1" id="Layer_1" xmlns="http://www.w3.org/2000/svg" xmlns:xlink="http://www.w3.org/1999/xlink" x="0px" y="0px"
	 viewBox="0 0 1200 800" style="enable-background:new 0 0 1200 800;" xml:space="preserve">
<style type="text/css">
	.st0{fill:#EA4335;}
	.st1{fill:#FBBC05;}
	.st2{fill:#4285F4;}
	.st3{fill:#34A853;}
</style>
<path class="st0" d="M533.5,408c0,43.7-34.2,75.9-76.2,75.9s-76.2-32.2-76.2-75.9c0-44,34.2-75.9,76.2-75.9S533.5,364,533.5,408z
	 M500.1,408c0-27.3-19.8-46-42.8-46s-42.8,18.7-42.8,46c0,27,19.8,46,42.8,46S500.1,435,500.1,408z"/>
<path class="st1" d="M697.8,408c0,43.7-34.2,75.9-76.2,75.9c-42,0-76.2-32.2-76.2-75.9c0-44,34.2-75.9,76.2-75.9
	C663.6,332,697.8,364,697.8,408z M664.5,408c0-27.3-19.8-46-42.8-46c-23,0-42.8,18.7-42.8,46c0,27,19.8,46,42.8,46
	C644.6,454,664.5,435,664.5,408z"/>
<path class="st2" d="M855.3,336.6V473c0,56.1-33.1,79-72.2,79c-36.8,0-59-24.6-67.3-44.7l29-12.1c5.2,12.4,17.8,26.9,38.2,26.9
	c25,0,40.5-15.4,40.5-44.5v-10.9h-1.2c-7.5,9.2-21.8,17.3-40,17.3c-38,0-72.7-33.1-72.7-75.6c0-42.9,34.8-76.2,72.7-76.2
	c18.1,0,32.5,8,40,17h1.2v-12.4L855.3,336.6L855.3,336.6z M826,408.3c0-26.7-17.8-46.3-40.5-46.3c-23,0-42.3,19.5-42.3,46.3
	c0,26.5,19.3,45.7,42.3,45.7C808.1,454,826,434.7,826,408.3z"/>
<path class="st3" d="M907.5,256.7v222.5H875V256.7L907.5,256.7z"/>
<path class="st0" d="M1034.2,433l25.9,17.3c-8.4,12.4-28.5,33.7-63.3,33.7c-43.1,0-75.3-33.3-75.3-75.9c0-45.2,32.5-75.9,71.6-75.9
	c39.4,0,58.7,31.4,65,48.3l3.5,8.6L960,431c7.8,15.2,19.9,23,36.8,23C1013.8,454,1025.6,445.6,1034.2,433L1034.2,433z M954.6,405.6
	l67.9-28.2c-3.7-9.5-15-16.1-28.2-16.1C977.3,361.4,953.7,376.3,954.6,405.6z"/>
<path class="st2" d="M258,388.2V356h108.6c1.1,5.6,1.6,12.3,1.6,19.4c0,24.2-6.6,54.1-27.9,75.3c-20.7,21.6-47.2,33.1-82.2,33.1
	c-65,0-119.6-52.9-119.6-117.9s54.6-117.9,119.6-117.9c35.9,0,61.6,14.1,80.8,32.5l-22.7,22.7c-13.8-12.9-32.5-23-58.1-23
	c-47.4,0-84.6,38.2-84.6,85.7s37.1,85.7,84.6,85.7c30.8,0,48.3-12.4,59.5-23.6c9.1-9.1,15.1-22.1,17.5-39.9L258,388.2z"/>
</svg>
