<?xml version="1.0" encoding="utf-8"?>
<!-- Generator: Adobe Illustrator 27.0.0, SVG Export Plug-In . SVG Version: 6.00 Build 0)  -->
<svg version="1.1" id="Layer_1" xmlns="http://www.w3.org/2000/svg" xmlns:xlink="http://www.w3.org/1999/xlink" x="0px" y="0px"
	 viewBox="0 0 1200 800" style="enable-background:new 0 0 1200 800;" xml:space="preserve">
<style type="text/css">
	.st0{fill:#011F5B;}
</style>
<g transform="translate(-284.31 -515.62)">
	<path class="st0" d="M557.1,763.2v7c19.8,0,26.9,8.7,26.9,37.6v148.4c0,31.4-10.3,36.8-26.9,36.8v7h85.2v-7
		c-19.8,0-26.9-8.3-26.9-37.6v-66.2c17.4,2.1,26,2.5,36.4,2.5c53.8,0,83.5-21.9,83.5-61.2c0-32.7-26.5-67.4-91.8-67.4L557.1,763.2
		L557.1,763.2z M615.4,772.3h29.4c43.4,0,57.5,33.9,57.5,59.1c0,32.2-22.3,51.3-57.5,51.3c-12.4,0-18.6-0.4-29.4-4.1V772.3
		L615.4,772.3z M784.9,849.6c-41.3,0-73.6,34.7-73.6,79c0,44.2,33.1,76.1,79,76.1c25.6,0,42.6-8.7,60.4-31.4v-10.8
		c-21.1,23.6-31.4,30.6-51.7,30.6c-19.8,0-59.1-16.5-58.3-82.3h107.5C850.2,876.9,818.8,849.6,784.9,849.6L784.9,849.6z
		 M897.3,849.6l-45.5,4.6v7c19.8,0,24.4,3.7,24.4,21.5V965c0,26.5-5,28.1-24.4,28.1v7h77.3v-7c-21.9,0-24.8-5.8-24.8-28.1v-71.5
		c14.5-19.4,27.3-28.5,41.8-28.5c15.7,0,32.7,9.9,32.7,33.5v76.5c0,13.6-5.4,18.2-25.2,18.2v7h77.3h0.8h76.5v-7
		c-21.9,0-24.8-5.8-24.8-28.1v-71.5c14.5-19.4,27.3-28.5,41.8-28.5c15.7,0,32.7,9.9,32.7,33.5v76.5c0,13.6-5.4,18.2-25.2,18.2v7
		h78.1v-7c-20.7,0-24.8-5.8-24.8-24.8v-66.2c0-35.1-25.2-52.5-49.6-52.5c-18.6,0-35.6,9.5-52.9,29.4v-29.4h-7l-45.5,4.6v7
		c19.8,0,24.4,3.7,24.4,21.5V965c0,26.2-4.9,28.1-24,28.1c-20.3-0.1-24.4-5.9-24.4-24.8v-66.2c0-35.1-25.2-52.5-49.6-52.5
		c-18.6,0-35.6,9.5-52.9,29.4v-29.4L897.3,849.6L897.3,849.6z M781.2,858.3c18.6,0,40.5,13.2,39.3,45.5h-79.8
		C742.3,876.5,756.8,858.3,781.2,858.3L781.2,858.3z M874.2,1020.9c-2,0-10.2,1-12.7,11H857l-0.4,2h4.5l-6.7,33.2h2.1
		c2.7-7.1,6.4-22,8.7-33.2h6.1l1.1-1l0.2-1h-6.9l0.5-2.3c1.1-5.1,3.2-7,6.1-7c2,0,3.5,1.5,4.1,2.7l1.2-0.6l0.6-3.1
		C877.5,1021.1,875.2,1020.9,874.2,1020.9L874.2,1020.9z M556.9,1022.5v1.2c4.2,0.5,4,0.3,4,4.6v14c0,8.5,3.1,13.6,13.1,13.6
		c6.1,0,12.5-3.8,12.5-13.8v-13.2c0-1,0.2-1.8,0.3-2.5c0.2-1.7,1.8-2.3,4-2.6v-1.2h-11.1v1.2c2.2,0.2,3.8,0.9,4,2.6
		c0.1,0.8,0.3,1.5,0.3,2.5v13c0,7.5-3.4,11.8-9.8,11.8c-7,0-8.8-5-8.8-11.6v-13.7c0-4.4-0.2-4.1,4-4.6v-1.2L556.9,1022.5
		L556.9,1022.5z M892.5,1022.5v1.2c4.2,0.5,4,0.3,4,4.6v21.1c0,4.4,0.2,4.1-4,4.6v1.2h12.6v-1.2c-4.2-0.5-4-0.3-4-4.6V1024h2.9
		c5.3,0,7.8,2.4,7.8,7.7c0,5.2-2.7,8.7-8.6,8.6v0.9c7.2,0.4,13.3-3.2,13.3-10c0-5.6-3.8-8.7-11.6-8.7H892.5z M734.6,1029.6
		c-4.2,0-7.8,2.6-7.8,5.8c0,3.9,2.4,5.4,4.4,6.7c5.4,3.6,6.7,5.5,6.7,7.9c0,2.6-2.1,4.6-4.7,4.6c-2.8,0-5.4-1.6-5.8-5.6h-0.9v5.2
		c0,0.3,0.1,0.4,0.3,0.5c1.9,0.7,3.9,1.2,6.2,1.2c4.3,0,8.8-2.4,8.8-6.7c0-3-1.2-4.9-5.1-7.7c-3.6-2.7-6.2-4.2-6.2-6.8
		c0-2.7,1.9-3.8,4-3.8c2.9,0,4.3,2,4.6,4.6h0.9v-4.7c0-0.2,0-0.3-0.3-0.4C738.3,1029.8,736.2,1029.6,734.6,1029.6L734.6,1029.6z
		 M1022.1,1029.6c-4.2,0-7.8,2.6-7.8,5.8c0,3.9,2.4,5.4,4.4,6.7c5.4,3.6,6.7,5.5,6.7,7.9c0,2.6-2.1,4.6-4.7,4.6
		c-2.8,0-5.4-1.6-5.8-5.6h-0.9v5.2c0,0.3,0.1,0.4,0.3,0.5c1.9,0.7,3.9,1.2,6.2,1.2c4.3,0,8.8-2.4,8.8-6.7c0-3-1.2-4.9-5.1-7.7
		c-3.6-2.7-6.2-4.2-6.2-6.8c0-2.7,1.9-3.8,4-3.8c2.9,0,4.3,2,4.6,4.6h0.9v-4.7c0-0.2,0-0.3-0.3-0.4
		C1025.7,1029.8,1023.7,1029.6,1022.1,1029.6L1022.1,1029.6z M1120.8,1029.6c-3,8-7.2,19.8-8.8,23c-0.6,1.2-1.6,1.8-2.6,1.8v0.9h6.6
		v-0.9c-1.6,0-2.3-1.2-1.8-2.6l1.7-4.8h9.2l1.6,4.7c0.6,1.6,0.4,2.8-1.9,2.8v0.9h8.4v-0.9c-1.6,0-2.1-1.2-2.9-3.2
		c-1.2-3.2-4.9-14.4-7.4-21.6L1120.8,1029.6L1120.8,1029.6z M1198.2,1029.6c-3,8-7.2,19.8-8.8,23c-0.6,1.2-1.6,1.8-2.6,1.8v0.9h6.6
		v-0.9c-1.6,0-2.3-1.2-1.8-2.6l1.7-4.8h9.2l1.5,4.7c0.6,1.6,0.4,2.8-1.9,2.8v0.9h8.4v-0.9c-1.6,0-2.1-1.2-2.9-3.2
		c-1.2-3.2-4.9-14.4-7.4-21.6L1198.2,1029.6L1198.2,1029.6z M594,1030v0.9c2.1,0,3.2,1.2,4.2,2.5v17.1c0,0.8-0.1,1.4-0.2,1.9
		c-0.2,1.3-1.4,1.8-3.1,2v0.9h8.9v-0.9c-2.4-0.2-3.6-0.7-3.8-2c-0.1-0.6-0.2-1.2-0.2-1.9v-16c5.9,6.9,11.9,14.1,17.6,20.9h1.2v-20.4
		c0-0.8,0.1-1.4,0.2-2c0.2-1.3,1.4-1.8,3.1-2v-0.9h-8.9v0.9c2.4,0.2,3.6,0.7,3.8,2c0.1,0.6,0.2,1.2,0.2,2v14.9H617
		c-5.4-6.6-11-13.2-16.4-19.8L594,1030L594,1030z M629.3,1030v0.9c3.3,0.4,3.1,0.2,3.1,3.6v16.3c0,3.4,0.1,3.2-3.1,3.6v0.9h9.7v-0.9
		c-3.3-0.4-3.1-0.2-3.1-3.6v-16.3c0-3.4-0.1-3.2,3.1-3.6v-0.9H629.3z M644.6,1030v0.9c1.7,0,2.9,1.1,4.2,5
		c2.2,6.2,4.7,13.1,6.9,19.4h1.8c3-7.4,6.1-14.8,9.2-22.2c0.8-1.8,2-2.2,3-2.2v-0.9h-7.8v0.9c2.5,0,3.4,1.1,2.5,3.4
		c-2.2,5.5-4.4,11.1-6.8,16.6c-1.9-5.5-4-11.7-5.4-16c-1.2-3.5,0.3-4.1,2.2-4.1v-0.9H644.6L644.6,1030z M675.3,1030v0.9
		c3.3,0.4,3.1,0.2,3.1,3.6v16.3c0,3.4,0.1,3.2-3.1,3.6v0.9h17.8l1.1-6.5h-0.9c-1.7,3.9-1.4,5.4-6.7,5.4c-3.3,0-4.7-0.3-4.7-3.3v-8.2
		h3c2.4,0,3.3,1.3,3.3,3.4h0.9v-7.7h-0.9c-0.1,2.2-1.1,3.2-3.3,3.2h-3v-10.4h4.9c2.6,0,3.3,2,3.7,4.7h0.9v-5.8L675.3,1030
		L675.3,1030z M699.7,1030v0.9c3.3,0.4,3.1,0.2,3.1,3.6v16.3c0,3.4,0.1,3.2-3.1,3.6v0.9h9.7v-0.9c-3.3-0.4-3.1-0.2-3.1-3.6v-6.7h3.4
		c4.4,7.3,5.5,11.2,7.7,11.2h3.7v-0.5c-1.3-0.8-3.3-3.3-5.1-5.9l-3.5-5.4c2.8-1.1,5.1-3.7,5.1-7.4c0-4.2-3.7-6.2-7.3-6.2L699.7,1030
		L699.7,1030z M748.2,1030v0.9c3.3,0.4,3.1,0.2,3.1,3.6v16.3c0,3.4,0.2,3.2-3.1,3.6v0.9h9.7v-0.9c-3.3-0.4-3.1-0.2-3.1-3.6v-16.3
		c0-3.4-0.1-3.2,3.1-3.6v-0.9H748.2z M764.1,1030l-1,5.5h0.9c1.2-2.4,1.9-4.4,5.1-4.4h3.2v19.6c0,3.4,0.2,3.2-3.1,3.6v0.9h9.7v-0.9
		c-3.3-0.4-3.1-0.2-3.1-3.6v-19.6h3.3c3.1,0,3.9,2,5.1,4.4h0.9l-1-5.5H764.1L764.1,1030z M789.3,1030v0.9c1.7,0,2.7,0.9,3.9,3.3
		l5.6,11v5.6c0,3.4,0.1,3.2-3.1,3.6v0.9h9.7v-0.9c-3.3-0.4-3.1-0.2-3.1-3.6v-4c0-0.9,0.1-1.9,0.4-2.6l6-11c1-1.7,2-2.2,3-2.2v-0.9
		h-7.5v0.9c2.1,0,3.3,1,2.1,3.3l-5,9.1l-4.4-9.1c-0.9-1.9-1.1-3.3,1.6-3.3v-0.9L789.3,1030L789.3,1030z M922.9,1030v0.9
		c3.3,0.4,3.1,0.2,3.1,3.6v16.3c0,3.4,0.1,3.2-3.1,3.6v0.9h17.8l1.1-6.5h-0.9c-1.7,3.9-1.4,5.4-6.7,5.4c-3.3,0-4.7-0.3-4.7-3.3v-8.2
		h3c2.4,0,3.3,1.3,3.3,3.4h0.9v-7.7h-0.9c-0.1,2.2-1,3.2-3.3,3.2h-3v-10.4h4.9c2.6,0,3.3,2,3.7,4.7h0.9v-5.8L922.9,1030L922.9,1030z
		 M947.2,1030v0.9c2.1,0,3.2,1.2,4.2,2.5v17.1c0,0.8-0.1,1.4-0.2,1.9c-0.2,1.3-1.4,1.8-3.1,2v0.9h8.9v-0.9c-2.4-0.2-3.6-0.7-3.8-2
		c-0.1-0.6-0.2-1.2-0.2-1.9v-16c5.9,6.9,11.9,14.1,17.6,20.9h1.2v-20.4c0-0.8,0.1-1.4,0.2-2c0.2-1.3,1.4-1.8,3.1-2v-0.9h-8.9v0.9
		c2.4,0.2,3.6,0.7,3.8,2c0.1,0.6,0.2,1.2,0.2,2v14.9h-0.1c-5.4-6.6-11-13.2-16.4-19.8L947.2,1030L947.2,1030z M979.6,1030v0.9
		c2.1,0,3.2,1.2,4.2,2.5v17.1c0,0.8-0.1,1.4-0.2,1.9c-0.2,1.3-1.4,1.8-3.1,2v0.9h8.9v-0.9c-2.4-0.2-3.6-0.7-3.8-2
		c-0.1-0.6-0.2-1.2-0.2-1.9v-16c5.9,6.9,11.9,14.1,17.6,20.9h1.2v-20.4c0-0.8,0.1-1.4,0.2-2c0.2-1.3,1.4-1.8,3.1-2v-0.9h-8.9v0.9
		c2.4,0.2,3.6,0.7,3.8,2c0.1,0.6,0.2,1.2,0.2,2v14.9h-0.1c-5.4-6.6-11-13.2-16.4-19.8L979.6,1030L979.6,1030z M1034.8,1030v0.9
		c1.7,0,2.7,0.9,3.9,3.3l5.6,11v5.6c0,3.4,0.1,3.2-3.1,3.6v0.9h9.7v-0.9c-3.3-0.4-3.1-0.2-3.1-3.6v-4c0-0.9,0.1-1.9,0.4-2.6l6-11
		c1-1.7,2-2.2,3-2.2v-0.9h-7.5v0.9c2.1,0,3.3,1,2.1,3.3l-5,9.1l-4.4-9.1c-0.9-1.9-1.2-3.3,1.6-3.3v-0.9L1034.8,1030L1034.8,1030z
		 M1063.1,1030v0.9c3.3,0.4,3.1,0.2,3.1,3.6v16.3c0,3.4,0.1,3.2-3.1,3.6v0.9h17.8l1.1-6.5h-0.9c-1.7,3.9-1.4,5.4-6.7,5.4
		c-3.2,0-4.6-0.3-4.6-2.8v-16.9c0-3.4-0.1-3.2,3.1-3.6v-0.9H1063.1L1063.1,1030z M1084.7,1030v0.9c1.7,0,2.9,1.1,4.2,5
		c2.2,6.2,4.7,13.1,6.9,19.4h1.8c3-7.4,6.1-14.8,9.2-22.2c0.8-1.8,2-2.2,3-2.2v-0.9h-7.8v0.9c2.5,0,3.4,1.1,2.5,3.4
		c-2.2,5.5-4.5,11.1-6.8,16.6c-1.9-5.5-4-11.7-5.4-16c-1.2-3.5,0.3-4.1,2.3-4.1v-0.9H1084.7L1084.7,1030z M1137.7,1030v0.9
		c2.1,0,3.2,1.2,4.2,2.5v17.1c0,0.8-0.1,1.4-0.2,1.9c-0.2,1.3-1.4,1.8-3.1,2v0.9h8.9v-0.9c-2.4-0.2-3.6-0.7-3.8-2
		c-0.1-0.6-0.2-1.2-0.2-1.9v-16c5.9,6.9,11.9,14.1,17.6,20.9h1.2v-20.4c0-0.8,0.1-1.4,0.2-2c0.2-1.3,1.4-1.8,3.1-2v-0.9h-8.9v0.9
		c2.4,0.2,3.6,0.7,3.8,2c0.1,0.6,0.2,1.2,0.2,2v14.9h-0.1c-5.4-6.6-11-13.2-16.4-19.8L1137.7,1030L1137.7,1030z M1171.5,1030v0.9
		c3.3,0.4,3.1,0.2,3.1,3.6v16.3c0,3.4,0.1,3.2-3.1,3.6v0.9h9.7v-0.9c-3.3-0.4-3.1-0.2-3.1-3.6v-16.3c0-3.4-0.1-3.2,3.1-3.6v-0.9
		H1171.5z M706.3,1031.2h2.8c2.6,0,4.8,1.4,4.8,5.3c0,4.1-1.4,6.5-4.6,6.5h-3V1031.2L706.3,1031.2z M841.3,1031.4
		c-7.8,0-13.1,9.2-13.1,15.3c0,4.4,1.6,9.2,7.6,9.2c9,0,13.1-11,13.1-16.1C848.9,1035.6,847.5,1031.4,841.3,1031.4L841.3,1031.4z
		 M840.9,1032.5c0.7,0,3.7,0.2,3.7,5.1c0,8.2-2.8,17-8.2,17c-3.5,0-3.9-4.4-3.9-6.8C832.5,1041.6,835.8,1032.5,840.9,1032.5
		L840.9,1032.5z M1120.7,1033.8L1120.7,1033.8l3.9,11.8h-8.2L1120.7,1033.8L1120.7,1033.8z M1198.1,1033.8L1198.1,1033.8l3.9,11.8
		h-8.2L1198.1,1033.8L1198.1,1033.8z"/>
</g>
</svg>
