<?xml version="1.0" encoding="utf-8"?>
<!-- Generator: Adobe Illustrator 27.0.0, SVG Export Plug-In . SVG Version: 6.00 Build 0)  -->
<svg version="1.1" id="Layer_1" xmlns="http://www.w3.org/2000/svg" xmlns:xlink="http://www.w3.org/1999/xlink" x="0px" y="0px"
	 viewBox="0 0 501.3 300" style="enable-background:new 0 0 501.3 300;" xml:space="preserve">
<style type="text/css">
	.st0{fill:#252F3E;}
	.st1{fill-rule:evenodd;clip-rule:evenodd;fill:#FF9900;}
</style>
<g id="g1865" transform="translate(-1.668 -1.1)">
	<path id="path1857" class="st0" d="M142.9,110c0,6.2,0.7,11.2,1.9,14.8c1.4,3.7,3,7.7,5.3,12c0.8,1.4,1.2,2.7,1.2,3.8
		c0,1.7-1,3.4-3.2,5l-10.5,7c-1.5,1-3,1.5-4.3,1.5c-1.7,0-3.4-0.8-5-2.4c-2.4-2.5-4.3-5.1-6-7.8c-1.7-2.9-3.4-6-5.1-9.9
		c-13,15.3-29.3,23-49,23c-14,0-25.2-4-33.4-12s-12.3-18.7-12.3-32c0-14.2,5-25.7,15.2-34.3s23.7-13,40.9-13
		c5.6,0,11.5,0.5,17.7,1.4c6.2,0.8,12.5,2.2,19.1,3.7V58.7c0-12.6-2.7-21.5-7.8-26.6c-5.3-5.1-14.3-7.7-27.1-7.7
		c-5.8,0-11.8,0.7-18.1,2.2c-6.2,1.5-12.1,3.4-18.1,5.6c-2.7,1.2-4.6,1.9-5.8,2.2s-2,0.5-2.7,0.5c-2.4,0-3.5-1.7-3.5-5.1v-8.2
		c0-2.7,0.3-4.6,1.2-5.8c0.8-1.2,2.4-2.4,4.6-3.5c5.8-3,12.8-5.5,21-7.5C67.3,2.6,76,1.6,85.2,1.6c19.8,0,34.3,4.5,43.7,13.5
		c9.2,9,13.8,22.7,13.8,41.1V110H142.9z M75.2,135.4c5.5,0,11.2-1,17.2-3s11.3-5.6,15.9-10.7c2.7-3.2,4.6-6.7,5.6-10.7
		s1.7-8.9,1.7-14.5v-7c-4.8-1.2-10-2.2-15.3-2.9s-10.5-1-15.7-1c-11.2,0-19.3,2.2-24.9,6.7c-5.5,4.5-8.2,10.9-8.2,19.1
		c0,7.8,2,13.7,6.2,17.7C61.7,133.4,67.5,135.4,75.2,135.4L75.2,135.4z M209.1,153.5c-3,0-5-0.5-6.3-1.7c-1.4-1-2.5-3.4-3.5-6.5
		L160,16.3c-1-3.4-1.5-5.5-1.5-6.7c0-2.7,1.4-4.1,4-4.1H179c3.2,0,5.3,0.5,6.5,1.7c1.4,1,2.4,3.4,3.4,6.5l28,110.4L243,13.6
		c0.8-3.4,1.9-5.5,3.2-6.5c1.4-1,3.7-1.7,6.7-1.7H266c3.2,0,5.3,0.5,6.7,1.7c1.4,1,2.5,3.4,3.2,6.5l26.3,111.7L331,13.6
		c1-3.4,2.2-5.5,3.4-6.5c1.4-1,3.5-1.7,6.5-1.7h15.5c2.7,0,4.1,1.4,4.1,4.1c0,0.8-0.2,1.7-0.3,2.7c-0.2,1-0.5,2.4-1.2,4.1
		l-40.2,128.9c-1,3.4-2.2,5.5-3.5,6.5c-1.4,1-3.5,1.7-6.3,1.7h-14.3c-3.2,0-5.3-0.5-6.7-1.7c-1.4-1.2-2.5-3.4-3.2-6.7L259.1,37.5
		l-25.7,107.4c-0.8,3.4-1.9,5.5-3.2,6.7c-1.4,1.2-3.7,1.7-6.7,1.7h-14.4L209.1,153.5L209.1,153.5z M423.4,157.9
		c-8.7,0-17.4-1-25.7-3c-8.3-2-14.8-4.1-19.1-6.7c-2.7-1.5-4.5-3.2-5.1-4.6c-0.7-1.5-1-3.2-1-4.6v-8.5c0-3.5,1.4-5.1,3.8-5.1
		c1,0,2,0.2,3,0.5s2.5,1,4.1,1.7c5.6,2.5,11.8,4.5,18.4,5.8c6.7,1.4,13.2,2,19.8,2c10.5,0,18.7-1.9,24.4-5.5c5.7-3.7,8.7-9,8.7-15.9
		c0-4.6-1.5-8.5-4.5-11.6c-3-3.2-8.7-6-16.9-8.7l-24.2-7.5c-12.1-3.8-21.2-9.5-26.6-17c-5.5-7.3-8.3-15.5-8.3-24.2
		c0-7,1.5-13.2,4.5-18.6c3-5.3,7-10,12-13.7c5-3.8,10.7-6.7,17.4-8.7s13.7-2.9,21-2.9c3.7,0,7.5,0.2,11.2,0.7
		c3.8,0.5,7.3,1.2,10.9,1.9c3.4,0.8,6.5,1.7,9.5,2.7s5.3,2,7,3c2.4,1.4,4,2.7,5,4.1s1.5,3.2,1.5,5.5v7.8c0,3.5-1.4,5.3-3.8,5.3
		c-1.4,0-3.5-0.7-6.3-2c-9.5-4.3-20.1-6.5-32-6.5c-9.5,0-17,1.5-22.2,4.6c-5.1,3.2-7.8,8-7.8,14.8c0,4.6,1.7,8.7,5,11.8
		s9.5,6.3,18.4,9.2l23.7,7.5c12,3.8,20.7,9.2,25.9,16c5.1,6.8,7.7,14.7,7.7,23.4c0,7.2-1.5,13.7-4.3,19.3c-3,5.6-7,10.7-12.1,14.7
		c-5.1,4.1-11.3,7.2-18.6,9.4C439.8,156.7,431.9,157.9,423.4,157.9L423.4,157.9z"/>
	<g id="g1863">
		<path id="path1859" class="st1" d="M455,239c-54.9,40.6-134.6,62.1-203.1,62.1c-96,0-182.7-35.5-248-94.5
			c-5.1-4.6-0.5-11.1,5.6-7.3c70.8,41.1,157.9,65.9,248.2,65.9c60.9,0,127.8-12.6,189.3-38.7C456,222.2,463.9,232.3,455,239z"/>
		<path id="path1861" class="st1" d="M477.8,213c-7-9-46.4-4.3-64.2-2.2c-5.3,0.7-6.2-4-1.4-7.5c31.4-22,82.9-15.7,88.9-8.3
			c6,7.5-1.7,59-31,83.7c-4.5,3.8-8.9,1.9-6.8-3.2C470,259,484.8,221.9,477.8,213z"/>
	</g>
</g>
</svg>
