<?xml version="1.0" encoding="utf-8"?>
<!-- Generator: Adobe Illustrator 27.0.0, SVG Export Plug-In . SVG Version: 6.00 Build 0)  -->
<svg version="1.1" id="Layer_1" xmlns="http://www.w3.org/2000/svg" xmlns:xlink="http://www.w3.org/1999/xlink" x="0px" y="0px"
	 viewBox="0 0 910.9 300" style="enable-background:new 0 0 910.9 300;" xml:space="preserve">
<style type="text/css">
	.st0{fill:#EA4335;}
	.st1{fill:#FBBC05;}
	.st2{fill:#4285F4;}
	.st3{fill:#34A853;}
</style>
<g>
	<path class="st0" d="M389.7,157.9c0,43.1-33.8,74.9-75.2,74.9s-75.2-31.8-75.2-74.9c0-43.4,33.8-74.9,75.2-74.9
		S389.7,114.5,389.7,157.9z M356.7,157.9c0-26.9-19.5-45.4-42.2-45.4s-42.2,18.5-42.2,45.4c0,26.6,19.5,45.4,42.2,45.4
		S356.7,184.5,356.7,157.9z"/>
	<path class="st1" d="M551.8,157.9c0,43.1-33.8,74.9-75.2,74.9s-75.2-31.8-75.2-74.9c0-43.4,33.8-74.9,75.2-74.9
		C518.1,82.9,551.8,114.5,551.8,157.9z M519,157.9c0-26.9-19.5-45.4-42.2-45.4s-42.2,18.5-42.2,45.4c0,26.6,19.5,45.4,42.2,45.4
		C499.3,203.3,519,184.5,519,157.9z"/>
	<path class="st2" d="M707.3,87.4V222c0,55.4-32.7,78-71.2,78c-36.3,0-58.2-24.3-66.4-44.1l28.6-11.9c5.1,12.2,17.6,26.5,37.7,26.5
		c24.7,0,40-15.2,40-43.9v-10.8h-1.2c-7.4,9.1-21.5,17.1-39.5,17.1c-37.5,0-71.7-32.7-71.7-74.6c0-42.3,34.3-75.2,71.7-75.2
		c17.9,0,32.1,7.9,39.5,16.8h1.2V87.6L707.3,87.4L707.3,87.4z M678.4,158.2c0-26.3-17.6-45.7-40-45.7c-22.7,0-41.7,19.2-41.7,45.7
		c0,26.2,19,45.1,41.7,45.1C660.7,203.3,678.4,184.2,678.4,158.2z"/>
	<path class="st3" d="M758.8,8.6v219.6h-32.1V8.6H758.8z"/>
	<path class="st0" d="M883.8,182.6l25.6,17.1c-8.3,12.2-28.1,33.3-62.5,33.3c-42.5,0-74.3-32.9-74.3-74.9
		c0-44.6,32.1-74.9,70.7-74.9c38.9,0,57.9,31,64.1,47.7l3.5,8.5l-100.3,41.3c7.7,15,19.6,22.7,36.3,22.7
		C863.7,203.3,875.3,195,883.8,182.6L883.8,182.6z M805.3,155.5l67-27.8c-3.7-9.4-14.8-15.9-27.8-15.9
		C827.7,111.9,804.4,126.6,805.3,155.5z"/>
	<path class="st2" d="M117.8,138.4v-31.8H225c1.1,5.5,1.6,12.1,1.6,19.1c0,23.9-6.5,53.4-27.5,74.3c-20.4,21.3-46.6,32.7-81.1,32.7
		c-64.1,0-118-52.2-118-116.3S53.8,0,117.9,0c35.4,0,60.8,13.9,79.7,32.1l-22.4,22.4c-13.6-12.7-32.1-22.7-57.3-22.7
		c-46.8,0-83.5,37.7-83.5,84.6S71,201,117.9,201c30.4,0,47.7-12.2,58.7-23.3c9-9,14.9-21.8,17.3-39.4L117.8,138.4z"/>
</g>
</svg>
