<?xml version="1.0" encoding="utf-8"?>
<!-- Generator: Adobe Illustrator 27.0.0, SVG Export Plug-In . SVG Version: 6.00 Build 0)  -->
<svg version="1.1" id="Layer_1" xmlns="http://www.w3.org/2000/svg" xmlns:xlink="http://www.w3.org/1999/xlink" x="0px" y="0px"
	 viewBox="0 0 1200 800" style="enable-background:new 0 0 1200 800;" xml:space="preserve">
<style type="text/css">
	.st0{fill:#252F3E;}
	.st1{fill-rule:evenodd;clip-rule:evenodd;fill:#FF9900;}
</style>
<g id="g1865" transform="translate(-1.668 -1.1)">
	<path id="path1857" class="st0" d="M489.3,359c0,6.3,0.7,11.3,1.9,15c1.4,3.7,3,7.8,5.4,12.2c0.8,1.4,1.2,2.7,1.2,3.9
		c0,1.7-1,3.4-3.2,5.1l-10.6,7.1c-1.5,1-3,1.5-4.4,1.5c-1.7,0-3.4-0.8-5.1-2.4c-2.4-2.5-4.4-5.2-6.1-7.9c-1.7-2.9-3.4-6.1-5.2-10
		c-13.2,15.5-29.7,23.3-49.7,23.3c-14.2,0-25.5-4.1-33.8-12.2c-8.3-8.1-12.5-18.9-12.5-32.4c0-14.4,5.1-26,15.4-34.8
		c10.3-8.8,24-13.2,41.4-13.2c5.7,0,11.7,0.5,17.9,1.4c6.3,0.8,12.7,2.2,19.4,3.7V307c0-12.8-2.7-21.8-7.9-27
		c-5.4-5.2-14.5-7.8-27.5-7.8c-5.9,0-12,0.7-18.3,2.2c-6.3,1.5-12.3,3.4-18.3,5.7c-2.7,1.2-4.7,1.9-5.9,2.2c-1.2,0.3-2,0.5-2.7,0.5
		c-2.4,0-3.5-1.7-3.5-5.2v-8.3c0-2.7,0.3-4.7,1.2-5.9c0.8-1.2,2.4-2.4,4.7-3.5c5.9-3,13-5.6,21.3-7.6c8.3-2.2,17.1-3.2,26.4-3.2
		c20.1,0,34.8,4.6,44.3,13.7c9.3,9.1,14,23,14,41.6V359H489.3z M420.7,384.7c5.6,0,11.3-1,17.4-3s11.5-5.7,16.1-10.8
		c2.7-3.2,4.7-6.8,5.7-10.8c1-4.1,1.7-9,1.7-14.7v-7.1c-4.9-1.2-10.1-2.2-15.5-2.9s-10.6-1-15.9-1c-11.3,0-19.6,2.2-25.2,6.8
		c-5.6,4.6-8.3,11-8.3,19.4c0,7.9,2,13.9,6.3,17.9C407,382.7,412.9,384.7,420.7,384.7L420.7,384.7z M556.4,403c-3,0-5.1-0.5-6.4-1.7
		c-1.4-1-2.5-3.4-3.5-6.6L506.7,264c-1-3.4-1.5-5.6-1.5-6.8c0-2.7,1.4-4.2,4.1-4.2h16.6c3.2,0,5.4,0.5,6.6,1.7
		c1.4,1,2.4,3.4,3.4,6.6l28.4,111.9l26.4-111.9c0.8-3.4,1.9-5.6,3.2-6.6c1.4-1,3.7-1.7,6.8-1.7H614c3.2,0,5.4,0.5,6.8,1.7
		c1.4,1,2.5,3.4,3.2,6.6l26.7,113.2l29.2-113.2c1-3.4,2.2-5.6,3.4-6.6c1.4-1,3.5-1.7,6.6-1.7h15.7c2.7,0,4.2,1.4,4.2,4.2
		c0,0.8-0.2,1.7-0.3,2.7c-0.2,1-0.5,2.4-1.2,4.2l-40.7,130.6c-1,3.4-2.2,5.6-3.5,6.6c-1.4,1-3.5,1.7-6.4,1.7h-14.5
		c-3.2,0-5.4-0.5-6.8-1.7c-1.4-1.2-2.5-3.4-3.2-6.8l-26.2-109l-26,108.8c-0.8,3.4-1.9,5.6-3.2,6.8c-1.4,1.2-3.7,1.7-6.8,1.7H556.4z
		 M773.5,407.5c-8.8,0-17.6-1-26-3c-8.4-2-15-4.2-19.4-6.8c-2.7-1.5-4.6-3.2-5.2-4.7c-0.7-1.5-1-3.2-1-4.7v-8.6
		c0-3.5,1.4-5.2,3.9-5.2c1,0,2,0.2,3,0.5c1,0.3,2.5,1,4.2,1.7c5.7,2.5,12,4.6,18.6,5.9c6.8,1.4,13.4,2,20.1,2
		c10.6,0,18.9-1.9,24.7-5.6s8.8-9.1,8.8-16.1c0-4.7-1.5-8.6-4.6-11.8c-3-3.2-8.8-6.1-17.1-8.8l-24.5-7.6c-12.3-3.9-21.5-9.6-27-17.2
		c-5.6-7.4-8.4-15.7-8.4-24.5c0-7.1,1.5-13.4,4.6-18.8c3-5.4,7.1-10.1,12.2-13.9c5.1-3.9,10.8-6.8,17.6-8.8c6.8-2,13.9-2.9,21.3-2.9
		c3.7,0,7.6,0.2,11.3,0.7c3.9,0.5,7.4,1.2,11,1.9c3.4,0.8,6.6,1.7,9.6,2.7c3,1,5.4,2,7.1,3c2.4,1.4,4.1,2.7,5.1,4.2
		c1,1.4,1.5,3.2,1.5,5.6v7.9c0,3.5-1.4,5.4-3.9,5.4c-1.4,0-3.5-0.7-6.4-2c-9.6-4.4-20.4-6.6-32.4-6.6c-9.6,0-17.2,1.5-22.5,4.7
		c-5.2,3.2-7.9,8.1-7.9,15c0,4.7,1.7,8.8,5.1,12c3.4,3.2,9.6,6.4,18.6,9.3l24,7.6c12.2,3.9,21,9.3,26.2,16.2
		c5.2,6.9,7.8,14.9,7.8,23.7c0,7.3-1.5,13.9-4.4,19.6c-3,5.7-7.1,10.8-12.3,14.9c-5.2,4.2-11.5,7.3-18.8,9.5
		C790.1,406.3,782.1,407.5,773.5,407.5L773.5,407.5z"/>
	<g id="g1863">
		<path id="path1859" class="st1" d="M805.5,489.7c-55.6,41.1-136.4,62.9-205.8,62.9c-97.3,0-185.1-36-251.3-95.8
			c-5.2-4.7-0.5-11.2,5.7-7.4c71.7,41.6,160,66.8,251.5,66.8c61.7,0,129.5-12.8,191.8-39.2C806.6,472.6,814.6,482.9,805.5,489.7z"/>
		<path id="path1861" class="st1" d="M828.6,463.3c-7.1-9.1-47-4.4-65.1-2.2c-5.4,0.7-6.3-4.1-1.4-7.6c31.8-22.3,84-15.9,90.1-8.4
			c6.1,7.6-1.7,59.8-31.4,84.8c-4.6,3.9-9,1.9-6.9-3.2C820.7,509.9,835.7,472.3,828.6,463.3z"/>
	</g>
</g>
</svg>
