<?xml version="1.0" encoding="utf-8"?>
<!-- Generator: Adobe Illustrator 27.0.0, SVG Export Plug-In . SVG Version: 6.00 Build 0)  -->
<svg version="1.1" id="Layer_1" xmlns="http://www.w3.org/2000/svg" xmlns:xlink="http://www.w3.org/1999/xlink" x="0px" y="0px"
	 viewBox="0 0 1200 800" style="enable-background:new 0 0 1200 800;" xml:space="preserve">
<style type="text/css">
	.st0{fill:#012169;}
</style>
<g transform="matrix(1.25 0 0 -1.25 -326.25 413.97)">
	<path class="st0" d="M828.2,132.7c-0.8,0-1.5-0.2-2.3-0.6l-19.4-7.4c-2.1-0.8-3.6-1.4-4.5-1.8c-0.9-0.5-1.4-1.2-1.4-2.1
		c0-1.3,0.7-2.2,2.1-2.6c1.4-0.4,3-0.9,4.8-1.6c1.8-0.7,3.4-1.8,4.8-3.4c1.4-1.6,2.1-4.3,2.1-8.1V-37.2c0-3-0.3-5.3-1-6.8
		c-0.7-1.5-1.7-2.7-3-3.4c-1.3-0.8-2.8-1.3-4.5-1.7c-1.7-0.4-3.5-0.8-5.4-1.4c-1.5-0.4-2.7-0.8-3.7-1.3c-0.9-0.5-1.4-1.4-1.4-2.7
		c0-1.3,0.9-2.1,2.7-2.4c1.8-0.3,3.2-0.4,4.1-0.4c2.5,0,5.6,0.2,9.5,0.5c3.9,0.4,7.5,0.5,11,0.5c3.2,0,6.4-0.2,9.4-0.5
		c3-0.4,6.3-0.5,9.7-0.5c1.5,0,3,0.2,4.4,0.6c1.4,0.4,2.1,1.1,2.1,2.3c0,1.3-0.8,2.1-2.4,2.4c-1.6,0.3-3.6,0.8-5.8,1.6
		c-1.3,0.4-2.7,1.2-4.1,2.4c-1.4,1.2-2.1,3.4-2.1,6.7v40.2c0,0.9,0.7,1.4,2,1.4c0.6,0,1.4-0.6,2.6-1.7l42.8-40.5
		c2.1-2.1,3.1-3.6,3.1-4.5c0-0.9-0.5-1.8-1.6-2.5c-1-0.8-2.3-1.2-3.8-1.4c-2.5-0.4-4.4-0.8-6-1.3c-1.5-0.5-2.3-1.4-2.3-2.7
		c0-1.3,0.7-2.1,2-2.4c1.3-0.3,3.5-0.4,6.5-0.4c3.4,0,6.8,0.2,10.2,0.5c3.4,0.4,7,0.5,10.8,0.5c4.3,0,8.3-0.2,11.9-0.5
		c3.6-0.4,6.9-0.5,9.9-0.5c4.9,0,7.4,0.9,7.4,2.8c0,0.9-0.6,1.7-1.8,2.3c-1.2,0.6-2.9,1.3-5,2.1c-2.1,0.9-4.5,1.9-7.2,3.3
		c-2.7,1.3-5.5,3.3-8.4,5.9L858,3.6c-0.4,0.4-0.9,0.9-1.4,1.6c-0.6,0.7-0.9,1.5-0.9,2.4c0,0.8,2.5,2.8,7.4,6.1
		c4.9,3.3,10.5,6.8,16.9,10.6c6.3,3.8,12.5,7.3,18.4,10.6c6,3.3,10,5.4,12.1,6.4c0.9,0.4,2.2,0.8,3.8,1.3c1.6,0.5,3.2,1,4.7,1.6
		c1.5,0.6,2.8,1.2,3.8,1.8c1,0.7,1.6,1.4,1.6,2.1c0,1.5-0.6,2.5-1.7,2.8c-1.1,0.4-2.4,0.6-3.7,0.6c-2.8,0-6.2-0.1-10.1-0.3
		c-3.9-0.2-7.6-0.3-11.2-0.3c-3.8,0-7.6,0.1-11.5,0.3c-3.9,0.2-7.3,0.3-10.4,0.3c-0.9,0-1.8-0.3-2.7-0.9c-0.9-0.6-1.3-1.2-1.3-2
		c0-1.1,0.6-2,1.7-2.7c1.1-0.7,2.4-1.3,3.7-2c1.3-0.7,2.5-1.5,3.7-2.6c1.1-1,1.7-2.5,1.7-4.4c0-1-1.1-2.3-3.3-4.1
		c-2.2-1.8-4.9-3.8-8.1-6.1c-3.2-2.3-6.8-4.6-10.6-7.1c-3.9-2.5-7.5-4.7-10.9-6.7c-3.4-2-6.4-3.6-8.9-4.8c-2.6-1.2-4-1.8-4.4-1.8
		c-1.7,0-2.5,1.5-2.5,4.5v116.7c0,2.1-0.3,3.5-1,4.1c-0.7,0.7-1.4,1-2.1,1L828.2,132.7L828.2,132.7z M541.5,119
		c-9.1,0-17.2-0.3-24.3-0.8c-7.1-0.5-14.2-0.8-21.2-0.8h-25.8c-1,0-2,0-3.3-0.1c-1.2-0.1-2.4-0.3-3.5-0.6c-1.1-0.3-2.1-0.8-3-1.4
		c-0.9-0.7-1.3-1.6-1.3-2.7c0-1.5,0.6-2.4,1.8-2.7c1.2-0.3,3.5-0.6,6.7-1c1.9-0.2,3.9-0.3,6.1-0.4c2.2-0.1,4.3-0.3,6.2-0.6
		c2-0.3,3.6-0.8,5-1.4c1.3-0.7,2-1.6,2-3V-29.9c0-4.2-0.4-7.4-1.1-9.6c-0.8-2.3-1.7-4-3-5.3c-1.2-1.2-2.6-2.1-4.1-2.6
		c-1.5-0.5-3-0.8-4.5-1c-4.3-0.8-7.2-1.7-8.5-2.8c-1.3-1.1-2-2.3-2-3.4c0-1.5,0.7-2.3,2-2.5c1.3-0.2,2.4-0.3,3.1-0.3
		c3.4,0,7.5,0.2,12.2,0.5c4.7,0.4,9.2,0.5,13.3,0.5h67c12.1,0,23.5,2,34.2,6.1c10.7,4.1,20,9.6,28,16.6c7.9,7,14.2,15.2,18.9,24.7
		c4.6,9.5,7,19.5,7,30.1c0,17-2.8,31.7-8.5,44.1c-5.7,12.4-13.4,22.5-23.2,30.5c-9.8,7.9-21.2,13.8-34.2,17.6
		C570.5,117.1,556.5,119,541.5,119L541.5,119z M535.2,110.6c5.9,0,12.1-0.7,18.8-2.1c6.6-1.4,13.2-3.6,19.6-6.7
		c6.5-3,12.7-6.8,18.6-11.3c6-4.5,11.2-9.9,15.8-16.2c4.6-6.2,8.2-13.3,10.8-21.3c2.7-7.9,4-16.7,4-26.4c0-9.6-1.3-18.2-4-25.7
		c-2.7-7.5-6.2-14-10.5-19.6C604-24.2,599.1-29,593.6-33c-5.5-4-11-7.1-16.5-9.5c-5.5-2.4-10.8-4.1-15.9-5.2
		c-5.1-1.1-9.6-1.7-13.4-1.7c-4.6,0-9,0.6-13.4,1.7c-4.4,1.1-8.3,2.9-11.7,5.2c-3.4,2.4-6.2,5.3-8.3,8.9c-2.1,3.6-3.1,7.9-3.1,12.8
		v122.3c0,0.9,0.1,2,0.4,3.1c0.3,1.1,1.2,2.1,2.7,3c1.5,0.9,3.9,1.6,7.1,2.1C524.8,110.3,529.3,110.6,535.2,110.6L535.2,110.6z
		 M979.2,56.1c-8.9,0-16.5-1.9-22.9-5.7c-6.4-3.8-11.8-8.6-16-14.3s-7.4-12.2-9.5-19.3c-2.1-7.1-3.1-14-3.1-20.6
		c0-17.8,4.3-31.9,12.8-42.2c8.5-10.3,20.7-15.5,36.4-15.5c7.4,0,13.7,1.1,18.9,3.3c5.2,2.2,9.5,4.7,12.9,7.4
		c3.4,2.8,5.9,5.3,7.4,7.7c1.5,2.4,2.3,3.8,2.3,4.4c0,1.5-0.9,2.3-2.6,2.3c-1.1,0-2.2-0.6-3.1-1.9c-1-1.2-2.3-2.5-4-4
		c-1.7-1.4-4.1-2.7-7.1-3.8c-3-1.1-7.3-1.7-12.8-1.7c-8.7,0-15.7,1.4-21.1,4.1c-5.4,2.7-9.5,6.3-12.5,10.7c-2.9,4.4-4.9,9.4-6,15.1
		c-1,5.7-1.6,11.6-1.6,17.6v6c0,1.7,0.2,3,0.5,4h69c2.5,0,4,0.4,4.7,1.3c0.7,0.9,1,2.6,1,5.2c0,3-0.8,6.8-2.3,11.3
		c-1.5,4.5-4,8.9-7.4,13.2c-3.4,4.3-7.9,7.9-13.5,10.9C994.2,54.6,987.3,56.1,979.2,56.1L979.2,56.1z M664,51.5
		c-2.1,0-3.8-0.1-5.1-0.3c-1.3-0.2-2-0.9-2-2.3c0-0.9,0.6-1.7,1.7-2.1c1.1-0.5,3.4-1.2,6.8-2.1c1.7-0.4,3.5-0.9,5.4-1.4
		c1.9-0.6,2.8-1.9,2.8-4c0-4.2,0-8.8-0.1-14s-0.1-10.5-0.1-16c0-5.3,0-10.6-0.1-15.9c-0.1-5.3-0.1-10.1-0.1-14.5
		c0-6.1,0.5-11.6,1.6-16.5s2.8-9.2,5.4-12.8c2.6-3.6,6.1-6.3,10.5-8.2c4.4-1.9,10-2.8,16.6-2.8c5.7,0,10.7,0.9,15.2,2.7
		s8.3,3.7,11.6,5.9c3.3,2.2,6,4.1,8.1,5.8c2.1,1.7,3.7,2.6,4.8,2.6c1.3,0,2-1.1,2-3.4v-6.5c0-1.3,0.1-2.4,0.3-3.3
		c0.2-0.9,0.8-1.3,1.9-1.3c1.3,0,4.9,0.6,10.6,1.7c5.7,1.1,13.6,2.4,23.6,3.9c2.1,0.4,3.5,0.7,4.4,1.1c0.8,0.4,1.3,1.1,1.3,2.2
		c0,1.5-1.1,2.3-3.3,2.5c-2.2,0.2-6,0.3-11.5,0.3c-1.3,0-2.9,0.4-4.7,1.1c-1.8,0.8-2.7,2.6-2.7,5.7c0,14.4,0.2,28.7,0.5,43
		c0.4,14.3,0.5,28.6,0.5,43c0,2.6-0.8,4.3-2.3,5c-1.5,0.7-2.7,1-3.7,1c-2.9,0-5.7-0.1-8.4-0.3c-2.8-0.2-5.6-0.3-8.4-0.3
		c-2.5,0-4.9,0.1-7.2,0.3c-2.4,0.2-4.8,0.3-7.2,0.3c-1.5,0-2.9-0.1-4.3-0.4c-1.3-0.3-2-0.9-2-1.8c0-1.1,1.1-2.1,3.3-2.8
		c2.2-0.8,3.8-1.3,5-1.7c3.4-0.9,6.1-1.7,7.9-2.1c1.9-0.5,3.4-0.9,4.4-1.3c1-0.4,1.7-0.8,2-1.4c0.3-0.6,0.4-1.2,0.4-2
		c0-10.2-0.1-20.3-0.3-30.3c-0.2-10-0.3-20.1-0.3-30.4c0-2.8-0.3-5.8-1-8.8c-0.7-3-2.1-5.7-4.4-8.1c-2.3-2.4-5.6-4.3-10.1-5.8
		c-4.4-1.5-10.6-2.3-18.5-2.3c-7,0-12.5,1.6-16.4,4.7c-4,3.1-5.9,7.6-5.9,13.5c0,12.7,0.1,25.3,0.3,37.9c0.2,12.6,0.3,25.2,0.3,37.9
		c0,2.1-0.2,3.5-0.7,4.2c-0.5,0.8-1.7,1.1-3.6,1.1c-2.1,0-4.2-0.1-6.3-0.3c-2.1-0.2-4.2-0.3-6.3-0.3c-2.1,0-4.1,0.1-6.1,0.3
		S666.1,51.5,664,51.5L664,51.5z M983.2,49.3c6.1,0,11.1-1.7,15-5c4-3.3,6-7.4,6-12.3c0-2.6-0.3-4.8-1-6.5c-0.7-1.7-2-3.1-4.1-4.2
		c-2.1-1.1-5-1.9-8.8-2.4c-3.8-0.5-8.8-0.7-15-0.7c-6.1,0-10.7,0.1-14,0.1c-3.3,0.1-5.8,0.2-7.4,0.4c-1.6,0.2-2.6,0.4-2.8,0.7
		c-0.3,0.3-0.4,0.7-0.4,1.3c0,2.3,0.8,5,2.3,8.2c1.5,3.2,3.6,6.3,6.4,9.4c2.7,3,6.1,5.6,10.2,7.8C973.6,48.2,978.1,49.3,983.2,49.3
		L983.2,49.3z M837.9-78.5c-5.7,0-10.2-3.3-10.2-8.6c0-5.5,3.1-7.1,9.7-9.1c5.2-1.5,7-2.7,7-5.1c0-3-2.1-4.5-6.4-4.5
		c-2.9,0-6,1.4-8,3.7l-3.3-3.2c2.6-3,6.5-5,11-5c7.9,0,11.4,3.8,11.4,9.3c0,5.5-3.8,7.5-9.9,9.3c-5.3,1.6-6.7,2.6-6.7,4.8
		c0,2.1,1.5,3.8,5.2,3.8c3,0,5.2-1,7.2-3l3.3,3.3C845.2-80.1,842.1-78.5,837.9-78.5L837.9-78.5z M479.1-79v-17.9
		c0-8.5,4-13.4,11.6-13.4c7.7,0,11.9,4.7,11.9,13.4v18H498v-18.1c0-5.6-2.3-8.6-7.1-8.6c-4.6,0-7.1,3.1-7.1,9V-79L479.1-79L479.1-79
		z M603.8-79v-30.9h4.6V-79H603.8z M887-79v-30.9h4.6V-79H887z M986.2-79l11.1-18.7v-12.2h4.6v12.2l11.1,18.7h-5.3l-4.9-8.6
		c-1.1-2-2.6-4.9-3.2-6.1c-0.5,1.1-2.1,4.2-3.2,6.1l-4.8,8.5L986.2-79L986.2-79z M541.3-79v-30.9h4.5v16c0,1.7,0,6,0,7.1
		c0.5-0.8,1.5-2.6,2.3-3.8l12.3-19.4h4.4V-79h-4.5v-15.9c0-1.7,0-6.1,0-7.3c-0.4,0.8-1.8,3.1-2.6,4.4L546-79L541.3-79L541.3-79z
		 M645.7-79l10.7-30.9h4.9L671.9-79h-4.9l-6.4-19.6c-0.6-1.8-1.5-4.6-1.7-5.7c-0.3,1.1-1.1,3.8-1.7,5.6L650.7-79L645.7-79L645.7-79z
		 M708.8-79v-30.9h20.6v4.5h-15.9v9.7h8.9v4.5h-8.9v7.6h15.3v4.5L708.8-79L708.8-79z M766.8-79v-30.9h4.5v12.2h7l6.1-12.2h5.3
		l-6.3,12.6c4.2,1.1,6.8,4.1,6.8,9c0,6.4-4.5,9.2-9.9,9.2H766.8z M928.8-79v-4.5h9v-26.3h4.6v26.3h9v4.5H928.8L928.8-79z
		 M771.4-83.4h9c3.1,0,5.2-1.8,5.2-5c0-3.4-2.2-4.9-5.2-4.9h-9V-83.4z"/>
</g>
</svg>
