<?xml version="1.0" encoding="utf-8"?>
<!-- Generator: Adobe Illustrator 27.0.0, SVG Export Plug-In . SVG Version: 6.00 Build 0)  -->
<svg version="1.1" id="Layer_1" xmlns="http://www.w3.org/2000/svg" xmlns:xlink="http://www.w3.org/1999/xlink" x="0px" y="0px"
	 viewBox="0 0 300 300" style="enable-background:new 0 0 300 300;" xml:space="preserve">
<style type="text/css">
	.st0{fill:#FFC107;}
	.st1{fill:#FF3D00;}
	.st2{fill:#4CAF50;}
	.st3{fill:#1976D2;}
</style>
<g>
	<path class="st0" d="M297,120.8h-12V120H150v60h84.8c-12,35.2-45.8,60-84.8,60c-49.5,0-90-40.5-90-90s40.5-90,90-90
		c23.2,0,43.5,9,60,22.5l42.8-42.8C225,15.7,189.8,0,150,0C67.5,0,0,67.5,0,150s67.5,150,150,150s150-67.5,150-150
		C300,140.2,299.2,130.5,297,120.8z"/>
	<path class="st1" d="M17.2,80.2l49.5,36C80.2,83.2,112.5,60,150,60c23.2,0,43.5,9,60,22.5l42.8-42.8C225,15.7,189.8,0,150,0
		C92.2,0,42.8,32.2,17.2,80.2z"/>
	<path class="st2" d="M150,300c39,0,74.2-15,100.5-39L204,222c-15,11.2-33.8,18-54,18c-39,0-72-24.8-84.8-59.2l-48.8,37.5
		C41.2,267,91.5,300,150,300z"/>
	<path class="st3" d="M297,120h-12H150v60h84.8c-6,16.5-16.5,31.5-30.8,42l0,0l46.5,39c-3,3,49.5-36,49.5-111
		C300,140.2,299.2,129.8,297,120z"/>
</g>
</svg>
