<?xml version="1.0" encoding="utf-8"?>
<!-- Generator: Adobe Illustrator 27.0.0, SVG Export Plug-In . SVG Version: 6.00 Build 0)  -->
<svg version="1.1" id="Layer_1" xmlns="http://www.w3.org/2000/svg" xmlns:xlink="http://www.w3.org/1999/xlink" x="0px" y="0px"
	 viewBox="0 0 1429.7 300" style="enable-background:new 0 0 1429.7 300;" xml:space="preserve">
<style type="text/css">
	.st0{fill:#8C1515;}
</style>
<g>
	<path class="st0" d="M377.7,298.6c-51,0-55.1-38.8-55.1-50.3c0-13.7,3.1-38.8,36.1-51c33-12.3,40.3-13.7,63.9-20.9v-5.7
		c0-11.5,0-13.7-2.6-20.9c-4-13-16.9-21.9-34.7-21.9c-16.9,0-31.5,9.5-38.2,23.6l-9.5-5.7c5.7-20.9,27.5-41.9,64.5-41.9
		c25.7,0,43.6,7.4,54.1,23.6c7.9,13,8.8,30.7,8.8,48.6c0,16.1-0.9,34.1-0.9,48.6c0,9.5-0.9,18.8-0.9,24c0,13,2.6,23.6,13,23.6
		c4.8,0,5.7-1.7,9.5-4l5.7,7.4c-9.5,13-20.9,23.6-39.9,23.6c-14.6,0-25-7.4-29.3-19.2C416.5,288.1,401,298.6,377.7,298.6z
		 M422.7,199.6c-25,7.4-34.1,11.5-41.3,15.2c-11.5,5.7-16.1,16.1-16.1,29.8c0,10.5,4,27.5,28.4,27.5c7.9,0,19.2-1.7,29.8-8.8v-63.9
		h-0.8V199.6z M1.7,288.5c0-18.8,0-34.7-1.7-54.1h11.5c0,12.1,3.1,20.9,8.8,26.7c7.9,8.8,26.7,14.6,43.6,14.6
		c35.4,0,52.4-13.5,52.4-42.8c0-25-15.2-35.5-36.1-50.3l-3.1-2.6l-22.8-15.4C22.8,143.6,6.7,127.5,6.7,94.3
		c0-16.1,6.4-69.5,84.9-69.5c20.2,0,45.9,2.6,61.4,4.7c0,2.6-0.9,14.6-0.9,25c0,12.1,0,15.2,0.9,29.8h-9.5c0-13-4-20.9-9.5-26.7
		c-7.4-7.4-24-11.5-41.9-11.5c-41.9,0-46.7,20.9-46.7,37.2c0,21.9,11.5,29.8,36.1,45.9L110,148c24,16.1,46.7,31.5,46.7,72
		c0,67.9-63.9,75.1-90.6,75.1C41.4,298.6,20.9,295,1.7,288.5z M509.1,115.7c9.5,0.9,24,0,38.2-2.6c12.1-2.6,16.1-4,25-7.9l4,2.6
		v14.6c9.5-7.4,28.4-17.8,55.1-17.8c34.1,0,56,16.1,62.2,44.5c1.7,7.4,2.6,24,2.6,34.1v55.1c0,30.7,1.7,39.9,7.4,45.3
		c3.1,2.6,9.5,5.7,18.8,5.7v8.8c-12.1-0.9-34.1-1.7-46.7-1.7c-16.9,0-36.1,0.9-46.7,1.7v-8.8c9.5-0.9,15.2-4,18.8-6.4
		c5.7-5.7,6.4-16.1,7.4-39.9c0-7.4,0.9-21.9,0.9-32.4c0-13.7,0-28.4-1.7-42.8c-2.6-24-15.2-35.5-39.9-35.5c-16.9,0-27.5,4-35.5,7.9
		v98.7c0,30.7,1.7,39.9,7.4,45.3c3.1,2.6,10.5,5.7,17.8,5.7v8.8c-15.2-0.9-34.1-1.7-45.9-1.7c-25,0-33,0.9-47.6,1.7v-9.3
		c7.9,0,16.1-3.1,20.3-7.9c5.7-6.4,6.4-22.6,6.4-54.1v-56c0-23.6-0.9-33-4-38.2c-2.6-4-8.8-7.4-21.9-7.4v-10.5h-1.7v0.5L509.1,115.7
		L509.1,115.7z M742.9,288.1c7.9,0,16.1-2.6,20.3-7.9c5.7-6.4,6.4-22.6,6.4-54.1v-94h-24v-10.5c10.5-4,19.2-8.8,24-13
		c0-16.9,0.9-38.2,3.1-50.3C780.1,19.2,805.1,0,847.7,0c18.8,0,36.1,6.4,47.6,15.2l0.9,4L877.5,45h-4.8c-6.4-15.2-16.1-24-33-24
		c-5.7,0-13.7,1.7-18.8,6.4c-7.9,7.9-9.5,20.3-9.5,44.5V108h41.9v23.6h-41.9v104.4c0,25,0.9,37.2,4,41.9c4.8,7.9,21.9,8.8,29.8,8.8
		v9.5c-13.7-0.9-35.5-1.7-51-1.7c-23.6,0-38.8,0.9-51,1.7L742.9,288.1L742.9,288.1z M959.4,300c-57.2,0-91.2-35.5-91.2-95.2
		c0-46.7,25-101,95.2-101c57.2,0,91.2,35.5,91.2,95.2C1054.8,245.7,1029.5,300,959.4,300z M961.9,125.3c-11.5,0-20.3,3.1-26.7,8.8
		c-15.2,13-22.6,35.5-22.6,68.6c0,13,2.6,76,48.6,76c11.5,0,20.3-3.1,26.7-8.8c15.2-13,22.6-35.5,22.6-68.6
		C1010.1,188.5,1008.1,125.3,961.9,125.3z M1074,114.8c13,0.9,26.7-0.9,41.3-3.1c11.5-1.7,18.8-4,22.6-6.4l3.1,1.7v16.1
		c8.8-8.8,23.6-17.8,43.6-17.8c14.6,0,24,4,33,11.5v5.7l-16.1,29.3h-7.9c-4.8-8.8-14.6-16.9-31.5-16.9c-7.9,0-14.6,1.7-20.3,5.7V237
		c0,25,0.9,36.1,4,41.3c4.8,7.9,20.9,8.8,29.8,7.9v10.5c-13-0.9-35.5-1.7-51-1.7c-17.8,0-36.1,0-51,1.7v-9.5
		c10.5-0.9,16.1-3.1,20.3-7.9c5.7-6.4,6.4-21.9,6.4-54.1v-52.4c0-23.6,0-33-4-38.2c-3.1-4-9.5-6.4-21.9-6.4v-12.1L1074,114.8
		L1074,114.8z M1338.5,11.5c11.5,0,25.7-2.6,44.5-5.7c10.5-1.7,16.9-4,20.3-4.8l3.1,1.7c-1.7,15.2-1.7,50.3-1.7,75.1v153.4
		c0,22.6,0,37.2,3.1,41.9c3.1,4,9.5,7.4,21.9,7.4v9.5c-12.1,0-25.7,1.7-40.3,4c-9.5,1.7-16.9,3.1-20.9,4.8l-4.8-1.7v-16.1
		c-9.5,7.4-27.5,17.8-52.4,17.8c-51.7,0-84.8-35.5-84.8-91.2c0-18.8,3.1-35.5,9.5-51c16.1-34.1,48.6-53.4,89.7-53.4
		c15.2,0,28.4,1.7,36.1,3.1V66.5c0-23.6,0-35.5-4-41.3c-2.6-4-6.4-5.7-20.3-6.4v-7.8h0.9v0.3H1338.5z M1331.9,272.4
		c13,0,21.9-1.7,30.7-7.4V139.1c-3.1-3.1-14.6-13-37.2-13c-36.1,0-54.1,25-54.1,76.9C1270.6,224.6,1277.1,272.4,1331.9,272.4z
		 M304,278c-5.7,7.4-20.3,21.9-51,21.9c-29.3,0-45.3-10.5-52.4-34.1c-3.1-8.8-3.1-27.5-3.1-38.2c0-29.8,0-54.1,0.9-82.4v-13h-25.3
		v-7.4c9.5-4,16.9-7.9,23.6-13c14.6-11.5,24-25,34.7-45.3h7.9v41.9h63.9v23.6h-63.9v98.7c0,29.8,5.7,45.9,33,45.9
		c13,0,21.9-4,26.7-7.4L304,278z"/>
</g>
</svg>
