<?xml version="1.0" encoding="utf-8"?>
<!-- Generator: Adobe Illustrator 27.0.0, SVG Export Plug-In . SVG Version: 6.00 Build 0)  -->
<svg version="1.1" id="Layer_1" xmlns="http://www.w3.org/2000/svg" xmlns:xlink="http://www.w3.org/1999/xlink" x="0px" y="0px"
	 viewBox="0 0 1551.4 300" style="enable-background:new 0 0 1551.4 300;" xml:space="preserve">
<style type="text/css">
	.st0{fill:#FFCB05;}
	.st1{fill:#00274C;}
</style>
<g>
	<path class="st0" d="M208.2,247.6l-85-117.3v85.4h33.9V300H0v-84.4h31.9V84.4H0V0h123.5l85.2,118.5L293.9,0h123.5v84.4h-31.9v131.3
		h31.9V300H260.2v-84.4h33.9v-85.4L208.2,247.6z"/>
	<path class="st1" d="M1048.9,4c-16.5,0-30.8,10.1-30.8,28.1c0,18.7,15,24.9,22.9,27.7c3.9,1.5,7.9,2.7,11.8,4.2
		c4.7,1.8,15.1,6.2,15.1,17.1c0,10.4-9.1,14.8-19.2,14.8c-14.5,0-23.4-8.4-28.7-24l-4.9,0.5l1.3,19l8.1,5.9c3.9,2.5,11.9,7.6,25,7.6
		c20.3,0,33.9-13.8,33.9-30.4c0-11.6-6.2-20-13.9-24.5c-3.9-2.4-8.4-3.9-13.9-5.5c-10.8-3.5-22.2-7.4-22.2-18.8
		c0-7.6,6.1-12.6,16.3-12.6c7.6,0,14.1,2.9,18.8,8.7c3.9,5,5,7.9,6.7,14.3l4.7-1l-3.2-28.6l-5.9,4.2C1062.9,5.5,1055.3,4.2,1048.9,4
		L1048.9,4z M1424.2,4.7c-30.9-0.2-48.6,23.5-48.6,49.9c0,30.8,21.8,50.9,49.9,50.9c25.5,0,48.2-17.5,48.2-50.8
		C1473.6,25.7,1453.3,4.9,1424.2,4.7L1424.2,4.7z M1235.3,6.1v5.4c9.2,0.5,9.4,0.8,16.3,11.3l25.5,39.5V79
		c-0.2,10.6-0.2,12.9-2.4,15.1c-1.8,1.8-4.7,2.2-12.3,3v5.2h47.4v-5.2c-14.3-0.8-14.5-2.2-14.5-19.7v-20l15-25
		c11.1-18,13.9-20.8,23.5-21.2V6.1h-37.6v5.4c6.7,0.3,10.6,0.5,10.6,5.2c0,2.2-1.3,5-3.9,9.7l-13.6,24l-14.8-24
		c-2.5-4-4.2-7.1-4.2-9.7c0-4.7,4.5-4.9,14.6-5.2V6.1H1235.3L1235.3,6.1z M924.7,6.1v5.2c7.9,0.7,10.4,1.7,11.3,6.9
		c0.3,3.2,0.5,7.2,0.5,18.8v34.8c0,4,0,8.4-0.2,12.4c-0.2,10.4-1.2,11.9-11.6,12.8v5.4h40.2V97c-11.6-0.2-11.6-3.2-11.8-25.4V59.2
		c9.1,0.2,11.1-0.7,16.8,11.4l5.4,11.3c7.6,16.1,15.1,22.5,33.3,22.5c2.2,0,4.2-0.2,6.2-0.3v-3.2c-7.7-1-11.1-3.7-17.1-15l-17-29.6
		c13.3-4,19-16.1,19-25.4c0-13.3-7.6-24.7-31.3-24.7L924.7,6.1L924.7,6.1z M840,6.1v5.2c6.9,0.7,9.9,1.2,10.9,5.5
		c0.7,3,0.8,13.6,0.8,17.5v33.8c0,2.5-0.2,14.1-0.3,16.5C851.1,95.1,849.9,96,840,97v5.4h73.3c0-6.9,1.2-18.5,2-24.9h-4.7
		c-3.4,17.1-12.9,16.3-26.9,16.3c-12.8,0-15.5-3.4-15.5-9.7V57.1h10.4c11.9,0,15.3,1,15.3,11.8h4.7V37.1h-4.5
		c-1,8.6-2.7,11.4-15.1,11.4h-10.4V14.8h11.9c16.3,0,22.2,1.2,24.4,14.3h4.4l-0.5-22.9L840,6.1L840,6.1z M1139.7,6.1l-0.8,27.1h5
		c0.8-17.1,8.1-16.8,19-16.8h11.9v70.9c0,7.6-2.5,10.9-11.3,11.1v4h39.8v-4c-8.9-0.2-11.3-3.4-11.3-11.1V16.3h11.9
		c10.9,0,18.2-0.3,19,16.8h5l-0.8-27.1L1139.7,6.1L1139.7,6.1z M466.4,6.2v5.2c7.2,0.3,10.3,1.7,11.1,7.7c0.3,2.5,0.3,7.1,0.3,17.5
		v21.8c0,15.6,0.2,30.1,14.5,39.7c9.1,6.1,19.8,6.7,25.2,6.7c6.7,0,31.9-1.3,38.5-27.2c1.7-6.9,2-14.1,2.4-21.5
		c0.2-4,1.2-30.8,1.3-33.1c0.5-9.6,2.5-11.6,11.4-11.4V6.2h-36.6v5.2c8.6,0.7,13.1,1,13.6,9.7c0.2,3.2,0.2,14.6,0.2,18.2
		c0,11.1-0.2,28.1-2.9,37c-3.2,11.3-10.8,18.5-24.5,18.5c-4.2,0-12.6-0.8-17.5-8.1c-6.2-9.1-6.4-19.2-6.4-30.8V33.1
		c0.2-20.5,0.2-20.8,12.9-21.8v-5H466.4L466.4,6.2z M578.3,6.2v5.2c6.4,0.5,8.6,1.5,13.9,6.4c-0.2,9.9-0.5,67.1-1.8,73.4
		c-1,5.4-4,5.5-11.9,6.1v5.2h39.3v-5.2c-14.8-1.5-15.8-2-15.8-17.6V29.7l38,46.9c4.4,5.4,8.7,10.8,13.1,16.3l8.6,10.8h5.7l1.3-74.3
		c0.2-15.6,1-17.8,11.6-18V6.2h-38v5.2c15.3,0.5,15.6,1.3,15.8,16.6v43l-26.9-33.3c-14.1-17.6-16-20.2-24-31.6L578.3,6.2L578.3,6.2z
		 M690.6,6.2v5.2c11.3,1.7,11.3,2.2,11.4,22.2v51.3c-0.2,10.1-2,11.1-11.4,12.4v5.2h40v-5.2c-7.6-0.5-10.3-1.8-10.9-7.7
		c-0.3-2.9-0.3-13.6-0.3-17v-39c0-20.5,0-21.2,11.3-22.2V6.2H690.6L690.6,6.2z M739.7,6.2v5.2c9.7,1.5,10.4,3.7,17,22l26.4,71.1h5.2
		l29.2-69.9c7.9-19,9.1-21.7,18.3-23V6.2h-33.6v5.2c6.1,0.2,12.8,0.3,12.8,7.4c0,2.5-1.7,6.9-2.9,10.3l-19.7,50.6l-16.8-48.9
		c-2.5-8.1-3.4-10.4-3.4-13.1c0-5.5,5-5.9,12.8-6.2V6.2H739.7L739.7,6.2z M1089.7,6.2v5.2c11.3,1.7,11.3,2.2,11.4,22.2v51.3
		c-0.2,10.1-2,11.1-11.4,12.4v5.2h40v-5.2c-7.6-0.5-10.3-1.8-10.9-7.7c-0.3-2.9-0.3-13.6-0.3-17v-39c0-20.5,0-21.2,11.3-22.2V6.2
		H1089.7L1089.7,6.2z M1478.3,6.9v5.2c6.9,0.7,9.9,1.2,10.9,5.5c0.7,3,0.8,13.6,0.8,17.5v33.8c0,2.5-0.2,14.1-0.3,16.5
		c-0.3,10.4-1.5,11.4-11.4,12.4v5.4h39.8v-5.4c-9.9-1-11.1-1.8-11.4-12.4V58h10.6c10.8,0,16.5,1,17.1,11.8h4.7V38h-4.7
		c-0.5,10.4-3.4,11.4-15.1,11.4h-12.8V16.1c3.4-0.5,5.4-0.5,11.4-0.5c18.8,0,24.9-0.2,27.4,15h4.7l-1.5-23.5L1478.3,6.9L1478.3,6.9z
		 M1424.4,13.6c8.1-0.2,14.1,4.7,17.3,7.9c7.1,7.6,10.6,18.2,10.9,30.6c0.3,12.6-1,22.2-7.9,32.6c-5.9,9.1-13.6,11.8-19,11.9
		c-5.4,0-13.1-2.5-19.3-11.3c-7.1-10.3-8.7-19.8-8.7-32.3s3.2-23.2,9.9-30.9C1410.4,18.7,1416.3,13.6,1424.4,13.6L1424.4,13.6z
		 M959,14.6c17.6,0,23.4,9.6,22.7,20.8c-0.3,7.7-8.7,16.3-19.7,16.3c-2.7,0-6.4-0.5-9.1-1V15.1C955.1,14.8,956.6,14.6,959,14.6
		L959,14.6z M1339,142.5c-7.2,5.4-11.9,7.9-28.9,13.4l2.2,3.5l-39.3,108.1c-5.5,15.3-10.6,18.3-25.7,19v7.9h60v-7.9
		c-8.9-0.3-19.8-1-19.8-11.4c0-3,0.8-6.1,1.8-9.1l4.5-12.6h51.3l4.4,14.8c0.8,2.7,1.7,5.7,1.7,8.7c0,8.1-7.6,8.9-17.5,9.4v7.9h123.2
		v-7.9c-22.4-2.4-23.9-3-23.9-26.6v-75.5l57.5,70.9c6.6,8.1,13.1,16.3,19.8,24.5l12.9,16.3h8.7l2-112.4c0.2-23.7,1.7-27.1,17.5-27.2
		v-7.9h-57.3v7.9c23,0.8,23.7,2,23.9,25.2v65.2l-40.7-50.3c-21.5-26.6-24.2-30.4-36.3-47.9h-43.7v7.9c9.7,0.8,12.9,2.2,21,9.7
		c-0.2,15.1-0.8,101.5-2.9,111.1c-1.5,7.4-5.7,8.2-15.3,8.9c-14.3-1.8-17-6.4-22.5-23.4l-32.1-99
		C1342.2,153.8,1341.8,152.4,1339,142.5L1339,142.5z M1181.2,145c-39.5,0-71.1,30.3-71.1,77c0,38.2,23.9,76.1,74.1,76.1
		c28.6,0,44.7-10.1,56-17.1v-10.9c0.3-27.6,0.3-31.3,13.6-32.1v-7.9H1195v7.9c16.1,1.7,18.7,2,19.3,20.7c0.2,6.4-0.3,9.9-3,13.8
		c-0.7,0.8-9.1,12.1-25.2,12.1c-28.4,0-44.9-28.6-44.9-62c0-41.8,21.2-63.4,46.6-63.4c14.6,0,23.9,6.1,28.7,10.8
		c10.9,10.9,15.5,21,18.3,29.6l5.9-1l-1-45.5l-7.6,8.7C1220.3,154.3,1206.1,145,1181.2,145L1181.2,145z M807.6,145.2
		c-49.2,0-73.3,38.8-73.3,78.2c0,42.5,28.4,74.8,72.3,74.8c40.2,0,55.6-25.7,62-36.3l-8.7-6.6c-7.6,10.9-17.1,25.2-42.7,25.2
		c-33.8,0-50.8-30.1-50.8-62c0-37.8,20.8-59.2,47.1-59.2c15.3,0,26.1,9.4,30.6,14.3c9.4,10.3,13.1,17.1,15.6,25.5l6.4-1.2l-0.5-44.2
		l-9.9,9.1C847.1,156.3,833.4,145.2,807.6,145.2L807.6,145.2z M472.1,148.7v7.9c12.9,0.2,15.8,1.2,15.8,15.6c0,5.2,0,12.1-0.2,17
		l-2,61c-0.2,8.1-0.8,20.2-1.2,24.2c-0.8,9.9-5.4,11.6-17.1,12.1v7.9H518v-7.9c-15.5-1.2-17.1-3.9-17.1-18.2l1-85.5l46.7,113.4h12.8
		l50.9-111.9v73.3c-0.2,27.1-0.2,27.9-18.5,29.1v7.9h63.7v-7.9c-11.6-1-15.6-3-16.5-13.8c-0.7-7.4-0.8-19.8-0.8-29.7v-60
		c-0.2-22.7,0-24.5,17.3-25.5v-8.7h-44.4l-49.9,110.6l-45.4-110.6L472.1,148.7L472.1,148.7z M671.8,148.7v7.9
		c17.1,2.5,17.1,3.4,17.3,33.6v77.5c-0.2,15.3-3,17-17.3,18.8v7.9h60.5v-7.9c-11.3-0.8-15.5-2.9-16.5-11.8
		c-0.3-4.4-0.7-20.7-0.7-25.7v-58.8c0-31.1,0-31.9,17.1-33.6v-7.9L671.8,148.7L671.8,148.7z M879.3,148.7v7.9
		c11.3,1,15.5,2.2,16.3,10.9c0.7,4.5,0.7,13.9,0.7,23.5v61c0,5.2,0,10.3-0.2,15.5c0,13.9-0.2,17.5-16.6,19v7.9h62.4v-7.9
		c-18.8-2-19.2-2-19.3-32.4v-26.7c12.6-0.7,22.4-1,35-1c11.9,0,21.5,0.7,33.1,1v26.7c0,10.6,0,16.1-0.3,20.2
		c-1.2,10.1-5.2,10.6-19.8,12.1v7.9h63.2v-7.9c-10.8-1-15.1-2.5-16.1-10.1c-0.7-4.4-0.8-22.7-0.8-28.4v-61.3c0-27.6,0-27.9,17-29.9
		v-7.9h-63.2v7.9c19.8,1.8,20,2.9,20.2,29.4v24.4c-12.4,0.7-22.2,1-34.6,1c-12.1,0-21-0.3-33.4-1v-20.2c0-8.7,0.2-19.3,1.2-24.2
		c1.5-8.1,6.1-8.4,18.2-9.7v-7.9L879.3,148.7L879.3,148.7z M1045.4,148.7v7.9c17.1,2.5,17.1,3.4,17.3,33.6v77.5
		c-0.2,15.3-3,17-17.3,18.8v7.9h60.5v-7.9c-11.3-0.8-15.5-2.9-16.5-11.8c-0.5-4.4-0.7-20.7-0.7-25.7v-58.8c0-31.1,0-31.9,17.1-33.6
		v-7.9L1045.4,148.7z M1320.5,177.5l20.5,60.3h-41.8L1320.5,177.5L1320.5,177.5z"/>
</g>
</svg>
