<?xml version="1.0" encoding="utf-8"?>
<!-- Generator: Adobe Illustrator 27.0.0, SVG Export Plug-In . SVG Version: 6.00 Build 0)  -->
<svg version="1.1" id="Layer_1" xmlns="http://www.w3.org/2000/svg" xmlns:xlink="http://www.w3.org/1999/xlink" x="0px" y="0px"
	 viewBox="0 0 1460.1 300" style="enable-background:new 0 0 1460.1 300;" xml:space="preserve">
<style type="text/css">
	.st0{fill:#FFFFFF;}
	.st1{fill:#CF4037;}
	.st2{fill:#FADF3C;}
	.st3{fill:#FADF3C;stroke:#000000;stroke-width:5.188127e-02;stroke-miterlimit:2.613;}
</style>
<g>
	<path d="M259.9,0c-0.7,12-1.3,16.7-1.3,23.4V159c0,62.1-14,83.5-81.5,116.9c-2.7,1.3-37.4,18.7-40.8,20.7L133,298l-3.3,2l-4-2
		l-3.3-1.3c-14-8-28.1-14-39.4-20C21.4,246.6,1.3,225.2,1.3,159V23.4C1.3,12,0.7,8,0,0"/>
	<path d="M60.1,1.3"/>
	<path class="st0" d="M129.6,294l26.1-13.3h0.7V157l0.7,0.7H254v-53.4h-97.6v-99L155.7,6h-52.1l-1.3-0.7l0.7,1.3v97.6H6v53.4h96.2
		l0.7-0.7V280l-0.7,0.7h0.7L129.6,294L129.6,294z"/>
	<path class="st1" d="M7.3,6L6,5.3v98.9h96.9V5.3L102.2,6H7.3z M253.2,6h-95.6l-1.3-0.7v98.9h97.6 M102.2,157.7H6.7L6,157v6.7
		c0,53.5,18,79.5,72.8,105.6l17.4,8.7l6,2.7l0.7,0.7V157L102.2,157.7L102.2,157.7z M157,157.7l-0.7-0.7v123.6l0.7-0.7l5.3-2
		c74.2-35.4,91.5-56.1,91.5-113.6V157l-0.7,0.7H157z"/>
	<path d="M22,108.9c0,0.7,0,0.7,0.7,0.7c0,0.7,0,0.7,0.7,0.7c0,0,0,0.7,0.7,0.7c0,0.7,0,0.7,0.7,0.7l-0.7,0.7l-0.7,0.7l-0.7,0.7
		l-0.7,0.7v0.7c0,6.7,2,11.4,6,14l0.7,0.7l-0.7,0.7l-1.3-0.7h-3.3l-0.7,6h-1.3l-0.7-6h-4l-0.7,0.7c-0.7,0-0.7-0.7-0.7-0.7V129
		l1.3-0.7c1.3-0.7,2-2,3.3-4c0-1.3,0.7-2,0.7-2.7c0-2,0-3.3,0.7-3.3v-4.7l-0.7-0.7l-1.3-0.7v-0.7c0,0,0.7,0,0.7-0.7
		C21.4,110.3,21.4,110.3,22,108.9L22,108.9z M53.4,108.9c0.7,1.3,0.7,1.3,2,2c0,0.7,0,0.7,0.7,0.7l-0.7,0.7l-0.7,0.7l-0.7,0.7
		l-0.7,0.7v0.7l0.7,3.3c0,4,2.7,9.4,5.3,10.7l0.7,0.7l-0.7,0.7l-1.3-0.7h-3.3l-1.3,6h-0.7l-0.7-6h-4l-0.7,0.7
		c-0.7,0-0.7-0.7-0.7-0.7V129l1.3-0.7c1.3-0.7,1.3-1.3,2.7-4c0.7-1.3,1.3-2,1.3-2.7c0-2,0-3.3,0.7-3.3v-4v-0.7
		c-0.7,0-0.7-0.7-1.3-0.7l-0.7-0.7v-0.7l0.7-0.7l0.7-0.7l0.7-0.7C52.8,109.6,52.8,109.6,53.4,108.9L53.4,108.9z M37.4,127.6l0.7,0.7
		l0.7,0.7l0.7,0.7l0.7,0.7l-1.3,1.3l-0.7,0.7v0.7c0,7.4,1.3,11.4,5.3,14.7h0.7l-0.7,0.7h-2l-1.3-0.7h-1.3l-0.7,6h-1.3l-0.7-6h-0.7
		l-1.3,0.7h-3.3l0.7-0.7l1.3-0.7c2.7-2,4-8,4-14v-0.7l-0.7-0.7l-0.7-1.3h-0.7L37.4,127.6L37.4,127.6z M68.8,127.6
		c1.3,0.7,1.3,1.3,2.7,2.7l-0.7,1.3l-0.7,0.7h-0.7v0.7c0,4.7,1.3,10,2.7,12l2,2l0.7,0.7h0.7l-0.7,0.7h-2l-1.3-0.7h-1.3l-0.7,6h-0.7
		l-1.3-6h-0.7l-1.3,0.7h-3.3l0.7-0.7l1.3-0.7c2.7-2.7,4.7-8,4.7-14v-0.7h-0.7l-0.7-0.7l-0.7-1.3h-0.7c0.7,0,0.7-0.7,1.3-0.7
		c0,0,0-0.7,0.7-0.7l0.7-0.7L68.8,127.6L68.8,127.6L68.8,127.6z M84.8,108.9c0.7,1.3,0.7,1.3,2,2c0,0.7,0,0.7,0.7,0.7l-0.7,0.7
		l-0.7,0.7l-0.7,0.7v4.7c0,4,2.7,9.4,5.3,10.7l0.7,0.7c0,0,0,0.7-0.7,0.7l-0.7-0.7h-2h-2l-0.7,6H84l-0.7-6h-4l-0.7,0.7
		c-0.7,0-0.7-0.7-0.7-0.7l0.7-0.7l0.7-0.7c1.3-0.7,2-1.3,3.3-4c0.7-1.3,0.7-2,0.7-2.7c0-2,0-3.3,0.7-3.3v-4.7l-0.7-0.7l-0.7-0.7
		c0,0-0.7,0-0.7-0.7c0,0,0.7,0,0.7-0.7c0.7,0,0.7-0.7,0.7-0.7s0.7,0,0.7-0.7C84.2,109.6,84.8,109.6,84.8,108.9L84.8,108.9z
		 M174.4,108.9l0.7,0.7l0.7,0.7c0,0.7,0.7,0.7,0.7,0.7c0,0.7,0,0.7,0.7,0.7l-0.7,0.7l-0.7,0.7l-0.7,0.7v0.7c0,6.7,2,12.7,5.3,14.7
		c0.7,0,0.7,0.7,0.7,0.7h-1.3c-1.3,0-2.7,0-4-0.7l-0.7,6h-1.3l-0.7-6c-1.3,0.7-3.3,0.7-4,0.7h-1.3c0,0,0-0.7,0.7-0.7
		c3.3-2,5.3-8,5.3-14.7v-0.7l-0.7-0.7l-0.7-0.7l-0.7-0.7c0,0,0.7,0,0.7-0.7c0,0,0.7,0,0.7-0.7l0.7-0.7L174.4,108.9z M205.8,108.9
		l0.7,0.7l0.7,0.7l0.7,0.7l0.7,0.7v0.7l-1.3,0.7l-0.7,0.7v0.7c0,6.7,2,12.7,5.3,14.7c0.7,0,0.7,0.7,0.7,0.7h-1.3c-0.7,0-2.7,0-4-0.7
		l-0.7,6h-1.3l-0.7-6c-1.3,0.7-2.7,0.7-4,0.7h-1.3c0-0.7,0.7-0.7,0.7-0.7c0.7-0.7,2-1.3,2.7-2.7c1.3-2,2-4,2-5.3s0.7-2.7,0.7-2.7
		V115l0.7-1.3h-0.7l-2-2l0.7-0.7l0.7-0.7l0.7-0.7L205.8,108.9L205.8,108.9z M190.4,127.6v0.7c0.7,0,0.7,0,0.7,0.7
		c0.7,0,0.7,0,0.7,0.7c0.7,0,0.7,0,1.3,0.7h-0.7l-0.7,0.7l-0.7,0.7l-0.7,0.7v1.3l0.7,2.7c0,4.7,2.7,9.4,5.3,10.7
		c0,0.7,0.7,0.7,0.7,1.3h-2c-0.7,0-2.7-0.7-3.3-0.7l-1.3,6h-0.7l-1.3-6c-0.7,0.7-2.7,0.7-4,0.7c-0.7,0-0.7,0-0.7-0.7l0.7-0.7
		c0.7,0,2-1.3,2.7-2.7c1.3-2,2-4,2-4.7c0-2,0-3.3,0.7-3.3v-4l-0.7-0.7l-0.7-0.7l-0.7-0.7c0-0.7,0.7-0.7,0.7-0.7
		C189.1,128.3,189.7,128.3,190.4,127.6L190.4,127.6z M221.8,127.6c0.7,0,0.7,0,0.7,0.7c0.7,0,0.7,0,0.7,0.7c0,0,0.7,0,0.7,0.7
		c0,0,0.7,0,0.7,0.7c-0.7,0.7-0.7,0.7-1.3,0.7c0,0.7-0.7,0.7-0.7,0.7v4.7c0.7,4.7,2.7,9.4,5.3,10.7c0.7,0.7,0.7,0.7,0.7,1.3h-1.3
		c-0.7,0-2.7-0.7-4-0.7l-0.7,6h-1.3l-0.7-6c-1.3,0.7-2.7,0.7-4,0.7c-0.7,0-1.3,0-1.3-0.7c0,0,0.7,0,0.7-0.7c0.7,0,2-1.3,2.7-2.7
		c1.3-2,2-4,2.7-4.7v-6l0.7-1.3l-0.7-0.7l-0.7-0.7l-0.7-0.7h-0.7l0.7-0.7L221.8,127.6L221.8,127.6z M237.9,108.9l0.7,0.7l0.7,0.7
		l0.7,0.7l0.7,0.7l-0.7,0.7l-0.7,0.7l-0.7,0.7v0.7c0,6.7,2,12.7,5.3,14.7c0.7,0,0.7,0.7,0.7,0.7h-1.3c-1.3,0-2.7,0-4-0.7l-0.7,6
		h-1.3l-0.7-6c-1.3,0.7-3.3,0.7-4,0.7h-1.3c0-0.7,0-0.7,0.7-0.7c0.7-0.7,2-1.3,2.7-2.7c1.3-2,2-4,2-5.3s0-2.7,0.7-2.7v-4.7l-0.7-0.7
		l-1.3-0.7v-0.7l0.7-0.7l0.7-0.7l0.7-0.7L237.9,108.9L237.9,108.9z M114.9,194.4c0.7,0.7,0.7,1.3,2,2c0,0.7,0.7,0.7,0.7,0.7
		l-0.7,0.7l-0.7,0.7l-0.7,0.7v4.7c0,2.7,1.3,6,2.7,8c0.7,1.3,2,2.7,2.7,2.7s0.7,0.7,0.7,0.7s0,0.7-1.3,0.7s-2.7-0.7-4-0.7l-0.7,5.3
		h-1.3l-0.7-5.3c-1.3,0-2.7,0.7-4,0.7h-0.7c-0.7,0-0.7-0.7-0.7-0.7s0-0.7,0.7-0.7c0.7-0.7,2-1.3,2.7-2.7c1.3-2.7,2-4,2-4.7
		c0-2,0.7-3.3,0.7-3.3v-4.7l-0.7-0.7l-0.7-0.7l-0.7-0.7c0.7,0,0.7,0,0.7-0.7c0.7,0,0.7-0.7,0.7-0.7s0.7,0,0.7-0.7
		C114.2,195.1,114.9,195.1,114.9,194.4L114.9,194.4z M144.3,194.4c0.7,0.7,1.3,1.3,2,2l0.7,0.7v0.7l-0.7,0.7l-0.7,0.7l-0.7,0.7v4
		c0.7,2.7,1.3,6,2.7,8c1.3,1.3,2,2.7,2.7,2.7s0.7,0.7,0.7,0.7s0,0.7-0.7,0.7c-1.3,0-3.3-0.7-4-0.7l-1.3,5.3h-0.7l-1.3-5.3
		c-0.7,0-2.7,0.7-3.3,0.7H139c-0.7,0-1.3-0.7-1.3-0.7s0.7-0.7,1.3-0.7c0.7-0.7,1.3-1.3,2-2.7c2-2.7,2.7-4,2.7-4.7v-3.3l0.7-3.3v-0.7
		l-0.7-0.7l-1.3-1.3l-0.7-0.7c0.7,0,0.7,0,0.7-0.7c0.7,0,0.7-0.7,1.3-0.7l0.7-0.7L144.3,194.4L144.3,194.4z M129.6,221.2v1.3h1.3
		l0.7,1.3l0.7,0.7h-0.7l-0.7,0.7c0,0,0,0.7-0.7,0.7c0,0,0,0.7-0.7,0.7l0.7,0.7v3.3c0,4.7,2.7,10,5.3,10.7l0.7,0.7v0.7h-3.3
		c0-0.7-0.7-0.7-1.3-0.7h-0.7l-0.7,6h-1.3l-0.7-6h-0.7l-2,0.7h-2c-0.7,0-0.7,0-0.7-0.7l0.7-0.7c0.7,0,2-1.3,2.7-2.7c1.3-2,2-4,2-4.7
		c0-2,0-3.3,0.7-3.3v-4.7l-0.7-0.7l-0.7-0.7h-0.7l0.7-0.7l0.7-1.3l0.7-0.7L129.6,221.2L129.6,221.2z M114.9,248.6l0.7,0.7l0.7,0.7
		l0.7,1.3l0.7,0.7H117l-0.7,0.7l-0.7,0.7v4.7c0,4.7,2.7,9.3,5.3,10.7l0.7,0.7l-0.7,0.7h-0.7c-0.7,0-2-0.7-4-0.7l-0.7,6h-1.3l-0.7-6
		c-2,0-3.3,0.7-4,0.7c-1.3,0-1.3,0-1.3-0.7l0.7-0.7c0.7,0,2-1.3,2.7-2.7c1.3-2,2-4,2-4.7c0-2,0-3.3,0.7-3.3v-4.7
		c-0.7,0-0.7-0.7-0.7-0.7l-0.7-0.7h-0.7l0.7-0.7l0.7-1.3l0.7-0.7L114.9,248.6L114.9,248.6z M144.3,248.6l0.7,0.7l0.7,0.7l0.7,1.3
		l0.7,0.7l-0.7,0.7c-0.7,0-0.7,0.7-0.7,0.7c-0.7,0-0.7,0.7-0.7,0.7v4c0.7,2.7,1.3,6,2.7,8c1.3,1.3,2,2.7,2.7,2.7l0.7,0.7
		c0,0.7,0,0.7-0.7,0.7c-1.3,0-2.7-0.7-4-0.7l-1.3,6h-0.7l-1.3-6c-2,0-2.7,0.7-3.3,0.7H139c-0.7,0-1.3,0-1.3-0.7c0,0,0.7,0,1.3-0.7
		c0.7,0,1.3-1.3,2-2.7c2-2,2.7-4,2.7-4.7v-3.3l0.7-3.3v-0.7l-0.7-0.7l-0.7-0.7l-0.7-0.7h-0.7l0.7-0.7l1.3-1.3l0.7-0.7V248.6
		L144.3,248.6L144.3,248.6z M129.6,167.7l0.7,0.7l0.7,0.7l0.7,0.7l0.7,0.7l-0.7,0.7l-0.7,0.7l-0.7,0.7h-0.7l0.7,1.3v2.7
		c0,4.7,2.7,10,5.3,11.4c0,0,0.7,0,0.7,0.7H135c-0.7,0-2,0-4-0.7l-0.7,6H129l-0.7-6c-2,0.7-3.3,0.7-4,0.7H123c0-0.7,0-0.7,0.7-0.7
		l2.7-2.7c1.3-2.7,2-4,2-5.4c0-1.3,0-3.3,0.7-3.3v-4l-0.7-0.7l-0.7-0.7l-0.7-0.7l0.7-0.7l0.7-0.7l0.7-0.7L129.6,167.7L129.6,167.7z
		 M114.9,16v0.7l0.7,0.7c0.7,0,0.7,0.7,1.3,0.7v1.3l-0.7,0.7l-0.7,0.7c0,0-0.7,0-0.7,0.7v0.7l0.7,3.3c0,2.7,1.3,6.7,2.7,8l1.3,2
		l0.7,0.7l1.3,0.7l-1.3,0.7l-0.7-0.7h-3.3l-1.3,5.3l-0.7,0.7l-0.7-6h-4l-0.7,0.7c-0.7,0-0.7-0.7-0.7-0.7v-0.7c0,0,0.7,0,1.3-0.7
		c1.3-0.7,1.3-1.3,2.7-4c0.7-1.3,1.3-2,1.3-2.7c0-2,0-3.3,0.7-3.3v-4l-0.7-0.7l-0.7-0.7l-0.7-0.7v-0.7l0.7-0.7
		C113.6,17.4,114.2,17.4,114.9,16L114.9,16z M144.3,16c0.7,1.3,1.3,1.3,2,2l0.7,0.7v0.7l-0.7,0.7l-0.7,0.7l-0.7,0.7v4
		c0.7,4,3.3,9.4,5.3,10.7c0.7,0,0.7,0.7,0.7,0.7v0.7l-1.3-0.7h-3.3l-1.3,6h-0.7l-1.3-6l-0.7-0.7l-1.3,0.7h-1.3l-0.7,0.7h-0.7v-0.7
		v-0.7l1.3-0.7c1.3-0.7,1.3-1.3,2.7-4c0.7-1.3,1.3-2,1.3-2.7v-3.3l0.7-3.3v-0.7l-0.7-0.7L143,20c0-0.7-0.7-0.7-0.7-0.7l-0.7-0.7
		c0.7,0,0.7,0,0.7-0.7c0.7,0,0.7-0.7,1.3-0.7l0.7-0.7C144.3,16.7,144.3,16.7,144.3,16L144.3,16z M129.6,42.1v0.7l0.7,0.7
		c0.7,0.7,0.7,0.7,1.3,0.7c0,0.7,0,0.7,0.7,0.7l-0.7,0.7l-0.7,0.7l-0.7,0.7l-0.7,0.7v0.7l0.7,2.7c0,4.7,2.7,10,5.3,11.4l0.7,0.7h-2
		c-0.7,0-2.7,0-3.3-0.7l-1.3,6h-0.7l-0.7-6c-1.3,0.7-3.3,0.7-4.7,0.7h-0.7c0,0,0-0.7,0.7-0.7s2-1.3,2.7-2.7c1.3-2,2-4,2-4.7
		c0-2,0-3.3,0.7-3.3v-4c0-0.7,0-0.7-0.7-0.7v-0.7l-1.3-0.7V45l0.7-0.7l0.7-0.7l0.7-0.7L129.6,42.1L129.6,42.1z M114.2,68.2l0.7,0.7
		l0.7,0.7l0.7,0.7L117,71l-0.7,1.3l-0.7,0.7h-0.7v0.7c0,4.7,1.3,10,2.7,11.4l2,2.7l0.7,0.7h0.7l-0.7,0.7h-2l-1.3-0.7h-0.7l-1.3,6
		h-0.7l-1.3-6h-0.7l-1.3,0.7h-3.3l0.7-0.7l1.3-0.7c2.7-2.7,4.7-8,4.7-14v-0.7h-0.7l-0.7-0.7c0-0.7-0.7-0.7-0.7-1.3h-0.7
		c0.7,0,0.7-0.7,1.3-0.7c0,0,0-0.7,0.7-0.7l0.7-0.7L114.2,68.2L114.2,68.2z M144.3,68.2c0.7,0,0.7,0.7,0.7,0.7
		c0.7,0,0.7,0.7,0.7,0.7s0.7,0,0.7,0.7l0.7,0.7l-1.3,1.3l-0.7,0.7v4c0.7,4.7,2,8.7,5.3,11.4h0.7l-0.7,0.7h-2l-1.3-0.7h-1.3l-0.7,6
		h-1.3l-0.7-6c-1.3,0-1.3,0.7-2,0.7h-3.3l0.7-0.7l1.3-0.7c0.7-1.3,1.3-1.3,2.7-4.7c0.7-1.3,0.7-2,0.7-2.7c0-1.3,0.7-3.3,0.7-3.3
		v-2.7l0.7-1.3h-0.7l-0.7-0.7l-0.7-1.3h-0.7c0.7,0,0.7-0.7,0.7-0.7L144.3,68.2L144.3,68.2z M82.2,54.8l0.7,1.3c0,0.7,0.7,2,0.7,2.7
		c0.7,4.7,2,6,4,6c1.3,0,2.7-1.3,2.7-2l0.7-2l0.7-0.7c0.7,0,1.3,1.3,1.3,3.3c0,0.7,0,2,0.7,4c0,1.3,0.7,2.7,0.7,3.3
		c0,1.3-0.7,2-0.7,2.7c0,2,0.7,4,0.7,5.3c0,2-0.7,4-1.3,4.7c0.7,1.3,0.7,2,0.7,3.3c0,0.7,0,2-0.7,2.7v5.3l-2-0.7l-1.3-0.7
		c-0.7-0.7-1.3-0.7-2-1.3c-2,1.3-2,1.3-6.7,2.7c-0.7,0-1.3,0-1.3,0.7c-0.7,0-1.3,0.7-1.3,0.7c-0.7,0-1.3-1.3-1.3-4
		c0-1.3,0.7-3.3,0.7-4c-1.3-0.7-2-1.3-2.7-1.3c0,0-0.7,0.7-1.3,0.7h-0.7v-0.7v-2l1.3-2c0-0.7,0.7-1.3,2-2.7c0.7-0.7,1.3-0.7,2-1.3
		h2.7c2-0.7,3.3-1.3,3.3-2.7s-1.3-2-2.7-2.7l-4-1.3c-0.7,0-2-0.7-2.7-1.3c-2-1.3-2.7-1.3-3.3-1.3c-0.7,0-0.7,0-0.7,1.3
		s0.7,2.7,2,2.7c0.7,0,0.7,0,0.7-0.7h1.3c0,0,0.7,0,0.7,0.7l-0.7,2c0,0.7-0.7,2.7-2.7,4.7l-0.7,1.3c-0.7,2.7-2,4.7-4,6
		c-0.7,0.7-1.3,0.7-1.3,0.7s0,0.7-0.7,1.3c0,0.7-0.7,1.3-1.3,2l-2,2c-1.3,0.7-2,1.3-2,1.3l-0.7,1.3c0,0.7-0.7,0.7-0.7,0.7
		c-0.7,0-1.3-0.7-2-2c0-1.3-0.7-1.3-1.3-1.3h-5.3c-1.3,0-3.3,0.7-4.7,1.3H45c0,0-0.7,0-0.7-0.7v-0.7c0-1.3,0.7-4,2.7-6.7
		c0.7-1.3,0.7-1.3,2-2.7c-0.5-1.2-1.5-2.1-2.7-2.7H45v-0.7c0-0.7,0.7-0.7,2-1.3c1.3-1.3,3.3-1.3,4-1.3c2,0,3.3,0,4.7,1.3
		c2,2,2.7,2,4,2S63,80,63,78c0-0.7-0.7-2-2-4c-2.7-3.3-3.3-4.7-3.3-6.7c0-1.3,0.7-3.3,1.3-4l0.7-1.3v-0.7c0-0.7-0.7-1.3-1.3-1.3
		c-1.3,0-4,1.3-6,2.7c-0.7,0-1.3,1.3-1.3,1.3v0.7l1.3,0.7v0.7l-0.7,0.7l-1.3,2c-0.7,0.7-2,2.7-3.3,3.3c-0.7,0.7-0.7,0.7-1.3,0.7
		c0,0,0,0.7-0.7,1.3c0,1.3-2,2.7-3.3,4c-0.7,0.7-1.3,0.7-1.3,0.7s0,0.7-0.7,1.3c0,0.7-0.7,1.3-0.7,2c-1.3,0.7-2,2-2,2L34,86.9
		c-0.7,0.7-1.3,2-2,5.3l-1.3,2.7c-0.7,0-0.7,0-0.7-0.7c-2-2-3.3-2.7-4-2.7h-0.7c-0.7,0.7-2,0.7-2.7,1.3H20c-2.7,0.7-3.3,1.3-4.7,2.7
		l-0.7,0.7c-0.7,0-0.7-0.7-0.7-0.7v-1.3l0.7-2c0-2,0.7-4,1.3-5.3l1.3-2.7c0.7-0.7,0.7-0.7,0.7-1.3c0-2-2-3.3-4.7-4h-0.7
		c0-0.7,0.7-1.3,1.3-2c2-1.3,4-2.7,5.3-2.7s2.7,0.7,4,1.3l2,0.7c0.7,0,1.3,0.7,1.3,0.7c2,0,4-2,6.7-6c0.7-2,1.3-2.7,1.3-4
		c0-2-1.3-3.3-2.7-3.3c-1.3,0-2.7,0.7-4,1.3c-0.7,0.7-0.7,2-0.7,2.7v1.3c0,0.7-0.7,0.7-0.7,0.7c-1.3,0-2-0.7-5.3-4.7
		c-2.7-3.3-3.3-4-3.3-7.4c-2.7-3.3-3.3-5.3-3.3-7.4v-2c-2-2-2.7-3.3-2.7-6c0-0.7,0.7-0.7,0.7-2c-0.7-1.3-1.3-2-1.3-3.3l-0.7-1.3
		c0-1.2-0.5-2.4-1.3-3.3c-0.6-0.7-0.6-1.3-0.6-1.3c0-1.3,0.7-1.3,3.3-2v-2c0-0.7,0-0.7,0.7-2v-3.3c0.7-0.7,0.7-2,0.7-2.7
		c0,0,0-0.7-0.7-2.7c0-0.7-0.7-1.3-0.7-1.3c-0.7-0.7-0.7-1.3-0.7-1.3c0-0.7,0-0.7,0.7-0.7s2.7,1.3,5.3,3.3c4.7,4,5.3,5.3,6,10
		c0,0.7,0.7,1.3,0.7,2c2.1,1.3,3.4,3.6,3.3,6c0,1.3-0.7,3.3-2,5.3l-1.3,2c-0.7,1.3-0.7,2-0.7,3.3s0.7,2.7,1.3,4.7
		c1.3,2,2.7,3.3,4,3.3c2,0,4-4,4-8v-2.7v-2.7c0-1.3,0.7-2,0.7-2v-3.3c0-0.7-0.7-1.3-1.3-2l-1.3-2c-2.7-2.7-4-5.3-4-7.4
		c0-2.7,1.3-4.7,4-4.7c0.7,0,0.7,0.7,2,0.7V18c0-3.3,0.7-6,1.3-6h0.7l1.3,1.3l2,0.7v0.7c0-0.7,0.7-0.7,1.3-2c0-0.7,0.7-0.7,1.3-2
		c0-0.7,0.7-0.7,0.7-0.7c0-0.7,0-0.7,0.7-1.3c0,0,0-0.7,0.7-0.7c0,0,0,0.7,0.7,1.3c0,0.7,0,0.7,1.3,2c0.7,0.7,1.3,0.7,1.3,1.3
		c0,0,0,0.7,0.7,1.3v0.7c0.7-0.7,1.3-0.7,2-1.3l1.3-0.7l0.7-0.7c0,0,0,0.7,0.7,0.7c0,0.7,0,0.7,0.7,1.3c0.7,1.3,0.7,2,0.7,2.7v2
		c2.7,0.7,4,2.7,4,5.3c0,2-1.3,4.7-3.3,7.4C52,32.6,52,33.3,52,34c0,6.7,4,10,11.4,10h6c3.3,0,5.3,0.7,8.7,1.3c4,1.3,5.3,2,6,2
		s1.3,0,1.3-0.7c0.7,0,0.7,0,0.7-0.7c0-1.3-2-2-8.7-4c-14-4-19.4-9.4-19.4-18c0-7.4,5.3-12.7,13.4-12.7c2,0,6,0.7,8,1.3l3.3,1.3
		c0.7,0,1.3,0.7,2,0.7c1.3,0,1.3-1.3,1.3-3.3c0-0.7,0.7-1.3,1.3-1.3c0.7,0,2.7,1.3,4,3.3c1.3,1.3,2,4,2,5.3c0,2-0.7,3.3-2.7,4
		c-2,3.3-4.7,4-7.4,4s-6-1.3-11.4-4c-2-1.3-3.3-2-4-2c-2,0-2.7,1.3-2.7,2.7c0,0.7,0.7,2,3.3,2.7c3.3,1.3,4.7,1.3,6,3.3
		c4,0.7,6,1.3,8.7,3.3c7.4,2,12,7.4,12,12.7c0,6-4,10-9.4,10C84.8,55.5,84.2,54.8,82.2,54.8L82.2,54.8z M237.2,54.8v1.3
		c0.7,0.7,0.7,2,0.7,2.7c1.3,4.7,2,6,4.7,6c1.3,0,2-1.3,2.7-2v-2c0.7,0,0.7-0.7,1.3-0.7s1.3,1.3,1.3,3.3c0,0.7,0,2,0.7,4v4
		c0,0.7,0,1.3-0.7,2l0.7,1.3v2.7c0,4,0,4.7-0.7,6v6l-0.7,2.7v1.3c0.7,0.7,0.7,0.7,0.7,1.3h-0.7l-1.3-0.7l-2-0.7
		c-0.7-0.7-0.7-0.7-2-1.3c-1.3,1.3-1.3,1.3-3.3,2c-2.7,0.7-4,0.7-4.7,1.3l-0.7,0.7c-0.7,0-1.3-1.3-1.3-3.3c0-2.7,0-4,0.7-4.7
		c-2-0.7-2.7-1.3-3.3-1.3l-0.7,0.7h-0.7l-0.7-0.7c0-1.3,0.7-2.7,1.3-4c1.3-2,3.3-3.3,4-4h3.3c2-0.7,2.7-1.3,2.7-2.7s-0.7-2-2.7-2.7
		l-3.3-1.3c-1.3-0.7-2-0.7-3.3-1.3c-0.7-0.7-1.3-1.3-2-1.3h-0.7c-0.7,0-1.3,0-1.3,1.3s1.3,2.7,2.7,2.7c0,0,0.7,0,0.7-0.7h0.7
		c0.7,0,0.7,0.7,0.7,0.7c0,1.3-0.7,4-2,5.3l-0.7,1.3l-0.7,1.3c-1,2.4-2.6,4.5-4.7,6l-0.7,0.7c0,0-0.7,0.7-0.7,1.3s-0.7,1.3-2,2l-2,2
		l-1.3,1.3l-1.3,1.3c0,0.7,0,0.7-0.7,0.7s-1.3-0.7-1.3-2c-0.7-1.3-0.7-1.3-1.3-1.3h-5.3c-2,0-4,0.7-4.7,1.3h-1.3
		c0,0-0.7-0.7-0.7-1.3c0-2.7,2-6.7,4.7-9.4c0-1.3-0.7-2-2-2.7H200l-0.7-0.7c0-0.7,0.7-1.3,2-1.3c2.7-1.3,3.3-1.3,4.7-1.3
		s2.7,0,4,1.3c2.7,2,3.3,2,4,2c2,0,3.3-1.3,3.3-3.3c0-0.7,0-2-2-4c-2-3.3-2.7-4.7-2.7-7.4c0-1.3,0-2.7,1.3-4.7l0.7-0.7
		c0-0.7-0.7-1.3-2-1.3c-0.7,0-2,0.7-3.3,1.3c-2,1.3-4,2-4,2.7s0.7,0.7,0.7,0.7l0.7,0.7v1.3l-2,2c-0.8,1.4-1.9,2.6-3.3,3.3
		c0,0.7-0.7,0.7-0.7,0.7l-0.7,1.3c-0.7,1.3-2,2.7-3.3,4c-0.7,0.7-1.3,0.7-1.3,0.7c0,0.7-0.7,0.7-0.7,1.3c-0.7,1.3-2,3.3-3.3,4
		l-2,2.7c-0.7,0.7-1.3,2.7-2.7,5.3c-0.7,2-0.7,2.7-1.3,2.7l-0.7-0.7c-1.3-2-2.7-2.7-3.3-2.7h-1.3c-0.7,0.7-1.3,0.7-2,1.3h-3.3
		c-2,0.7-3.3,1.3-4.7,2.7c0,0.7,0,0.7-0.7,0.7v-2v-2c0.7-2,1.3-4,2-5.3l1.3-2.7c0,0,0.7-0.7,0.7-1.3c0-2-2-3.3-4.7-4
		c-0.7,0-0.7,0-0.7-0.7l1.3-1.3c2-1.3,4-2.7,5.3-2.7c0.7,0,2,0.7,3.3,1.3l2,0.7c0.7,0,1.3,0.7,2,0.7c2,0,4-2,6-6
		c1.3-2,1.3-2.7,1.3-4c0-2-0.7-3.3-2.7-3.3c-0.7,0-2,0.7-3.3,1.3c-0.7,0.7-1.3,2-1.3,2.7v1.3c0,0.7,0,0.7-0.7,0.7s-1.3-0.7-2.7-2
		c-0.7-0.7-1.3-2-2.7-2.7c-2-3.3-2.7-4-2.7-7.4c-2.7-3.3-3.3-5.3-3.3-7.4v-2c-2-2.7-2.7-3.3-2.7-5.3c0-1.3,0-2,0.7-2.7
		c-1.3-1.3-1.3-2-2-3.3v-1.3c-0.7-1.3-0.7-2.7-1.3-3.3c-0.7-0.7-0.7-1.3-0.7-1.3c0-0.7,0.7-1.3,2.7-2h0.7v-2v-2l0.7-3.3v-2.7V16
		c-0.7-0.7-0.7-1.3-1.3-1.3v-1.3c0,0,0-0.7,0.7-0.7c0,0,0.7,0,0.7,0.7c2.7,1.3,6,4,8,6s2.7,4,2.7,8.7c2.7,2,4,3.3,4,6
		c0,2-0.7,3.3-2,5.3c-0.7,1.3-1.3,2-1.3,2c-0.7,1.3-1.3,2-1.3,3.3s0.7,2.7,2,4.7s2,3.3,3.3,3.3c2.7,0,4.7-4,4.7-8l-0.7-0.7v-2.7
		l0.7-2V34c0-0.7,0-0.7-2.7-4c-2.7-2.7-4-5.3-4-7.4c0-2.7,2-4.7,4-4.7c0.7,0,1.3,0.7,2,0.7V16l0.7-2c0.7-2,0.7-2,1.3-2l2,1.3
		l1.3,0.7l0.7,0.7c0-0.7,0-1.3,1.3-2c0-0.7,0.7-1.3,0.7-2l1.3-0.7V8.7c0.7,0,0.7-0.7,0.7-0.7c0.7,0,0.7,0.7,0.7,1.3
		c0.7,0.7,0.7,0.7,0.7,1.3l1.3,0.7c0.7,0.7,1.3,2,2,3.3l1.3-1.3l1.3-0.7c0.7,0,0.7-0.7,1.3-0.7v0.7c0,0.7,0.7,0.7,0.7,1.3
		c1.3,2,1.3,2,1.3,3.3v1.3c2.7,0.7,3.3,2,3.3,5.3c0,2-0.7,4.7-2.7,7.4c-1.3,1.3-2,2-2,3.3c0,6,4.7,9.4,12,9.4h5.3c4,0,6,0.7,9.4,1.3
		c3.3,1.3,4.7,2,6,2c0.7,0,1.3-0.7,1.3-1.3c0-1.3-2-2-8.7-4c-13.4-4-19.4-9.4-19.4-18c0-7.4,6-12.7,13.4-12.7c2.7,0,6,0.7,8.7,1.3
		l3.3,1.3c0.7,0,1.3,0.7,1.3,0.7c1.3,0,2-1.3,2-3.3c0-0.7,0.7-1.3,1.3-1.3s2,1.3,3.3,3.3c1.3,1.3,2,4,2,5.3c0,2-0.7,3.3-2.7,4
		c-2,3.3-4,4-7.4,4c-2,0-6-1.3-11.4-4c-2-1.3-2.7-2-4-2s-2,1.3-2,2.7c0,0.7,0.7,2,3.3,2.7c3.3,1.3,4.7,2,5.3,3.3
		c4.7,0.7,6,1.3,8.7,3.3c8,2.7,12,7.4,12,12.7c0,6-3.3,10-8.7,10C239.9,55.5,239.2,54.8,237.2,54.8L237.2,54.8z M84.2,211.2
		c0.7,2,0.7,2.7,0.7,4v3.3c0.7,3.3,1.3,5.3,4,5.3c0.7,0,1.3,0,1.3-0.7l1.3-0.7c0.7,0,1.3,0,1.3,0.7v1.3c-0.7,0.7,0,2,0,4v3.3
		c0,2,0,2.7-0.7,4c0.7,1.3,1.3,3.3,1.3,4.7c0,2-0.7,3.3-1.3,4c0.7,2,0.7,2,0.7,3.3c0,0.7,0,2-0.7,2.7v4.7c0,0,0,0.7-0.7,0.7
		l-0.7-0.7c-0.7-0.7-1.3-0.7-1.3-0.7c-0.7,0-0.7,0-2,2.7c0,0.7-0.7,1.3-2,2.7c-0.7,1.3-1.3,2-1.3,2.7s-0.7,1.3-0.7,2h-0.7
		c-1.3,0-2.7-2.7-4-8.7c-0.7-1.3-1.3-2-2-2s-1.3,0.7-1.3,1.3l-0.7,0.7c0,0.7,0,0.7-0.7,0.7s-1.3-1.3-2-2.7c-0.7-1.3-0.7-2.7-0.7-4
		c0-2.7,2-4.7,7.3-8c2.7-1.3,3.3-3.3,3.3-6s-0.7-4-2.7-6c-2-1.3-2.7-2-4-2c-0.7,0-1.3,0.7-1.3,1.3s0.7,1.3,2,2
		c0.7,0,1.3,0.7,1.3,1.3c0,0,0,1.3-1.3,2.7c-0.5,1.2-1.5,2.2-2.7,2.7c0,2.7-1.3,4-4,5.4c0,2-0.7,2-1.3,3.3l-2,2
		c-0.7,0.7-1.3,2-1.3,2.7c0,1.3,0,1.3-0.7,1.3s-2-0.7-3.3-2.7c-0.7-0.7-0.7-1.3-1.3-2.7c-0.7,0.7-0.7,0.7-2.7,0.7
		c-0.7,0.7-1.3,0.7-2,0.7c-1.3,0.7-2,1.3-2,1.3s-0.7-0.7-0.7-1.3v-1.3c0-2.7,1.3-5.4,2.7-7.4c-1.3-1.3-2.7-2-4-2.7h-0.7
		c0,0,0-0.7,0.7-1.3c0.7-0.7,1.3-1.3,1.3-2c1.3-0.7,3.3-1.3,5.3-1.3c0.7,0,2.7,0,4.7,0.7c0.7,0.7,1.3,0.7,2,0.7s1.3-0.7,1.3-1.3
		c0-2-0.7-4-2.7-8c-1.3-2.7-1.3-4-1.3-5.4c0-2.7,1.3-6,2.7-6.7c-0.7-0.7-1.3-0.7-2-0.7s-1.3,0-2,0.7c-1.3,0.7-2,1.3-2,2
		c0,0,0,0.7,0.7,0.7c0.7,0.7,0.7,0.7,0.7,1.3c0,2-2,4.7-4,6.7c-0.7,2.7-2,4.7-4.7,6c0,1.3-0.7,2-2,3.3c-2,3.3-2.7,4-2.7,6
		c-0.7,0.7-0.7,1.3-0.7,1.3c-0.7,0-1.3-0.7-2-1.3c-0.7-1.3-1.3-1.3-1.3-2c-0.7-0.7-0.7-0.7-0.7-2.7c-0.7,0-1.3,0.7-1.3,0.7l-1.3-0.7
		h-0.7c-2,0-4,0.7-4.7,1.3h-0.7c-0.7,0-1.3-0.7-1.3-2c0-3.3,0.7-5.4,2.7-8.7c-0.7,0-0.7-0.7-1.3-1.3l-0.7-0.7h-0.7l-0.7-0.7
		c0-0.7,1.3-2,2.7-2.7c1.3-1.3,2.7-1.3,4-1.3s2,0,3.3,2c1.3,0.7,2,1.3,2.7,1.3s1.3-0.7,1.3-0.7c0-0.7,0.7-1.3,0.7-1.3c0-2-2-4.7-4-6
		c-2-0.7-3.3-1.3-5.3-1.3s-4,1.3-4.7,2.7l-1.3,2c0,0.7-0.7,0.7-0.7,0.7c-0.7,0-0.7,0-2.7-2l-2-2.7c-0.7-0.7-1.3-1.3-1.3-2
		c-0.7-0.7-0.7-1.3-0.7-1.3l-0.7-0.7c-2-1.3-2.7-3.3-3.3-6.7c-0.7-0.7-0.7-0.7-0.7-1.3c-2-2.7-3.3-5.3-3.3-8c0-0.7,0-0.7,0.7-1.3
		c-1.3-1.3-1.3-1.3-2.7-4.7c-0.7-2-0.7-3.3-2-4v-0.7c0-0.7,0.7-0.7,2-1.3H16v-2v-4c0-0.7,0.7-1.3,0.7-1.3c0-0.7,0-0.7-0.7-2v-0.7
		V169h1.3c1.3,0.7,2.7,2,3.3,2.7c3.3,2,5.3,5.3,5.3,7.4v2c0,0.7,0,0.7,0.7,1.3l0.7,1.3c0.7,1.3,1.3,2.7,1.3,3.3c0,0.7,0,1.3-1.3,2.7
		c-1.3,2-1.3,2.7-1.3,4s0.7,3.3,1.3,5.4c1.3,1.3,2,2.7,3.3,2.7c2,0,2.7-2,2.7-6c0.7-2.7,0.7-4.7,0.7-6.7v-0.7c0-0.7,0-1.3-0.7-2
		l-2.7-2.7c-2-2.7-2.7-4-2.7-6c0-2.7,1.3-4,3.3-4h1.3V173v-2c0.7-2,1.3-3.3,2-3.3l0.7,0.7h1.3c0.7,0.7,0.7,0.7,2,1.3
		c0-1.3,0.7-2,1.3-3.3c0.7-1.3,2-2,2.7-2c0,0,0.7,0,1.3,0.7l1.3,2c0,0,0.7,0.7,0.7,1.3l0.7,0.7c0.7,0,0.7-0.7,0.7-0.7
		c0.7,0,1.3-0.7,1.3-0.7c1.3-0.7,2-0.7,2-0.7l0.7-0.7c0,0,0.7,0.7,1.3,3.3v4c2.7,0,4,1.3,4,4.7c0,2.7-1.3,5.3-4,8
		c-0.7,0.7-0.7,1.3-0.7,2c0,7.4,2,10,11.4,10.7c6,0.7,7.3,1.3,14,3.3c4,0.7,6,1.3,7.4,1.3c1.3,0,2-0.7,2-2s-0.7-2-7.4-3.3
		c-15.4-2.7-21.4-8-21.4-18.7c0-6.7,5.3-12,12.7-12c2.7,0,6,0.7,10,3.3c4.7,2.7,5.3,2.7,6,2.7c1.3,0,2-0.7,2-2.7
		c0-0.7,0-1.3,0.7-1.3s2,0.7,2.7,1.3c1.3,2,2,2.7,2,4.7c0,3.3-1.3,5.4-4.7,6l-0.7,0.7c-2,2-3.3,2.7-6,2.7s-5.3-0.7-7.3-2l-4-3.3
		c-2-0.7-2.7-1.3-4-1.3c-2,0-2.7,0.7-2.7,2.7c0,1.3,0.7,2.7,2.7,3.3l4,1.3c1.3,0.7,2,0.7,3.3,1.3h2c2,0,4.7,0.7,6.7,2
		c0.7,0,1.3,0,1.3,0.7h2.7c4.7,1.3,8,6.7,8,12c0,6-3.3,9.4-10,9.4L84.2,211.2L84.2,211.2L84.2,211.2z M228.5,209.8
		c1.3,2,3.3,3.3,4.7,3.3c0.7,0,1.3,0,2.7-0.7h0.7c0.7,0,0.7,0,0.7,0.7c0,0,0,0.7-0.7,1.3v2l-0.7,1.3l-0.7,1.3l-1.3,1.3v1.3
		c0,2-0.7,3.3-2.7,4.7l-0.7,0.7c0,1.3-0.7,2.7-0.7,3.3c0,0-0.7,0.7-1.3,2c-1.3,1.3-2,2.7-2,3.3c-0.7,0.7-0.7,1.3-1.3,1.3
		c-0.7,0-2-1.3-2-2.7v0.7l-1.3,0.7l-1.3,1.3c-0.7,0-1.3,0.7-1.3,0.7l-1.3,1.3c-0.7,0-1.3-0.7-1.3-2l-0.7-2.7c-0.7-0.7-0.7-2-0.7-2.7
		c0-1.3,0-2,0.7-3.3c-2,0.7-2,0.7-3.3,0.7H212v-1.3l1.3-2.7c0.7-2.7,3.3-4.7,5.3-4.7c0.7,0,1.3,0.7,2.7,0.7h0.7c1.3,0,2-0.7,2-1.3
		c0-0.7,0-0.7-0.7-1.3c0,0-1.3,0-2.7-0.7c-2-0.7-2.7-0.7-4-2.7c-1.3-1.3-1.3-2-2-2l-0.7,0.7v2c0,2-0.7,4-2,7.4l-2.7,4
		c-0.7,2-1.3,4-1.3,5.4c0,1.3,0.7,3.3,2,3.3h0.7l0.7,0.7v1.3c0,0-0.7,0.7-1.3,2c-2,1.3-2.7,2-4,2.7c-1.3,2.7-2.7,4-6,4.7v0.7
		c-1.3,2-3.3,3.3-4.7,3.3h-0.6c0,1.3-0.7,3.3-2.7,4c-1.3,1.3-2,1.3-2,2v0.7c-0.7,0.7-0.7,0.7-1.3,0.7c-1.3,0-2-0.7-2-2
		c-0.7,0-0.7,0-0.7,0.7c-1.3,0.7-2,0.7-2,0.7s-1.3,0.7-2.7,0.7c-2,0.7-4,1.3-4.7,2.7l-0.7,0.7v0.7c-0.7,0-0.7-0.7-1.3-1.3
		c0-2-0.7-4-0.7-4.7c0-3.3,1.3-5.3,4-8V248c0-4.7,3.3-8,8.7-8h0.7l2.7,0.7h0.7c1.3,0,2.7-0.7,4.7-2c2-2,2-2.7,2-4.7
		c0-0.7,0-1.3-0.7-3.3c0-1.3-0.7-2.7-0.7-4c0-3.3,2.7-7.4,6-10c1.3-0.7,1.3-1.3,1.3-2c0,0-0.7,0-0.7,0.7c-0.7,0-1.3,0.7-2,1.3
		l-1.3,0.7l-2,0.7c0,0-0.7,0-0.7,0.7l0.7,0.7v0.7c0,0,0,0.7-0.7,0.7l-0.7,2c-1.3,2-2,2.7-4,3.3c-0.7,2.7-2,4-4,4.7
		c-1.3,2.7-2.7,4-5.3,4c-0.6,1.5-1.6,2.8-2.7,4c-0.7,0.7-1.3,1.3-1.3,1.3l-0.7,1.3c-0.7,0-1.3-0.7-2-1.3c-0.7,0-0.7-0.7-0.7-0.7
		l-0.7-1.3c-0.7-0.7-0.7-0.7-1.3-0.7h-2c-1.3,0-2.7,1.3-3.3,2l-1.3,1.3v0.7c-0.7,0-1.3-2-1.3-4.7c0-2,0.7-4,1.3-4.7l2-3.3
		c0.7-0.7,0.7-1.3,0.7-1.3c0-0.7,0-0.7-0.7-1.3c0-0.7-0.7-0.7-1.3-0.7l-1.3-0.7h-1c0,0,0-0.7,0.7-0.7c0-0.7,1.3-1.3,2-2
		c2-1.3,3.3-1.3,4.7-1.3s2.7,0,4,1.3l2.7,1.3c0,0.7,0.7,0.7,1.3,0.7s2-0.7,2.7-2.7c0.7-1.3,0.7-2,0.7-3.3c0-3.3-2-5.4-5.3-5.4
		c-1.3,0-2.7,0.7-4,1.3c-0.7,0.7-0.7,0.7-0.7,1.3l-0.7,1.3l-0.7,0.7c-0.7,0-1.3-1.3-2-2.7c-0.7-1.3-1.3-2-1.3-3.3
		c-0.7-1.3-0.7-2.7-0.7-4v-2c-1.3-2-1.3-3.3-1.3-5.3c0-0.7,0-1.3,0.7-2.7c-0.7-1.3-1.3-2.7-1.3-4V192l0.7-0.7V190
		c-0.7-0.7-0.7-1.3-2-5.3c0-2-0.7-2.7-0.7-3.3c-0.7,0-0.7-0.7-0.7-0.7c0-0.7,1.3-0.7,2.7-0.7h1.3c-0.7-0.7-0.7-1.3-0.7-2
		s0.7-2,0.7-3.3c0.7-0.7,0.7-1.3,0.7-2s0-2-0.7-2l-0.7-2V168h0.7c1.3,0,4.7,1.3,6.7,4c2.7,2,3.3,4,3.3,7.4v2c2,2,3.3,3.3,3.3,5.3
		c0,1.3-0.7,2-2,3.3c-2,2-2.7,3.3-2.7,6c0,4.7,1.3,6.7,4,6.7c2,0,4-2,4-5.3v-3.3c0-0.7,0.7-2,0.7-2.7v-2.7c0-0.7-0.7-2-2.7-4.7
		s-3.3-4-3.3-6.7c0-2,2-4,4.7-4h1.3c0-1.3,0-1.3,0.7-3.3s1.3-2.7,2-2.7h0.7c0,0.7,0.7,0.7,0.7,1.3h0.7c0.7,0.7,0.7,0.7,1.3,1.3
		c0-2,0.7-3.3,2-4.7c1.3-0.7,2-1.3,2-1.3s0.7,0,0.7,0.7l1.3,1.3l1.3,1.3c0,0.7,0.7,1.3,0.7,2.7l0.7-0.7l1.3-0.7
		c0.7,0,0.7-0.7,1.3-0.7h0.7l0.7,2l1.3,2.7v2h0.7c1.3,0,3.3,2,3.3,4.7s-2.7,6.7-6,8.7v2c0,6.7,2,8,12,9.4c2,0.7,4.7,1.3,6.7,1.3
		c0,0.7,2.7,1.3,6.7,2.7c2,0.7,3.3,0.7,4.7,0.7s2,0,2-0.7c0-1.3-2-2-6.7-4l-7.4-3.3c-7.4-2.7-10.7-7.4-10.7-13.4c0-8,5.3-14,13.4-14
		c2.7,0,6,0.7,10,2.7c4.7,1.3,5.3,2,6,2s1.3-1.3,1.3-2.7c0-1.3,0.7-1.3,1.3-1.3c1.3,0,2,0.7,2.7,2s1.3,3.3,1.3,4.7
		c0,2.7-1.3,4.7-4,4.7c-2,2.7-4,4-6.7,4c-3.3,0-4.7-0.7-10.7-4.7c-2-1.3-2.7-1.3-4-1.3c-2,0-4,1.3-4,2.7c0,2,1.3,2.7,4,3.3
		c2,0.7,2,0.7,2.7,1.3h2c2.7,0,6,1.3,8.7,4c4.7,1.3,9.4,6.7,9.4,11.4c0,5.4-4,10-9.4,10C233.2,211.2,230.5,210.5,228.5,209.8
		L228.5,209.8z"/>
	<path class="st2" d="M90.9,90.9c-0.7-0.7-0.7-1.3-0.7-2v-0.7l0.7-1.3v-0.7c0-1.3-0.7-2-0.7-2.7l-1.3-1.3c0-0.7-0.7-1.3-0.7-1.3
		v-1.3h1.3c0.7,0.7,0.7,0.7,1.3,0.7c0,0,0.7-1.3,0.7-2.7s-0.7-2-0.7-2.7l-1.3-1.3l-1.3-0.7v-0.7c0-0.7,0-0.7,0.7-0.7h2
		c0.7,0,0.7,0,0.7-0.7l-0.7-2v-1.3l-0.7-0.7h-2.7c-2.7,0-6-2-6.7-5.3l-1.3-5.3c-0.7-1.3-2-2.7-4-4.7c-0.7-0.7-1.3-0.7-2-1.3h-2
		c0-0.7,0.7-0.7,1.3-0.7h2.7c0.7,0,2.7,0.7,4.7,1.3c2,0.7,4,1.3,5.3,1.3c4,0,6.7-2.7,6.7-6c0-2.7-1.3-5.3-3.3-7.4
		c-1.3-1.3-2.7-2-2.7-2c-0.7,0-0.7,0-0.7,0.7v0.7c0,0.7,0,1.3-0.7,1.3c0,0-0.7-0.7-1.3-2c-1.3-3.3-4-5.3-6.7-5.3l-0.7,0.7
		c0,0,0,0.7,0.7,1.3l0.7,1.3v0.7c-0.7,0-1.3,0-1.3-0.7l-1.3-1.3l-1.3-1.3c-0.7-1.3-1.3-2-3.3-3.3c-1.3,0-2-0.7-2-0.7
		c-0.7,0-0.7-0.7-1.3-0.7v1.3c0.7,1.3,1.3,1.3,1.3,2l-0.7,0.7c-0.7,0-2-1.3-3.3-3.3c-0.7-1.3-1.3-3.3-1.3-4.7c0-3.3,2.7-6,6-6
		c2,0,4,0.7,6,2l4,2c1.3,1.2,2.9,1.9,4.7,2c0.7,0,1.3-0.7,2.7-0.7c0,0,0.7,0,0.7-0.7h0.7c0-0.7,0-0.7-0.7-0.7l-2-0.7
		c-0.7,0-1.3,0-2-0.7c-2.7-0.7-4-1.3-4.7-2c-1.3-0.7-2-1.3-2.7-1.3L75,16.6V16h1.3c0.7,1.3,2,1.3,2.7,1.3l3.3,1.3
		c2,0.7,4.7,1.3,6,1.3s2.7-1.3,2.7-2.7s-0.7-2.7-1.3-4H89c-0.7,0-0.7,0-0.7,0.7v1.3c0,1.3-0.7,2-1.3,2h-1.3l-5.3-2
		c-4.7-1.3-6.7-2-8.7-2c-6.7,0-11.4,4.7-11.4,10c0,6.7,4.7,11.4,16,15.4C87.7,41.9,89,43.3,89,46c0,2-2,3.3-3.3,3.3h-2
		c-0.7-0.7-2.7-0.7-6-1.3c-3.3-1.3-6.7-1.3-10-1.3C59.7,46.7,55,48,51,52c-0.7,0.7-1.3,0.7-2.7,0.7H47c-1.3,0-2,0.7-2.7,1.3
		c-0.7,2-1.3,2.7-1.3,2.7l-0.7,0.7c-1.3,0-1.3-0.7-2.7-2.7c0-1.3-0.7-2-1.3-2.7l-2-1.3V50v-0.7c0.7-1.3,1.3-2,1.3-2.7s0-0.7,0.7-0.7
		s0.7,0,0.7,2c0,0.7,0,1.3,0.7,2.7l0.7,2h1.3c0.7,0,1.3-2,2-4c0-2,0.7-2,0.7-2h0.7c0,0,0,0.7,0.7,1.3c0,0.7,0.7,0.7,0.7,1.3
		c0.7,0,1.3,0.7,1.3,0.7c0.7,0,0.7-0.7,1.3-2v-0.7l-0.7-1.3v-0.7c0-0.7,0.7-1.3,0.7-1.3s0.7,0,0.7,0.7l0.7,0.7
		c0.7,0.7,1.3,0.7,2,0.7s0.7,0,0.7-0.7c0,0,0-0.7-0.7-2l-0.7-0.7c-0.7-1.3-0.7-2-1.3-2h-1.3l-0.7,0.7h-0.7c0-1.3,0-2,1.3-3.3
		c0.7-1.3,0.7-3.3,1.3-6.7c0-4.7,0.7-7.4,1.3-7.4c0,0,0.7,0.7,0.7,1.3v3.3c0.7,0,1.3-1.3,2-2.7c0.7-0.7,0.7-1.3,0.7-2l-2-3.3
		l-1.3-0.7h-0.7v-3.3l-0.7-0.7v-0.7c-2,0.7-2.7,1.3-3.3,2c-0.7,1.3-1.3,1.3-1.3,1.3h-0.7c0-0.7,0-0.7,0.7-1.3v-0.7
		c0-2-1.3-3.3-3.3-4.7v0.7l-0.7,0.7l-1.4,1.3c0,0-0.7,0.7-0.7,1.3V17c0,0.7,0,1.3-0.7,1.3L38.3,17l-0.7-0.7L36.3,15H35v1
		c0,0.7-0.7,0.7-0.7,1.3V20c0,0.7,0,1.3-0.7,1.3l-0.7-0.7h-1.3c-1.3,0-2,0.7-2,2s0,3.3,1.3,4l0.7,2c0.7,0,1.3,0.7,1.3,0v-2.7
		L32,25.4c0-0.7,0.7-1.3,0.7-1.3c0.7,0,0.7,0.7,1.3,2l0.7,3.3l0.7,4c0,0.7,0.7,2,0.7,3.3c0.7,1.3,1.3,2,1.3,2.7l1.3,1.3
		c0,0.7,0,0.7-0.7,0.7h-0.7c0-0.7-0.7-0.7-0.7-0.7h-0.7c-1.3,0-2,1.3-2,6.7c0,3.3,0.7,8,2,10l1.3,4.7c0.7,0.7,0.7,1.3,0.7,2
		c0,6-8,15.4-16.7,20c-3.3,1.3-4.7,2.7-4.7,6.7v0.7c1.3-0.7,2-0.7,2.7-0.7c2.7-0.7,2.7-1.3,3.3-2.7l0.7-0.7c0-0.7,0-0.7,2-2
		c0.7,0,1.3-0.7,1.3-0.7c0-0.7,0.7-1.3,0.7-1.3c0.7,0,0.7,0,0.7,0.7l-1.3,2.7v0.7c0,1.3,1.3,2.7,2.7,4c0.7-2,0.7-2.7,1.3-4l1.3-2
		c0.7-0.7,0.7-2,0.7-3.3v-3.3c0-0.7,0-0.7,0.7-0.7H34v2h0.7c1.3,0,2-0.7,3.3-2.7c0-0.7,0.7-1.3,0.7-2v-1.3L38,72.9
		c0-0.7,0.7-1.3,0.7-1.3c0.7,0,0.7,0.7,0.7,0.7l0.7,2c0,0.7,0,0.7,0.7,0.7s1.3-0.7,2-2c0.7-0.7,0.7-2,0.7-3.3c0-2,0.7-2,1.3-2
		l0.7,1.3c0,0,0,0.7,0.7,0.7c0,0,1.3-1.3,2-2.7v-0.7c0,0,0-0.7-0.7-0.7c-1.3-1.3-1.3-1.3-1.3-2c0-1.3,0.7-2,1.3-3.3
		c0-0.7,0.7-1.3,0.7-2c1.3-2,1.3-2,2-2s0.7,0,0.7,0.7v0.7c-0.7,0-0.7,0.7-0.7,0.7c0,0.7,0.7,0.7,0.7,0.7c0.7,0,0.7,0,1.3-0.7
		c0.7,0,1.3,0,2.7-0.7l2.7-1.3h3.3c0.7,0.7,1.3,0.7,1.3,0.7c1.3,0,2-0.7,2-1.3s-0.7-2-1.3-2.7l-0.7-0.7v-0.7h0.7
		c0.7,0,2,1.3,2.7,3.3c7.3,10.7,10,14,14.7,15.4c4.7,1.3,6,2.7,6,5.3c0,1.3-0.7,3.3-2.7,6c-3.3,4.7-4,6.7-4,10v0.7h0.7
		c0.7-0.7,1.3-0.7,1.3-0.7l2-0.7c0.7,0,1.3-0.7,1.3-1.3V89l-0.7-1.3V87c0-0.7,0.7-1.3,1.3-1.3V85c0.7,0,0.7,0.7,0.7,0.7l1.3,2.7
		C88.2,89.5,88.9,90.2,90.9,90.9L90.9,90.9z M23.4,30.7c0,0-0.7,0.7-0.7,2V34C22,35.3,22,35.3,22,36c0,1.3,0.7,2,1.3,2
		c0.7,0,1.3-0.7,1.3-2c0.7-0.7,0.7-1.3,0.7-2s0-1.3-0.7-2C24.7,31.4,24,30.7,23.4,30.7z"/>
	<path class="st2" d="M16,18.1v0.7c0,0.7,0,2-1.3,5.3v1.3c0,0.7,0,1.3,0.7,2l0.7,0.7l1.3,0.7v3.3c0.7,0.7,0.7,1.3,0.7,2v1.3
		c-0.7,0-1.3-1.3-2-2c-0.7-2-1.3-3.3-2-3.3c-1.3,0-2,0.7-2.7,0.7v0.7c0,0.7,0.7,0.7,1.3,2l0.7,2l1.3,2.7l1.3,1.3c0,0,0.7,0,1.3,0.7
		c0.7,0,0.7,0.7,0.7,0.7s0,0.7-0.7,0.7H16l-0.7-0.7v1.3c0,2,1.3,4.7,4.7,6.7c0.7,0.7,0.7,0.7,0.7,1.3c0,0,0,0.7-0.7,0.7l-0.7-0.7
		h-0.7c-0.7,0-0.7,0-0.7,0.7s0,2,1.3,4c0.5,1.2,1.5,2.1,2.7,2.7l4,1.3v0.7c0,0,0,0.7-0.7,0.7H22c0,0.7,0.7,2,1.3,2.7
		c1.3,2,2,2.7,2,2.7c0.7,0,0.7,0,0.7-0.7l1.3-2c0,0,0.7-0.7,2-1.3c0.7-0.7,1.3-0.7,2-0.7l2-0.7v-6L32.6,53v-0.7
		c-0.7,0-0.7,0-0.7,0.7c-1.3,2-2.7,2.7-4,2.7c-4,0-7.4-8-7.4-18v-4v-4c0-4.7-0.7-7.4-2.7-9.4L16.5,19L16,18.1L16,18.1z M26.7,78.9
		c-1.3-0.7-1.3-0.7-2-0.7s-1.3-0.7-2-0.7c-1.3-0.7-2-1.3-3.3-1.3c-0.7,0-2,0.7-3.3,2h0.7l2,1.3l1.3,1.3c0.7,0,1.3,0.7,1.3,0.7
		C23.4,81.5,24.7,80.9,26.7,78.9z M58.8,93.6c0.7-0.7,0.7-1.3,1.3-2c2.7-2,3.3-3.3,3.3-4.7v-2c0-0.7,0.7-1.3,1.3-1.3l0.7,1.3
		c0,0,0,0.7,0.7,0.7l1.3-1.3l0.7-1.3c0.7-0.7,0.7-0.7,0.7-1.3V81c0-0.7-0.7-0.7-0.7-1.3c-0.7-0.7-0.7-1.3-0.7-1.3
		c0-0.7,0.7-1.3,0.7-1.3c0.7,0,0.7,0,0.7,0.7l0.7,0.7h0.7c0.7,0,0.7,0,0.7-0.7l0.7-1.3c0.7,0,0.7-0.7,0.7-0.7l-0.7-0.7l-1.3-0.7
		c-1.3-0.7-2.7-2.7-2.7-5.3c0,0,0-0.7,0.7-0.7l0.7-1.3v-1.3c0-0.7-0.7-2-0.7-2.7c-0.7-0.7-1.3-1.3-1.3-2c-0.7-0.7-0.7-1.3-1.3-1.3
		L65,60.5h-1.3L63,61.8l-1.3,0.7c-0.8,0.9-1.3,2.1-1.3,3.3c0,2,0,2.7,3.3,7.4c0.7,2,1.3,4,1.3,4.7c0,3.3-2.7,6-8.7,7.4l-4,1.3
		c-2.7,0.7-4.7,2-5.3,5.3c1.3-0.7,2-0.7,4-0.7h1.3c1.3,0,1.3,0,2-0.7c0.5-1.2,1.5-2.1,2.7-2.7l1.3-0.7h1.3v-0.7l0.7,0.7
		c0,0-0.7,0.7-0.7,1.3c-1.3,1.3-1.3,2-1.3,3.3C58.1,92.2,58.1,92.9,58.8,93.6L58.8,93.6z"/>
	<path class="st2" d="M48.1,80.9c1.3,0.7,2,1.3,2.7,2c0.7,1.3,0.7,1.3,1.3,1.3h1.3l0.7-0.7c1.3,0,2,0,2-0.7v-0.7l-1.3-0.7l-0.7-0.7
		c-0.7-0.7-2-1.3-2.7-1.3C50.1,79.5,49.4,80.2,48.1,80.9L48.1,80.9z M74.8,85.5l0.7-0.7h2c2,0,3.3-1.3,3.3-2.7c0-0.7,0-1.3-1.3-1.3
		C77.5,80.9,76.2,82.2,74.8,85.5L74.8,85.5z M245.2,90.9v-2.7v-3.3c0-0.7,0-0.7-0.7-1.3l-0.7-1.3c-0.7-0.7-0.7-1.3-0.7-2.7h1.3
		c0,0.7,0.7,0.7,0.7,0.7c0.7,0,0.7-0.7,0.7-2.7s0-3.3-1.3-4l-1.3-0.7c0-0.7-0.7-0.7-0.7-0.7c0-0.7,0.7-0.7,0.7-0.7h2.7v-2.7
		c0-1.3-0.7-2-1.3-2h-2.7c-2.7,0-5.3-2-6-5.3l-2-5.3c0-1.3-1.3-3.3-4-4.7c-0.7-0.7-1.3-0.7-1.3-1.3h-2c0-0.7,0-0.7,0.7-0.7
		c2,0,4.7,0,7.4,1.3c2.7,0.7,4.7,1.3,6,1.3c4,0,6-2,6-6c0-2,0-4-1.3-5.3c-0.7-1.3-2-2.7-4-4h-0.7v1.3c0,0.7-0.7,1.3-0.7,1.3
		c-0.7,0-0.7-0.7-1.3-2c-1.3-3.3-4-5.3-6.7-5.3c-0.7,0-0.7,0.7-0.7,0.7v1.3c0.7,0,0.7,0.7,0.7,1.3c0.7,0,0.7,0.7,0.7,0.7H232
		c0,0-0.7,0-1.3-0.7l-1.3-1.3l-0.7-1.3l-3.3-3.3l-2-0.7c-0.7,0-1.3-0.7-1.3-0.7l-0.7,0.7l0.7,0.7c0.7,0.7,0.7,1.3,0.7,2v0.7
		c-0.7,0-2-1.3-3.3-3.3c-1.3-1.3-1.3-3.3-1.3-4.7c0-3.3,2.7-6,6-6c1.3,0,4,0.7,6,2l4,2c1.3,1.2,2.9,1.9,4.7,2c0.7,0,0.7,0,2-0.7
		c0.7,0,0.7,0,1.3-0.7c0-0.7,0-0.7-0.7-0.7c-1.3,0-5.3-2-8-3.3l-2.7-1.3c-0.7-0.7-1.3-0.7-1.3-1.3h0.7l4,1.3l3.3,1.3
		c2,0.7,4.7,1.3,5.3,1.3c2,0,2.7-1.3,2.7-2.7v-2.7c-0.7-0.7-1.3-1.3-2-1.3v2c0,1.3-0.7,2-1.3,2h-1.3l-6-2c-4.7-1.3-6-2-8.7-2
		c-6,0-11.4,4.7-11.4,10c0,6.7,4.7,11.4,16,15.4c11.4,3.3,12.7,4.7,12.7,7.4c0,2-1.3,3.3-3.3,3.3h-2c-0.7-0.7-2-0.7-5.3-1.3
		c-3.3-1.3-6.7-1.3-10.7-1.3c-8,0-12,1.3-16,5.3c-1.3,0.7-1.3,0.7-2.7,0.7h-2c-0.7,0-1.3,0.7-2,1.3l-1.3,2.7c-0.7,0-0.7,0.7-1.3,0.7
		s-1.3-0.7-2-2.7c-0.7-1.3-0.7-2-1.3-2.7l-2-1.3c0-0.7-0.7-0.7-0.7-0.7l0.7-0.7c0-0.7,0.7-0.7,0.7-1.3c0-0.7,0.7-0.7,0.7-1.3v-0.7
		h0.7c0.7,0,0.7,0,0.7,2c0,0.7,0,1.3,0.7,2.7l0.7,2h0.7c0.7,0,2-2,2-4c0.7-2,0.7-2,1.3-2l0.7,1.3l1.3,1.3c0.7,0,0.7,0.7,0.7,0.7h0.7
		c0.7,0,0.7-0.7,0.7-2v-2.7c0-0.7,0-1.3,0.7-1.3l0.7,0.7l0.7,0.7c0.7,0.7,0.7,0.7,1.3,0.7c0.7,0,1.3,0,1.3-0.7s0-0.7-0.7-2
		c0,0-0.7,0-0.7-0.7c-0.7-1.3-1.3-2-2-2h-0.7l-1.3,0.7h-0.7c0-1.3,0.7-2,1.3-3.3c0.7-1.3,1.3-3.3,1.3-6.7l0.7-4
		c0-2.7,0.7-3.3,0.7-3.3h0.7V27c0,1.3,0,2,0.7,2l1.3-1.3c0,0,0.7-0.7,0.7-1.3c0-0.7,0.7-2,0.7-2c0-2-1.3-3.3-3.3-4h-0.7v-2l-0.7-1.3
		v-0.7l-0.7-0.7h-0.7c-1.3,1.3-2,1.3-2.7,2c-0.7,1.3-0.7,1.3-1.3,1.3v-2c0-2-0.7-3.3-2.7-4.7l-0.7,0.7l-0.7,0.7l-0.7,1.3
		c-0.7,0.7-1.3,1.3-1.3,2.7V19l-0.7-1.3l-1.3-0.7l-1.3-1.3h-0.7c-0.7,1.3-0.7,1.3-0.7,4v0.7c0,0.7-0.7,1.3-0.7,1.3
		c-0.7,0-0.7-0.7-1.3-0.7h-1.3c-0.7,0-2,0.7-2,2s0.7,2.7,1.3,4c0.7,1.3,2,2,2,2v-3.3c0-0.7,0-1.3,0.7-1.3c0,0,0.7,0.7,0.7,2l0.7,3.3
		l0.7,4c0.7,0.7,0.7,2,1.3,3.3c0.7,1.3,1.3,2,1.3,2.7l0.7,1.3v0.7h-0.7c-0.7-0.7-0.7-0.7-1.3-0.7h-0.7c-1.3,0-1.3,1.3-1.3,6.7
		c0,3.3,0.7,8,1.3,10l2,4.7c0,0.7,0.7,1.3,0.7,2c0,6-8.7,15.4-17.4,20c-3.3,1.3-4,3.3-4.7,7.4c2-0.7,2-0.7,3.3-0.7
		c2-0.7,2.7-1.3,3.3-2.7v-0.7c0-0.7,0.7-0.7,2-2c0.7,0,1.3-0.7,1.3-0.7l1.3-1.3v0.7l-0.7,2.7v0.7c0,1.3,0.7,2.7,2.7,4v-1.3
		c0.7-1.3,0.7-2,1.3-2.7l1.3-2c0.7-0.7,0.7-1.3,0.7-3.3v-3.3c0-0.7,0-0.7,0.7-0.7l0.7,2h0.7c0.7,0,2-0.7,2.7-2.7
		c0.7-0.7,0.7-1.3,0.7-2v-2.7c0-0.7,0-1.3,0.7-1.3v0.7l0.7,2c0.7,0.7,0.7,0.7,1.3,0.7c1.3,0,2.7-2.7,2.7-5.3c0-1.3,0-2,0.7-2h0.7
		v1.3c0.7,0,0.7,0.7,0.7,0.7c0.7,0,0.7-0.7,1.3-1.3c0-0.7,0.7-0.7,0.7-1.3v-0.7c0-0.7,0-0.7-0.7-0.7c-0.7-0.7-0.7-1.3-0.7-2
		c0-1.3,0.7-2.7,2-5.3c1.3-2,1.3-2.7,2-2.7c0,0,0.7,0.7,0.7,1.3c0,0-0.7,0-0.7,0.7v0.7c0,0.7,0,0.7,0.7,0.7c0,0,0.7,0,1.3-0.7
		c0.7,0,1.3,0,2-0.7c2-0.7,2.7-0.7,3.3-1.3h2.7c1.3,0.7,2,0.7,2,0.7c0.7,0,1.3-0.7,1.3-1.3s0-1.3-0.7-1.3c0-0.7-0.7-1.3-0.7-1.3
		v-1.3c0.7,0,2,1.3,3.3,3.3c6.7,10.7,9.4,14,14.7,15.4c4.7,1.3,6,2.7,6,5.3c0,1.3-0.7,3.3-2.7,6c-3.3,4.7-4.7,7.4-4.7,10v0.7h1.3
		c0.7-0.7,0.7-0.7,1.3-0.7l2-0.7c0.7,0,0.7-0.7,0.7-1.3v-2.7c0-0.7,0.7-2,1.3-2l0.7,0.7l1.3,2.7C243.2,89.5,243.9,90.2,245.2,90.9
		L245.2,90.9z M177.1,34.1v2c0,0.7,0.2,1.4,0.7,2c0.7,0,1.3-0.7,2-2c0-0.7,0.7-2,0.7-2c0-0.7-0.7-1.3-0.7-2
		c-0.7-0.7-0.7-1.3-1.3-1.3C177.7,30.7,177.7,32.1,177.1,34.1z"/>
	<path class="st2" d="M171,18.1v0.7c0,0.7-0.7,2-0.7,3.3c-0.7,1.3-0.7,2-0.7,2v1.3c0,1.3,0.7,2.7,1.3,2.7l0.7,0.7l0.7,1.3
		c-0.7,0,0,0.7,0,2v3.3c0,0-0.7-1.3-1.3-2c-0.7-2-1.3-3.3-2.7-3.3c-0.7,0-1.3,0.7-2.7,0.7c1.3,1.3,1.3,2.7,2.7,4.7
		c1.3,2.7,2,3.3,4,4.7l0.7,0.7l-0.7,0.7H171l-0.7-0.7c0,0-0.7,0.7-0.7,1.3c0,2,2,4.7,5.3,6.7c0,0.7,0.7,0.7,0.7,1.3H175v0.7
		c-0.7,0-0.7-0.7-1.3-0.7H173c0,0-0.7,0-0.7,0.7s0.7,2,2,4c0.5,1.2,1.5,2.1,2.7,2.7l3.3,1.3c0.7,0,0.7,0.7,0.7,0.7l-0.7,0.7H177
		c0,0.7,0.7,1.3,1.3,2.7c0.7,2,1.3,2.7,2,2.7c0,0,0.7,0,0.7-0.7l0.7-2c0,0,0.7-0.7,2-1.3c1.3-0.7,2-0.7,2.7-0.7c2-0.7,2-0.7,2-1.3
		v-2c0,0-0.7-0.7-0.7-1.3v-3.3c0-0.7,0-0.7-0.7-0.7l-0.7,0.7c-0.7,1.3-2,2.7-3.3,2.7c-4.7,0-8-8-8-18.7v-3.3l0.7-3.3v-2
		c0-2.7-1.3-6.7-2.7-8l-1.3-1.3L171,18.1L171,18.1z M181.7,78.9l-4-1.3c-1.3-0.7-2.7-1.3-3.3-1.3c-1.3,0-2,0.7-3.3,2h0.7l1.3,1.3
		l2,1.3c0,0,0.7,0.7,1.3,0.7C177.7,81.5,179.1,80.9,181.7,78.9L181.7,78.9z M213.1,93.6c0.7-0.7,0.7-1.3,2-2c2-2,3.3-3.3,3.3-4.7v-2
		c0-0.7,0-1.3,0.7-1.3h0.7l0.7,1.3c0,0,0,0.7,0.7,0.7c0,0,0.7-0.7,2-2.7c0-0.7,0.7-0.7,0.7-1.3c0-0.7-0.7-0.7-0.7-0.7
		c0-0.7,0-0.7-0.7-1.3v-1.3c0-0.7,0-1.3,0.7-1.3c0,0,0.7,0,0.7,0.7l0.7,0.7c0.7,0,1.3,0,1.3-0.7l0.7-1.3v-0.7c0,0,0-0.7-0.7-0.7
		l-0.7-0.7c-1.3-0.7-2.7-2.7-2.7-4.7v-1.3l0.7-1.3v-1.3c0-0.7,0-2-0.7-2.7s-0.7-1.3-0.7-2c-0.7-0.7-0.7-1.3-1.3-1.3
		c0,0-0.7,0-1.3,0.7h-0.7l-1.3,1.3l-0.7,0.7c-0.8,0.9-1.3,2.1-1.3,3.3c0,2,0,2.7,2.7,7.4c1.3,2,2,4,2,4.7c0,3.3-3.3,6-9.4,7.4
		c-6.7,1.3-8,2.7-8.7,6.7c1.3-0.7,1.3-0.7,3.3-0.7h1.3c1.3,0,1.3,0,2-0.7l2.7-2.7l1.3-0.7h1.3l0.7-0.7v0.7c0,0,0,0.7-0.7,1.3
		c-0.7,1.3-1.3,2-1.3,2.7C212.5,92.2,212.5,92.9,213.1,93.6L213.1,93.6z"/>
	<path class="st2" d="M203.1,80.9c0.7,0.7,2,1.3,2.7,2c0.7,1.3,0.7,1.3,1.3,1.3h1.3l0.7-0.7c1.3,0,2,0,2-0.7l-0.7-0.7l-0.7-0.7
		l-1.3-0.7c0-0.7-1.3-1.3-2.7-1.3C205.1,79.5,204.4,80.2,203.1,80.9L203.1,80.9z M229.8,85.5l0.7-0.7h1.3l0.7,0.7
		c0.7,0,1.3-0.7,1.3-0.7c0.7-0.7,1.3-1.3,1.3-2c0.7,0,0.7-0.7,0.7-0.7c0-0.7-0.6-1.3-1.3-1.3C231.8,80.9,230.5,82.2,229.8,85.5
		L229.8,85.5z M82.2,260.6l0.7-1.3l1.3-1.3c0.7-0.7,1.3-2,1.3-4v-2.7c-0.7-0.7-0.7-1.3-0.7-1.3c0-0.7,0.7-1.3,0.7-1.3
		c0.7,0,0.7,0.7,0.7,0.7l1.3,1.3c0.7,0.7,1.3,1.3,2,1.3v-2.7c0-2-0.7-4-1.3-5.3c-0.7-1.3-1.3-1.3-1.3-2c0,0,0-0.7,0.7-0.7v0.7
		l1.3,0.7c0.7,0,1.3-1.3,1.3-2c0.1-1.8-0.7-3.5-2-4.7c-0.7-0.7-0.7-1.3-0.7-1.3c-0.7,0-0.7-0.7-0.7-0.7l0.7-0.7c0.7,0,0.7,0,1.3,0.7
		h0.7c0.7,0,0.7-0.7,0.7-3.3v-2c0-2,0-2.7-0.7-2.7h-0.7c-4,0-6-2-7.4-9.4c-0.7-4.7-2.7-8-4.7-9.3c-1.3,0-2-0.7-2-0.7
		c0-0.7,0.7-0.7,0.7-0.7c0.7,0,1.3,0,2,0.7c3.3,1.3,6,2,8,2c4,0,7.4-3.3,7.4-6.7s-1.3-6-4-8c-0.7-0.7-1.3-1.3-2-1.3h-0.7l0.7,1.3
		v1.3h-0.7l-2-2.7c-0.7-1.3-3.3-3.3-5.3-3.3c-0.7,0-1.3,0.7-1.3,0.7c0,0.7,0.7,0.7,0.7,1.3c0.4,0.4,0.6,0.8,0.7,1.3v0.7h-0.7l-2-2
		c-1.3-2-4.7-3.3-6-3.3h-0.7v1.3c0.7,0.7,1.3,0.7,1.3,1.3h-0.7c-0.7,0-1.3-0.7-3.3-2c-3.3-2.7-4.7-4.7-4.7-7.4c0-3.3,2.7-6,5.3-6
		c1.3,0,4,0.7,5.3,2l4,3.3c2,1.3,4.7,2,6.7,2h1.3l0.7-0.7c0,0,0-0.7-0.7-0.7c-1.2,0-2.4-0.5-3.3-1.3l-4-3.3c-2-1.3-2.7-2-3.3-2
		c-2.7-1.3-2.7-1.3-2.7-2h1.3l2,1.3c0.7,0,2,0.7,3.3,2c4.7,2.7,6.7,4,9.4,4c2.7,0,4-2,4-4.7v-1.3l-0.7-0.7v-0.7L90,173v1.3
		c0,0.7,0,0.7-0.7,0.7v1.3h-2c-1.3,0-2.7-0.7-6.7-2.7c-3.3-2.7-7.3-4-10-4c-5.8-0.1-10.6,4.6-10.7,10.4c0,0.1,0,0.2,0,0.3
		c0,8.7,4.7,12,20.7,15.4c6,1.3,8.7,3.3,8.7,6s-2,4-4.7,4h-2.7c-0.7,0-3.3-1.3-8.7-2.7c-3.3-0.7-7.4-1.3-10.7-1.3
		c-6,0-10.7,2-13.4,6c-0.7,0-0.7,0.7-0.7,0.7c-0.7,0-0.7,0-0.7-0.7l-1.3-0.7c-0.9-0.8-2.1-1.3-3.3-1.3c-0.7,0-0.7,0.7-1.3,0.7
		l-0.7,0.7c-0.7,0-1.3-0.7-2-2c-1.3-1.8-2-3.8-2-6c0-0.7,0.7-1.3,0.7-1.3c0.7,0,0.7,0,0.7,0.7l0.7,2.7c0.7,1.3,1.3,2,2,2
		c0,0,0.7,0,1.3-0.7c0-0.7,0-0.7,0.7-1.3c0-1.3,0.7-2,0.7-2c0.7,0,0.7,0.7,1.3,2c0,0.7,0,0.7,0.7,1.3c0,0.7,0.7,1.3,0.7,2h0.7
		c1.3,0,2-1.3,2-2.7h-0.7v-1.3c0-0.7,0-1.3,0.7-1.3l0.7,0.7c0,0.7,0.7,0.7,1.3,1.3h2v-0.7c0-0.7,0-0.7-0.7-2c-0.7,0-1.3-1.3-2-2.7
		c0-0.7-0.7-1.3-0.7-1.3h-0.7l-0.7,0.7h-2c0-0.7,0.7-1.3,2-2c0.7-0.7,0.7-1.3,0.7-2.7c0-1.3,0.7-2.7,0.7-2.7v-2.7
		c0.7-1.3,1.3-4,1.3-5.4c0-0.7,0.7-0.7,0.7-0.7v2.7c0,0.7,0.7,1.3,0.7,1.3c0.7,0,0.7-0.7,1.3-1.3l0.7-2v-1.3c0-2-0.7-2.7-2-2.7h-1.3
		c0,0-0.7-0.7-0.7-1.3v-2.7l-0.7-1.3V169l-0.7,0.7l-0.7,0.7l-1.3,1.3l-1.3,0.7h-0.7c-0.7,0-0.7,0-0.7-1.3s0-2-2-4l-0.7-0.7v0.7
		l-0.7,1.3l-1.3,2.7v1.3c0,0.7,0,0.7-0.7,0.7l-0.7-0.7c-1.3-1.3-1.3-1.3-3.3-2v0.7c-0.7,0.7-0.7,1.3-0.7,1.3v2.7
		c0,0.7,0,0.7-0.7,0.7H33c0-0.7-0.7-0.7-0.7-0.7c-2,0-2.7,1.3-2.7,2.7c0,0.7,0.7,1.3,2,4l1.3,1.3c0.7,0,0.7,0,0.7-0.7v-1.3
		c0-0.7-0.7-0.7-0.7-1.3l0.7-0.7c0.7,0,1.3,2,2,5.4v2.7c0,1.3,0.7,2.7,1.3,3.3c0.7,2,1.3,2.7,2,3.3c0.7,0.7,1.3,1.3,1.3,1.3
		c0,0.7,0,0.7-0.7,0.7c0,0-0.7,0-1.3-0.7H38c-2,0-2.7,0.7-2.7,4s2.7,8,5.3,10l3.3,3.3c2,1.3,4,4,4,6s-2.7,4.7-7.4,6l-2.7,1.3
		c-2.7,0.7-3.3,2-4,6c1.3,0,1.3-0.7,2-0.7l0.7,0.7H38c0.7,0,2-0.7,2-2V229c0,0,0-0.7,0.7-0.7l0.7-0.7l1.3-0.7h0.7v1.3
		c0,0.7-0.7,1.3-0.7,2.7c0,2,0.7,2.7,1.3,4.7c0-0.7,0.7-1.3,0.7-1.3c0-0.7,0.7-1.3,1.3-2c1.3-2,2-4,2-5.4v-2v-1.3h0.7
		c0.7,0,0.7,0,0.7,0.7l0.7,0.7c0.7,0,1.3-0.7,1.3-1.3c0-0.7,0.7-1.3,0.7-2c0,0,0-0.7-0.7-0.7v-1.3l0.7-0.7c0,0,0.7,0,0.7,0.7h0.7
		c0,0.7,0.7,0.7,0.7,0.7l1.3-1.3c0.7-0.7,0.7-2,0.7-2v-0.7c-2-1.3-3.3-3.3-3.3-4.7c0,0,0.7-0.7,0.7-1.3l0.7-2c0.7-1.3,0.7-2,0.7-2
		c0.7,0,0.7,0,0.7,0.7v1.3c-0.7,0-0.7,0.7-0.7,1.3c0,0.7,0.7,0.7,1.3,0.7h1.3c2-1.3,4-2,5.3-2s2,0.7,3.3,1.3h1.3V209
		c0,0,0-0.7-0.7-0.7c-0.7-0.7-0.7-1.3-0.7-1.3c0-0.7,0-0.7,0.7-0.7c1.3,0,3.3,4,5.3,10.7c1.3,5.3,2,6,6.7,8.7c4,2,6,4.7,6,8
		c0,4-1.3,8.7-3.3,15.4c-0.7,2-1.3,3.3-1.3,4c0,1.3,0.7,2,1.3,4c0,1.3,0,2,0.7,2C82.2,259.3,82.2,259.9,82.2,260.6L82.2,260.6z"/>
	<path class="st2" d="M63.5,248.6c0-0.7,0.7-1.3,1.3-2.7c1.3-2,2-2.7,2-4v-1.3c0-1.3,0-2,0.7-2c0,0,0,0.7,0.7,0.7v0.7h0.7
		c0,0,0.7,0,0.7-0.7c0.7-0.7,1.3-2,1.3-2.7v-2c0-0.7,0-0.7,0.7-0.7l0.7,0.7c0,0.7,0,0.7,0.7,0.7l0.7-0.7l0.7-0.7v-0.7l0.7-0.7
		l-0.7-0.7c-2-1.3-2.7-2.7-2.7-6v-4.7c0,0-0.7-1.3-2-3.3c0-0.7-0.7-2-0.7-2.7c0-1.3-0.7-1.3-1.3-1.3c-2,0-4,2-4,4.7
		c0,1.3,0.7,4,2,6.7c1.3,4,2,5.3,2,6.7c0,3.3-1.3,4.7-5.3,6c-4.7,1.3-6.7,4-8,8.7c0.7-0.7,0.7-0.7,1.3-0.7h0.7l1.3-0.7
		c1.3,0,2-0.7,2.7-1.3v-1.3c0,0,0-0.7,0.7-0.7h0.7l0.7-0.7v3.3C62.1,246.6,62.1,247.2,63.5,248.6L63.5,248.6z M18.7,172.4v4.7
		c0,1.3,0,2.7,0.7,4v3.3l-0.7-0.7c-1.3-0.7-2-1.3-3.3-1.3H14l0.7,1.3l0.7,2.7l2,2.7l2,1.3l0.7,0.7v0.7h-2c0,0-0.7,0-0.7,0.7
		c0,0,0.7,0.7,0.7,2l1.3,2.7l1.3,1.3l1.3,0.7c0.7,0.7,0.7,0.7,0.7,1.3v0.7h-1.3v0.7c0,0.7,0.7,1.3,1.3,3.3c1.3,1.3,2,2,4,2h0.7
		c0.7,0,1.3,0,1.3,0.7s0,0.7-0.7,0.7c-1.3,0.7-2,0.7-2,1.3l0.7,0.7l0.7,0.7c0.7,1.3,1.3,1.3,1.3,1.3c0.7,0,1.3,0,1.3-0.7
		c0.7-0.7,2-1.3,2.7-2c3.3-0.7,3.3-0.7,3.3-1.3v-0.7c-0.7-2-1.3-3.3-1.3-4.7c0-0.7,0-1.3-0.7-1.3l-0.7,0.7c-0.7,0.7-2,1.3-2.7,1.3
		c-2.7,0-6.7-4-8-10c-0.7-1.3-0.7-3.3-0.7-4.7c0-1.3,0-3.3,0.7-4.7c0.7-2.7,0.7-4,0.7-4.7v-0.7C23.4,177.1,21.4,174.4,18.7,172.4
		L18.7,172.4z"/>
	<path class="st2" d="M24.7,183.7c-0.8,1.7-1.2,3.5-1.3,5.4c0,0.7,0.7,2,0.7,2c0.7,0,0.7-0.7,0.7-0.7l0.7-2c0.7,0,0.7,0,0.7-0.7
		c0.7-0.7,0.7-0.7,0.7-1.3S26,184.4,24.7,183.7L24.7,183.7z M34.1,221.2l0.7,0.7c2,2,2,2,2.7,2s2.7,0,3.3-0.7l0.7-0.7
		c0,0-0.7-0.7-1.3-0.7l-0.7-1.3c-0.7,0-1.3-0.7-2-0.7C36.1,219.8,35.4,219.8,34.1,221.2L34.1,221.2z M52.8,235.9
		c1.3,0.7,1.3,0.7,2,1.3c0.7,0,1.3,0.7,1.3,0.7h2l2-0.7l1.3-0.7c0.7,0,1.3-0.7,1.3-0.7s-0.7,0-1.3-0.7h-1.3c-2-1.3-2-1.3-2.7-1.3
		C55.7,233.8,54,234.6,52.8,235.9L52.8,235.9z M74.2,252.6c0.7-1.3,0.7-1.3,2.7-1.3s4-4,4-6.7v-0.7l-0.7,0.7c-0.7,0-0.7,0.7-1.3,0.7
		l-2,0.7c-2,1.3-3.3,3.3-3.3,4.7C73.5,251.2,73.5,251.9,74.2,252.6L74.2,252.6z M225.2,233.2l0.7-1.3v-0.7c0-0.7,0.7-1.3,0.7-2
		c1.3-0.7,1.3-2,1.3-4v-1.3l-0.7-0.7c0,0,0-0.7,0.7-0.7c0,0,0.7,0,0.7,0.7c0.7,0,0.7,0.7,1.3,0.7c0,0,0.7-0.7,0.7-2v-0.7
		c0-0.7,0-1.3-0.7-2v-1.3c0,0,0-0.7,0.7-0.7c0,0,0.7,0.7,0.7,1.3h0.7c0.7,0,1.3-0.7,1.3-2c0-0.7,0.7-0.7,0.7-1.3h-2
		c-1.3,0-3.3-1.3-4.7-2l-2-3.3c-1.3-0.7-2-2.7-2-2.7l-2-1.3c-0.7,0-0.7,0-0.7-0.7h0.7c0.7,0,2,0,4.7,1.3c2,0.7,6,2,8,2
		c4,0,7.3-3.3,7.4-7.4c0-2-0.7-4-3.3-6.7c0-0.7-1.3-1.3-1.3-1.3c-0.7,0-0.7,0.7-0.7,0.7s0,0.7,0.7,0.7v1.3h-0.7
		c-0.7,0-0.7-0.7-1.3-2c-0.7-2-1.3-3.3-4-4l-2.7-1.3c0,0-0.7,0-0.7,0.7l0.7,0.7c0,0.7,0.7,1.3,0.7,2h-0.7c-0.7,0-0.7,0-2-2
		c0-0.7-2-2-3.3-2.7h-2v0.7l0.7,0.7l-0.7,0.7c-0.7,0-2-1.3-3.3-2.7c-1.3-2-2-3.3-2-5.3c0-2.7,2.7-6,6.7-6c0.7,0,1.3,0.7,2,0.7
		l2.7,1.3l3.3,2.7c2,0.7,4.7,2,6.7,2c0,0,0.7,0,2-0.7c1.3,0,1.3-0.7,1.3-0.7l-2-0.7c-0.7,0-3.3-0.7-5.3-2l-3.3-2.7l-3.3-1.3
		c-0.7,0-0.7,0-0.7-0.7h1.3l3.3,0.7c0.7,0.7,2,1.3,3.3,2c4,2,6,2.7,8,2.7c1.3,0,2.7-1.3,2.7-3.3v-2c0-0.7,0-0.7-0.7-1.3
		c-0.7,0-0.7,0-0.7,0.7v0.7c0,2-0.7,2-2,2s-3.3,0-7.4-2c-4-1.3-6.7-2-9.4-2c-6,0-11.4,5.3-11.4,10.7c0,5.3,3.3,8.7,10,12l7.4,2.7
		c5.3,2.7,7.4,4,7.4,6.7c0,1.3-1.3,2.7-4,2.7c-1.3,0-2.7,0-5.3-1.3c-6.7-2-11.4-2.7-14.7-2.7c-6,0-10.7,1.3-14,5.4
		c-0.7,0.7-0.7,0.7-1.3,0.7c0,0-0.7,0-1.3-0.7c-0.7,0-1.3-0.7-1.3-0.7c-0.7,0-2,0.7-2,1.3l-1.3,1.3h-0.7c-0.7,0-1.3-0.7-2-2
		c-0.7-0.7-0.7-1.3-1.3-2v-4l0.7-1.3v-2h0.7c0,0,0.7,0.7,0.7,1.3v0.7c0,2.7,0.7,4.7,2,4.7c0.7,0,1.3-1.3,2-4c0-0.7,0-1.3,0.7-1.3
		c0,0,0,0.7,0.7,2c0,0.7,0.7,2,1.3,2.7l0.7,0.7c0.7,0,1.3-1.3,1.3-3.3c0-1.3,0.7-2,0.7-2c0.7,0,0.7,0,0.7,0.7l0.7,0.7l0.7,0.7
		c0.7,0.7,0.7,0.7,1.3,0.7l0.7-0.7l0.7-0.7c0,0-0.7,0-0.7-0.7c-0.7-0.7-1.3-1.3-1.3-2.7c-0.7-0.7-0.7-1.3-1.3-2V195h-0.7
		c0,0-0.7,0.7-2,0.7h-0.7c0-0.7,0-0.7,0.7-1.3c2-1.3,3.3-4.7,3.3-8.7c0.7-2,0.7-3.3,2-4.7l0.7-0.7v4l0.7-0.7l1.3-0.7
		c0.7-0.7,1.3-2.7,1.3-3.3c0-1.3-0.7-1.3-0.7-2l-1.3-1.3h-0.7l-0.7,0.7c-0.7,0-0.7-0.7-0.7-0.7v-2l-0.7-2v-0.7l-0.7-0.7h-0.7
		l-0.7,0.7l-1.3,1.3l-1.3,1.3h-0.7v-0.7v-2c-0.1-1.7-0.8-3.4-2-4.7c-2,2-2.7,3.3-2.7,5.3v1.3h-0.7h-0.7l-0.7-1.3l-1.3-1.3
		c0,0-0.7,0-0.7-0.7l-0.7,0.7c-0.7,2-0.7,2.7-0.7,4s-0.7,1.3-0.7,1.3H186c-1.3-0.7-1.3-0.7-2-0.7c-1.3,0-2,1.3-2,2.7
		c0,0.7,0,1.3,0.7,2.7c0.7,1.3,2,2.7,2.7,2.7v-3.3v-0.7c0.7,0,1.3,2.7,2,6.7s1.3,6.7,3.3,8c0.7,0.7,0.7,0.7,0.7,1.3h-0.7l-0.7-0.7
		h-1.3c-0.7,0-1.3,0.7-1.3,2l-1.3,4.7v6.7c-0.7,1.3,0,2.7,0,4.7c0.7,2,0.7,3.3,0.7,4c0,5.4-2.7,9.4-8,10.7l-5.3,1.3
		c-3.3,1.3-4.7,3.3-5.3,7.4c0.7-0.7,1.3-0.7,2.7-1.3h1.3c0.7,0,1.3,0,1.3-0.7c0,0,0.7,0,0.7-0.7l1.3-1.3l1.3-1.3
		c0.7,0,0.7,0.7,0.7,0.7c0,0.7,0,0.7-0.7,1.3c0,0.7-0.7,1.3-0.7,2c0,1.3,0.7,2,1.3,3.3c0-0.7,0.7-0.7,0.7-0.7c0-0.7,0.7-1.3,1.3-2
		c0.7-1.3,2-2.7,2-3.3v-2c0.7,0,0.7,0,0.7,0.7v0.7h1.3c0.7-0.7,1.3-0.7,1.3-1.3c0.7,0,0.7-0.7,0.7-1.3c0.7-0.7,0.7-1.3,0.7-1.3v-2
		c0.7,0,0.7,0.7,1.3,1.3h1.3c0.7-1.3,1.3-2.7,1.3-3.3v-1.3l-0.7-1.3c0-0.7,0.7-0.7,0.7-0.7c0.7,0,0.7,0.7,1.3,2l0.7,0.7
		c0.7,0,0.7-0.7,1.3-1.3l1.3-1.3v-0.7v-0.7l-0.7-1.3c-0.7,0-0.7-0.7-0.7-0.7c0-1.3,0.7-2.7,1.3-4c0.7-1.3,1.3-2,1.3-2v-0.7
		c0.7,0,0.7,0.7,0.7,0.7v2c0,0.7,0,0.7,0.7,0.7h0.7l2-1.3c0.7,0,1.3,0,2-0.7c3.3-2,4-2,6-2c0.7,0,2,0,4,1.3h0.7c0,0,0.7,0,0.7-0.7
		v-1.3c0-0.7-0.7-1.3-0.7-1.3s0-0.7,0.7-0.7c0,0,0,0.7,0.7,0.7c0,0.7,0.7,1.3,2,3.3c1.3,2.7,3.3,4.7,5.3,5.3l3.3,0.7
		c1.3,0,1.3,0.7,1.3,2c0,2.7-1.3,4.7-3.3,6l-2.7,2c-1.3,0.7-2,2.7-2,4s0,3.3,0.7,4.7v-0.7l2-0.7l0.7-1.3l0.7-2l0.7-1.3
		c0.7-1.3,0.7-1.3,1.3-1.3v1.3C223.8,230.5,224.5,231.2,225.2,233.2L225.2,233.2z"/>
	<path class="st2" d="M176.4,257.9c0.7-0.7,0.7-0.7,4-1.3c2-0.7,3.3-1.3,3.3-4c0.7-1.3,0.7-2,2-2.7c0.7,0,1.3-0.7,1.3-0.7
		c0-0.7,0.7-0.7,0.7-0.7v0.7c0,0,0,0.7-0.7,1.3v1.3c0,1.3,0,2.7,0.7,3.3c0.7-0.7,1.3-1.3,2-2c2-1.3,2.7-2.7,2.7-5.3
		c0-1.3,0.7-2,0.7-2h0.7l0.7,1.3h0.7c0,0,0.7,0,0.7-0.7l1.3-0.7c0.7-0.7,0.7-2,0.7-3.3c0-0.7,0.7-1.3,0.7-1.3s0.7,0,0.7,0.7l0.7,1.3
		v0.7c0.7,0,0.7,0,0.7-0.7c0.7,0,1.3-0.7,1.3-0.7c0.7-0.7,0.7-1.3,0.7-2v-1.3c0-0.7,0-0.7,0.7-0.7v-0.7c0,0,0.7,0,0.7,0.7v0.7
		l0.7,0.7c0.7,0,1.3-0.7,2-1.3c0,0,0-0.7,0.7-0.7v-1.3c-1.3-1.8-2-3.9-2-6c0-2.7,1.3-4.7,4-9.3c2-2.7,3.3-4.7,3.3-6.7
		c0-0.7,0-0.7-0.7-0.7c0,0-0.7,0-1.3,0.7c-0.7,0-0.7,0-0.7-0.7l-0.7-0.7l-0.7-0.7H208h-1.3c-0.7,0-1.3,0.7-1.3,1.3v0.7
		c0,0.7-0.7,2-1.3,2.7l-1.3,1.3c-2,2-3.3,4.7-3.3,6.7c0,0.7,0,2,0.7,3.3c0.7,2.7,0.7,4,0.7,4.7c0,4-6,9.3-17.4,14.7
		c-5.3,3.3-6.7,4.7-6.7,8.7L176.4,257.9L176.4,257.9L176.4,257.9z M171,171.1v2c0,0.7-0.7,0.7-0.7,1.3v2c0,1.3,0,2,1.3,4
		c0,0.7,0.7,2,0.7,2.7s0,0.7-0.7,0.7l-0.7-1.3c-0.7-0.7-1.3-0.7-2.7-0.7H167c0.5,0.8,0.7,1.7,0.7,2.7c0.7,2.7,1.3,3.3,2.7,4.7
		c1.3,1.3,1.3,1.3,1.3,2c0,0,0,0.7-0.7,0.7v-0.7h-0.7c-0.7,0-0.7,1.3-0.7,2s0,1.3,0.7,2v1.3l1.3,0.7v0.7c0,0.7,0,0.7-0.7,0.7h-0.7
		h-0.7v1.3l0.7,2.7c0,0,0,0.7,0.7,1.3l1.3,1.3c0.7,0,1.3,0.7,1.3,0.7s0.7,0,0.7,0.7l-0.7,0.7l-0.7-0.7h-1.3c-0.7,0-0.7,0-0.7,0.7
		v1.3l0.7,1.3c0,1.3,0.7,2,1.3,2h0.7c0.7-1.3,3.3-2,4.7-2c2,0,3.3,0.7,4,0.7h0.7c0.7,0,0.7,0,0.7-0.7v-1.3l0.7-2.7v-3.3l-0.7,0.7
		c-1.3,1.3-2.7,2-4,2c-3.3,0-6-4.7-6-12c0-3.3,0.7-7.4,1.3-12.7c0.7-0.7,0.7-1.3,0.7-2C175.7,175.7,173.7,173.1,171,171.1L171,171.1
		z"/>
	<path class="st2" d="M176.4,189.8l0.7-0.7l0.7-0.7c0.7-0.7,1.3-2,1.3-2.7s0-0.7-0.7-1.3c0-0.7-0.7-1.3-0.7-1.3
		c-0.7,0-0.7,0.7-0.7,2l-0.7,1.3L176.4,189.8L176.4,189.8z M169,223.8c0.7,0,1.3,0,2,1.3c1.3,1.3,2,1.3,3.3,1.3h2l0.7-0.7h0.7
		c0-0.7-0.7-1.3-1.3-2c-0.7,0-1.3-0.7-2-0.7c-0.7-0.7-1.3-0.7-2-0.7C171,222.5,170.4,222.5,169,223.8L169,223.8z M180.4,247.9
		c1.3-0.7,2-0.7,3.3-2c2-0.7,2.7-1.3,2.7-1.3c1.3-0.7,2-1.3,2-1.3c0-0.7-0.7-1.3-2-1.3c-3.3,0-6,2.7-6,5.4V247.9L180.4,247.9
		L180.4,247.9z M213.8,226.5h4l0.7-0.7l1.3-1.3c1.3-0.7,2-0.7,2-1.3s-0.7-0.7-2-0.7C217.1,222.5,215.1,223.8,213.8,226.5
		L213.8,226.5z"/>
	<path d="M44.1,26.7L43.4,26v-0.7c0-0.7,0.7-1.3,1.3-1.3c1.3-0.7,2-1.3,2.7-2l1.3-0.7V22c0,0.7-0.7,2.7-2,4.7
		c-0.7,2-1.3,2.7-1.3,2.7c-0.7,0-1.3-0.7-1.3-1.3V26.7L44.1,26.7L44.1,26.7z M39.4,23.4l1.3,1.3c0,0,0.7,0,0.7,0.7h-0.7v2
		c0,1.3-0.7,1.3-1.3,1.3c-0.7,0,0,0-0.7-0.7l-2-2c-0.7-0.7-1.3-2-1.3-4c0-0.7,0-0.7,0.7-0.7c0,0,0.7,0,0.7,0.7L39.4,23.4L39.4,23.4z
		 M44.1,32.1l1.3-0.7h0.7c1.3,0,1.3,0.7,1.3,1.3c0,1.3-0.7,2-2.7,6.7c-0.7,1.3-0.7,2.7-2,2.7s-2-1.3-3.3-3.3l-0.7-2.7
		c-0.7-2-1.3-2.7-1.3-4c0,0,0.7-0.7,1.3-0.7H40l0.7,0.7H44.1L44.1,32.1z M199.1,27.4l-0.7-1.3v-0.7c0-0.7,0-1.3,1.3-1.3
		c0.7-0.7,2-1.3,2.7-2l0.7-0.7c0.7,0,0.7,0,0.7,0.7s-1.3,2.7-2,4.7c-1.3,1.3-1.3,2.7-2,2.7s-0.7-0.7-0.7-1.3V27.4L199.1,27.4
		L199.1,27.4z M193.8,23.4l1.3,1.3c0.7,0,0.7,0,0.7,0.7v2l-0.7,1.3c0,0,0,0.7-0.7,0.7l-1.3-1.3l-1.3-2l-1.3-2.7v-1.3v-0.7
		c0.7,0,0.7,0,1.3,0.7L193.8,23.4L193.8,23.4z M199.1,32.1l1.3-0.7c1.3,0,2,0.7,2,2c0,0.7-0.7,1.3-1.3,2l-0.7,4
		c-0.7,2-2,2.7-2.7,2.7c-1.3,0-2.7-1.3-3.3-3.3c-0.7-1.3-0.7-2-1.3-2.7c-0.7-1.3-0.7-2.7-0.7-3.3s0.7-1.3,1.3-1.3h0.7
		c0.3,0.4,0.8,0.6,1.3,0.7L199.1,32.1L199.1,32.1L199.1,32.1z M36.7,178.4v-1.3H38c0,0.7,0.7,0.7,0.7,0.7c2.7,0.7,3.3,0.7,3.3,2
		l-0.7,1.3v1.3c0,0.7,0,0.7-0.7,0.7c0,0-1.3-0.7-2-1.3l-0.7-1.3L36.7,178.4z M47.4,180.4l-1.3,2l-0.7,0.7c-0.7,0-0.7-1.3-0.7-2v-2
		c0-0.7,0-0.7,1.3-0.7c0.7-0.7,1.3-0.7,1.3-0.7l1.3-0.7h0.7l-0.7,1.3L47.4,180.4z M44.8,186.4l1.3-0.7h0.7c0.7,0,1.3,0,1.3,1.3
		c0,0.7-0.7,2-2,4c-0.7,2-2,3.3-2.7,3.3c-1.3,0-2.7-2-4.7-5.3c0-0.7-0.7-1.3-0.7-2c0-1.3,0.7-2,1.3-2c0.7,0,0.7,0,1.3,0.7h0.7
		c0.7,0.7,1.3,0.7,2,0.7H44.8L44.8,186.4z M189.1,176.4l1.3,0.7c0.7,0.7,0.7,0.7,1.3,0.7c1.3,0.7,2,0.7,2,1.3c0,0,0,0.7-0.7,1.3v0.7
		c0,1.3-0.7,1.3-1.3,1.3c-0.7,0-1.3-0.7-2-2c-0.7-0.7-0.7-2.7-1.3-3.3v-0.7H189.1L189.1,176.4z M200.4,179.1l-2,2
		c-0.7,0.7-0.7,2-0.7,2h-1.3c0,0-0.7,0-0.7-0.7v-2.7c0-0.7,0-1.3,0.7-1.3l2-0.7l1.3-0.7h1.3v0.7L200.4,179.1L200.4,179.1z
		 M191.7,185.1l1.3,0.7h3.3l0.7-0.7h0.7c0.7,0,1.3,0.7,1.3,1.3c0,1.3-0.7,2.7-2,4l-1.3,2c-0.7,1.3-1.3,1.3-1.3,1.3
		c-1.3,0-2,0-3.3-3.3c-0.7-2-1.3-3.3-1.3-4c0-1.3,0.7-2,1.3-2C191.1,184.4,191.7,184.4,191.7,185.1L191.7,185.1z"/>
	<path class="st2" d="M42.1,34.7h-1.3v2.7l0.7,1.3c0,1.3,0.7,1.3,1.3,1.3c0.7,0,1.3,0,1.3-1.3v-2v-1.3v-0.7H42.1z M197.1,34.7h-1.3
		c0,0.7-0.7,0.7-0.7,0.7l0.7,2l0.7,1.3c0,1.3,0,1.3,0.7,1.3s1.3,0,1.3-1.3l0.7-2v-1.3v-0.7H197.1L197.1,34.7z M42.7,188.4H42
		c-0.7,0-0.7,0-0.7,0.7s0.7,2.7,1.3,3.3c0,0.7,0.7,0.7,0.7,0.7c0.7,0,0.7-1.3,1.3-2.7v-1.3c0-0.7,0-0.7-0.7-0.7H42.7z M193.1,189.1
		v2c0,0.7,0.7,1.3,1.3,1.3s1.3-1.3,1.3-2.7v-1.3c0-0.7,0-0.7-0.7-0.7h-1.3C193.1,187.8,193.1,187.8,193.1,189.1z"/>
	<path d="M99.5,108.9h8.7c1.3-2,2.7-2.7,4.7-2.7s3.3,0.7,4.7,2.7h6.7c1.3-2,2.7-2.7,4.7-2.7c2,0,4,1.3,4.7,2.7h6.7
		c1.3-2,2.7-2.7,4.7-2.7c1.3,0,3.3,0.7,4,2l0.7,0.7h9.4v43.4h-8v16h-10v-16h-24v16h-9.4v-16.7h-8v-42.7H99.5z"/>
	<path class="st1" d="M102.9,149h52.8v-36.8h-52.8C102.9,112.2,102.9,149,102.9,149z"/>
	<path class="st3" d="M108.2,120.9c-1.3,0-2,1.3-2,2.7s0.7,2,2,2s2.7-0.7,2.7-2C110.9,122.3,109.6,120.9,108.2,120.9z M149.7,120.9
		c-1.3,0-2,1.3-2,2.7s0.7,2,2,2s2.7-0.7,2.7-2C152.3,122.3,151,120.9,149.7,120.9z M108.2,140.3c-1.3,0-2,1.3-2,2.7s0.7,2.7,2,2.7
		s2.7-1.3,2.7-2.7C110.8,141.6,109.7,140.4,108.2,140.3z M149.7,140.3c-1.3,0-2,1.3-2,2.7s0.7,2.7,2,2.7c1.4-0.1,2.6-1.2,2.7-2.7
		C152.2,141.6,151.1,140.4,149.7,140.3z"/>
	<path class="st2" d="M116.3,133c3.3,4,8,6,13.4,6c4.7,0,8-1.3,12-6c-4-4-8-6-12.7-6C124.3,127,119.6,129,116.3,133z"/>
	<path d="M118.9,133c3.3-2.7,6.7-4,10-4c4,0,6.7,1.3,10,4c-3.3,3.3-6,4-10,4S121.6,135.6,118.9,133z"/>
	<path class="st2" d="M122.9,132.3c2,1.3,4,1.3,6,1.3s4,0,6-1.3c-2-1.3-4-2-6-2S124.9,131,122.9,132.3z"/>
	<path d="M102.2,116.3h54.1v-2h-54.1C102.2,114.3,102.2,116.3,102.2,116.3z"/>
	<path class="st2" d="M110.2,112.3v4.7c0,1.3,1.3,2.7,2.7,2.7s2-0.7,2-2.7v-4.7c0-2-0.7-3.3-2-3.3h-0.7l-0.7,0.7
		c-0.7,0-0.7,0.7-0.7,0.7c0,0.7-0.7,0.7-0.7,0.7L110.2,112.3L110.2,112.3L110.2,112.3z M126.9,116.3v0.7c0,1.3,0.7,2.7,2,2.7
		s2.7-0.7,2.7-2.7v-4.7c0-2-1.3-3.3-2-3.3c-2,0-2.7,1.3-2.7,3.3C126.9,112.3,126.9,116.3,126.9,116.3z M143,112.3v4.7
		c0,1.3,0.7,2.7,2,2.7s2-0.7,2-2.7v-4.7c0-2-0.7-3.3-2-3.3h-0.7l-0.7,0.7c-0.7,0-0.7,0.7-0.7,0.7L143,112.3L143,112.3z M109.6,162.4
		h4.7v-6.7h-4.7V162.4z M109.6,165.7h4.7v-2h-4.7V165.7z M143,162.4h4.7v-6.7H143V162.4z M143,165.7h4.7v-2H143V165.7z"/>
	<path d="M335.4,20.7c0-10.7-5.3-10.7-10.7-10.7h-2V6c6,0,14,0.7,22.7,0.7S360.8,6,366.8,6v4h-2c-5.3,0-11.4,0-11.4,10.7v48.8
		c0,17.4,6.7,30.1,26.7,30.1c18.7,0,27.4-12,27.4-30.7V20.7c0-10.7-5.3-10.7-10.7-10.7h-2.7V6c6,0,11.4,0.7,17.4,0.7
		c5.3,0,10.7-0.7,16-0.7v4h-2.7c-4,0-9.4,0-9.4,10.7v44.8c0,32.1-16.7,41.4-38.1,41.4c-26.7,0-42.1-10-42.1-35.4V20.7H335.4z
		 M525.8,76.9V23.4c0-11.4-8-13.4-12-13.4h-3.3V6c6.7,0,13.4,0.7,20,0.7c5.3,0,11.4-0.7,17.4-0.7v4h-2c-6,0-12.7,1.3-12.7,18v64.1
		c0,5.3,0,10,0.7,14.7h-5.3l-72.8-81.5v58.1c0,12.7,2.7,16.7,13.4,16.7h2.7v4h-37.4v-4h2c9.4,0,12.7-6.7,12.7-18V22.7
		c0-8-6.7-12.7-13.4-12.7h-1.3V6c5.3,0,10.7,0.7,16,0.7c4,0,8-0.7,12.7-0.7L525.8,76.9L525.8,76.9z M554.6,100.2h2
		c4.7,0,10-0.7,10-8V18c0-7.4-5.3-8-10-8h-2V6c5.3,0,14,0.7,20.7,0.7c7.4,0,15.4-0.7,22-0.7v4h-2c-4.7,0-10,0.7-10,8v74.2
		c0,7.4,5.3,8,10,8h2v4h-42.8L554.6,100.2L554.6,100.2z M644.8,10h-3.3c-4.7,0-7.4,2-7.4,4c0,0.7,0.7,2.7,1.3,4.7l24.1,62.8h0.7
		l22.7-58.8c1.3-4.7,1.3-6.7,1.3-8c0-4-4-4.7-8.7-4.7h-2.7V6c5.3,0,10.7,0.7,16.7,0.7c4,0,8.7-0.7,12.7-0.7v4h-1.3
		c-2.7,0-5.3,0.7-7.4,5.3c-1.3,2-22,54.1-31.4,77.5c-1.3,4.7-4,9.4-5.3,14h-5.3L615.4,18c-2.7-6.7-5.3-8-11.4-8h-2V6
		c7.4,0,14.7,0.7,22,0.7c6.7,0,16.7-0.7,20.7-0.7L644.8,10L644.8,10L644.8,10z M707.6,100.2h2c5.3,0,10.7-0.7,10.7-8V18
		c0-7.4-5.3-8-10.7-8h-2V6c8.7,0,23.4,0.7,35.4,0.7S769.7,6,779.1,6v21.4l-4,1.3c-0.7-9.4-2-16.7-17.4-16.7h-19.4v37.4H755
		c8.7,0,10.7-5.3,11.4-12.7h4c0,5.3-0.7,10.7-0.7,16.7c0,5.3,0.7,10.7,0.7,16l-4,0.7c-0.7-8.7-1.3-14-11.4-14h-16.7v32.7
		c0,9.4,8,9.4,17.4,9.4c16.7,0,24.1-1.3,28.7-17.4l4,1.3c-2,7.4-4,14.7-5.3,22h-75.5L707.6,100.2L707.6,100.2z M807.8,20.7
		c0-10-5.3-10.7-10-10.7h-2.7V6c4.7,0,13.3,0.7,22,0.7S832.5,6,839.8,6c18,0,33.4,4.7,33.4,24.7c0,12.7-8,20.7-19.4,24.7l24,36.1
		c4,6,6.7,8,14,8.7v4h-27.4c-10.7-14-20.1-29.4-29.4-45.4h-9.4v30.1c0,10.7,5.4,11.4,12,11.4h2v4h-44.8v-4h2.7c5.3,0,10-2,10-7.4
		L807.8,20.7L807.8,20.7z M825.9,53.5h7.4c14,0,21.4-5.3,21.4-22c0-12-8-20.7-20.7-20.7c-4,0-6,0.7-8,0.7v42H825.9z M949.5,26.7
		c-1.3-9.4-7.4-18-16.7-18c-11.4,0-17.4,6.7-17.4,18c0,23.4,42.1,16,42.1,50.1c0,19.4-16,30.1-34.1,30.1c-8,0-15.4-3.3-22.7-6.7
		c-0.7-7.4-1.3-14-2-21.4l4-0.7c1.3,12,8,22.1,22,22.1c9.4,0,17.4-6,17.4-16c0-24.7-42.1-17.4-42.1-51.4c0-18,13.4-28.7,31.4-28.7
		c4,0,16,1.3,20.7,2c0,6.7,0,13.4,1.3,20L949.5,26.7L949.5,26.7z M971.5,100.2h2c4.7,0,10-0.7,10-8V18c0-7.4-5.3-8-10-8h-2V6
		c5.3,0,14,0.7,20.7,0.7c7.4,0,15.4-0.7,22-0.7v4h-2c-4.7,0-10,0.7-10,8v74.2c0,7.4,5.4,8,10,8h2v4h-42.8L971.5,100.2L971.5,100.2z
		 M1036.3,12.7c-10.7,0-11.4,2.7-13.4,13.4h-4c0.7-4,1.3-8,1.3-12c0.7-4,1.3-8,1.3-12h3.3c1.3,4,4.7,4,8.7,4h72.8
		c3.3,0,7.4,0,7.4-4.7l3.3,0.7c-0.7,4-1.3,8-1.3,11.4c-0.7,4-0.7,8-0.7,11.4l-4,2c0-5.3-0.7-14-10.7-14h-22.7v75.5
		c0,10.7,4.7,12,11.4,12h2.7v4H1045v-4h2.7c8,0,12-0.7,12-12V12.7H1036.3L1036.3,12.7z M1164,58.8L1135.3,20c-4-6-6.7-10-13.4-10
		h-1.3V6c7.4,0,14.7,0.7,22,0.7c7.4,0,14-0.7,20.7-0.7v4h-1.3c-4,0-7.4,1.3-7.4,3.3c0,1.3,1.3,3.3,2,4.7l21.4,30.1l18-25.4
		c2-4,4-6.7,4-9.4s-6-3.3-8-3.3h-2.7V6c5.4,0,10.7,0.7,16,0.7c4.7,0,9.3-0.7,14-0.7v4c-5.4,0-9.4,3.3-11.4,6.7L1182,54.1v33.4
		c0,12,4,12.7,11.4,12.7h2.7v4h-46.8v-4h2.7c8.7,0,12-2,12-11.4L1164,58.8L1164,58.8L1164,58.8z M1324.3,4
		c30.1,0,54.1,18.7,54.1,48.8c0,32.1-22.7,54.1-53.5,54.1c-29.4,0-52.8-20.7-52.8-50.8C1272.2,26.7,1294.9,4,1324.3,4z M1327,100.2
		c27.4,0,32.1-24.1,32.1-44.8S1347.7,10,1324.3,10c-24.7,0-32.1,22-32.1,40.8C1292.2,76.2,1303.6,100.2,1327,100.2L1327,100.2z
		 M1418.5,49.5h19.4c7.4,0,9.4-4.7,9.4-12h4c0,5.3-0.7,10-0.7,15.4c0,6,0.7,11.4,0.7,17.4h-4c0-8-2-14-11.4-14h-17.4v36.1
		c0,8,6.7,8,13.3,8h2v4h-46.1v-4h2c5.3,0,10.7-0.7,10.7-8V18c0-7.4-5.4-8-10.7-8h-2V6c8.7,0,23.4,0.7,35.4,0.7s26.7-0.7,36.1-0.7
		v21.4l-4,1.3c-0.7-10-3.3-16.7-14-16.7h-22.7L1418.5,49.5L1418.5,49.5L1418.5,49.5z M437,197.1c-4.7-17.4-12.7-32.1-39.4-32.1
		c-29.4,0-44.8,23.4-44.8,54.8c0,29.4,14.7,59.5,48.8,59.5c18.7,0,31.4-12,36.1-29.4l5.3,0.7c-2.7,9.3-4,19.4-4.7,28.7
		c-10,4.7-24.1,8-40.8,8c-40.1,0-70.2-22-70.2-66.8c0-40.1,32.7-62.8,69.5-62.8c20.7,0,27.4,6,44.1,8.7c0,10,0,20,1.3,30.1
		L437,197.1z M480.4,259.3c-2,6-4,10.7-4,14c0,5.3,7.3,6,13.4,6h2v5.3c-7.4-0.7-14.7-0.7-21.4-0.7s-12.7,0-19.4,0.7v-5.3h1.3
		c6.7,0,12.7-4,15.4-11.4l28.1-82.2c2.7-6.7,6-15.4,6.7-22c6-2,12.7-5.4,16.7-7.4c0-0.7,0.7-0.7,1.3-0.7c0,0,0.7,0,1.3,0.7
		c0,1.3,0.7,2.7,1.3,4.7l32.7,92.9c2,6,4,12.7,6.7,18c2,5.4,6,7.4,11.4,7.4h1.3v5.3c-8-0.7-16-0.7-24.7-0.7s-17.4,0-26.7,0.7v-5.3h2
		c4,0,11.4-0.7,11.4-5.4c0-2-2-6.7-4-12.7l-6.7-20.7h-40.8L480.4,259.3L480.4,259.3z M506.5,180.4h-0.7l-16,50.1h32.7L506.5,180.4z
		 M670.2,253.2l42.1-92.9c5.3,0,12,0.7,18,0.7s12.7-0.7,18.7-0.7v5.4h-1.3c-5.4,0-16,0-16.7,8c0,4.7,0.7,10,1.3,14l6.7,81.5
		c0.7,8.7,4.7,9.3,15.4,10v5.3c-8-0.7-16.7-0.7-25.4-0.7c-10,0-19.4,0-29.4,0.7v-5.3c9.4-0.7,15.4-0.7,15.4-8.7v-8.7l-5.3-74.8
		l-45.4,100.2h-4.7L616.8,189H616l-6,78.2c0,5.4,1.3,8.7,4,10s6,2,11.4,2h2v5.3c-8-0.7-16-0.7-24.1-0.7c-7.3,0-14,0-21.4,0.7v-5.3
		h2.7c14-0.7,14.7-6.7,16-19.4l5.3-49.4c1.3-12.7,2-24.7,2-31.4c0-10-7.4-13.3-15.4-13.3h-2v-5.4c7.4,0,14,0.7,21.4,0.7
		c5.3,0,10.7-0.7,16-0.7L670.2,253.2L670.2,253.2z M765.7,279.3h2.7c6,0,13.3-0.7,13.3-10v-93.5c0-9.3-7.4-10-13.3-10h-2.7v-5.4
		c8,0,18,0.7,28.1,0.7c10,0,20.1-0.7,28.1-0.7c30.1,0,41.4,12,41.4,28.1c0,18-16.7,26.1-32.7,28.7c19.4,0,40.1,10.7,40.1,32.1
		c0,19.4-18.7,35.4-42.1,35.4c-8.7,0-20.1-0.7-31.4-0.7c-10.7,0-23.4,0.7-31.4,0.7L765.7,279.3L765.7,279.3L765.7,279.3z
		 M804.5,263.3c0,12,2,14.7,16,14.7c14.7,0,26.1-12,26.1-28.1c0-19.4-13.4-28.7-30.7-28.7h-11.4L804.5,263.3L804.5,263.3
		L804.5,263.3z M804.5,214.5h8.7c14.7,0,26.1-6,26.1-22.7c0-20.7-12-25.4-24.1-25.4h-10.7V214.5L804.5,214.5z M900,179.1
		c0-12.7-7.4-13.3-12.7-13.3H884v-5.4c6,0,16.7,0.7,27.4,0.7s19.4-0.7,28.7-0.7c22.7,0,42.8,6,42.8,31.4c0,16-10.7,25.4-24.7,31.4
		l30.1,45.4c5.4,7.4,8.7,9.3,17.4,10.7v5.3c-6,0-11.4-0.7-17.4-0.7c-5.3,0-11.4,0.7-16.7,0.7c-14-18-25.4-37.4-36.8-58.1h-12v38.8
		c0,13.3,6.7,14,14.7,14h3.3v5.3c-10.7,0-20.7-0.7-30.7-0.7c-8.7,0-17.4,0.7-26.1,0.7v-5.3h3.3c6.7,0,12.7-3.3,12.7-9.4V179.1
		L900,179.1L900,179.1z M922.8,220.5h8.7c18,0,27.4-6.7,27.4-28.1c0-15.4-10-26.1-26.1-26.1c-5.3,0-7.4,0.7-10,0.7L922.8,220.5
		L922.8,220.5z M1012.9,279.3h2.7c6,0,12.7-0.7,12.7-10v-93.5c0-9.3-6.7-10-12.7-10h-2.7v-5.4c6.7,0,17.4,0.7,26.1,0.7
		c9.4,0,20.1-0.7,28.1-0.7v5.4h-2c-6.7,0-13.3,0.7-13.3,10v93.6c0,9.3,6.7,10,13.3,10h2v5.3c-8.7,0-19.4-0.7-28.1-0.7
		s-19.4,0.7-26.1,0.7V279.3z M1079.8,279.3h2.7c6.7,0,13.4-0.7,13.4-10v-93.5c0-9.3-6.7-10-13.4-10h-2.7v-5.4
		c5.4,0,17.4,0.7,28.7,0.7c11.4,0,21.4-0.7,28.7-0.7c44.1,0,70.8,24.7,70.8,61.5c0,36.1-30.1,64.8-66.2,62.8c-8-0.7-20-0.7-32.7-0.7
		c-12,0-24.7,0.7-29.4,0.7L1079.8,279.3L1079.8,279.3z M1118.5,263.9c0,12.7,5.3,14,18.7,14c30.1,0,46.1-25.4,46.1-52.8
		c0-46.8-24.1-58.8-52.8-58.8c-4,0-8,0.7-12,1.3L1118.5,263.9L1118.5,263.9L1118.5,263.9z M1336.3,195.1
		c-5.3-22.1-20.7-30.1-41.4-30.1c-32.1,0-47.4,24.1-47.4,53.5s14,60.8,48.1,60.8c8,0,17.4-1.3,19.4-3.3v-28.7
		c0-7.4-6.7-9.4-13.4-9.4h-2v-5.3c8.7,0.7,17.4,0.7,26.7,0.7c8,0,15.4,0,23.4-0.7v5.3h-2c-6.7,0-10,2.7-10,9.4V274l4.7,2.7v2.7
		c-16,4.7-31.4,8-50.1,8c-40.1,0-70.2-24.1-70.2-66.8c0-41.4,35.4-62.8,71.5-62.8c11.4,0,18.7,1.3,25.4,3.3
		c7.4,1.3,13.3,2.7,20.7,3.3c0,6,0,20.1,2,30.1L1336.3,195.1L1336.3,195.1z M1359.1,279.3h2c6.7,0,13.4-0.7,13.4-10v-93.5
		c0-9.3-6.7-10-13.4-10h-2v-5.4c10.7,0,29.4,0.7,44.1,0.7s33.4-0.7,45.4-0.7c0,7.4,0,19.4,0.7,27.4l-5.3,1.3
		c-1.3-12-3.3-21.4-22-21.4h-24.7v46.8h21.4c10.7,0,12.7-6,14-15.4h5.3c-0.7,6.7-0.7,14-0.7,20.7s0,13.4,0.7,20.7l-5.3,0.7
		c-1.3-10.7-1.3-17.4-14-17.4h-21.4v41.4c0,11.4,10.7,11.4,22,11.4c21.4,0,30.7-1.3,36.1-21.4l4.7,1.3c-2,9.4-4,18.7-6,28.1
		c-11.4,0-31.4-0.7-47.4-0.7s-37.4,0.7-47.4,0.7L1359.1,279.3L1359.1,279.3L1359.1,279.3z"/>
</g>
</svg>
