<?xml version="1.0" encoding="utf-8"?>
<!-- Generator: Adobe Illustrator 27.0.0, SVG Export Plug-In . SVG Version: 6.00 Build 0)  -->
<svg version="1.1" id="Layer_1" xmlns="http://www.w3.org/2000/svg" xmlns:xlink="http://www.w3.org/1999/xlink" x="0px" y="0px"
	 viewBox="0 0 645.3 300" style="enable-background:new 0 0 645.3 300;" xml:space="preserve">
<style type="text/css">
	.st0{fill:#011F5B;}
</style>
<g transform="translate(-284.31 -515.62)">
	<path class="st0" d="M284.5,515.7v6.9c19.5,0,26.5,8.6,26.5,37.1v146.4c0,31-10.2,36.3-26.5,36.3v6.9h84.1v-6.9
		c-19.5,0-26.5-8.2-26.5-37.1v-65.3c17.2,2.1,25.7,2.5,35.9,2.5c53.1,0,82.4-21.6,82.4-60.4c0-32.3-26.2-66.5-90.6-66.5L284.5,515.7
		L284.5,515.7z M342,524.7h29c42.8,0,56.7,33.5,56.7,58.3c0,31.8-22,50.6-56.7,50.6c-12.2,0-18.4-0.4-29-4V524.7L342,524.7z
		 M509.3,601c-40.8,0-72.6,34.2-72.6,78c0,43.6,32.7,75.1,78,75.1c25.3,0,42-8.6,59.6-31v-10.7c-20.8,23.3-31,30.2-51,30.2
		c-19.5,0-58.3-16.3-57.5-81.2h106.1C573.8,627.9,542.8,601,509.3,601L509.3,601z M620.2,601l-44.9,4.5v6.9
		c19.5,0,24.1,3.7,24.1,21.2v81.2c0,26.2-4.9,27.7-24.1,27.7v6.9h76.3v-6.9c-21.6,0-24.5-5.7-24.5-27.7v-70.6
		c14.3-19.1,26.9-28.1,41.2-28.1c15.5,0,32.3,9.8,32.3,33.1v75.5c0,13.4-5.3,18-24.9,18v6.9h76.3h0.8h75.5v-6.9
		c-21.6,0-24.5-5.7-24.5-27.7v-70.6c14.3-19.1,26.9-28.1,41.2-28.1c15.5,0,32.3,9.8,32.3,33.1v75.5c0,13.4-5.3,18-24.9,18v6.9h77.1
		v-6.9c-20.4,0-24.5-5.7-24.5-24.5V653c0-34.6-24.9-51.8-48.9-51.8c-18.4,0-35.1,9.4-52.2,29v-29h-6.9l-44.9,4.5v6.9
		c19.5,0,24.1,3.7,24.1,21.2v81c0,25.9-4.8,27.7-23.7,27.7c-20-0.1-24.1-5.8-24.1-24.5v-65.3c0-34.6-24.9-51.8-48.9-51.8
		c-18.4,0-35.1,9.4-52.2,29v-29H620.2L620.2,601z M505.7,609.6c18.4,0,40,13,38.8,44.9h-78.7C467.3,627.5,481.6,609.6,505.7,609.6
		L505.7,609.6z M597.4,770c-2,0-10.1,1-12.5,10.9h-4.4l-0.4,2h4.4l-6.6,32.8h2.1c2.7-7,6.3-21.7,8.6-32.8h6l1.1-1l0.2-1H589l0.5-2.3
		c1.1-5,3.2-6.9,6-6.9c2,0,3.5,1.5,4,2.7l1.2-0.6l0.6-3.1C600.7,770.2,598.4,770,597.4,770L597.4,770z M284.3,771.6v1.2
		c4.1,0.5,3.9,0.3,3.9,4.5v13.8c0,8.4,3.1,13.4,12.9,13.4c6,0,12.3-3.8,12.3-13.6v-13c0-1,0.2-1.8,0.3-2.5c0.2-1.7,1.8-2.3,3.9-2.6
		v-1.2h-11v1.2c2.2,0.2,3.8,0.9,3.9,2.6c0.1,0.8,0.3,1.5,0.3,2.5v12.8c0,7.4-3.4,11.6-9.7,11.6c-6.9,0-8.7-4.9-8.7-11.4v-13.5
		c0-4.3-0.2-4,3.9-4.5v-1.2L284.3,771.6L284.3,771.6z M615.5,771.6v1.2c4.1,0.5,3.9,0.3,3.9,4.5v20.8c0,4.3,0.2,4-3.9,4.5v1.2h12.4
		v-1.2c-4.1-0.5-3.9-0.3-3.9-4.5v-25.1h2.9c5.2,0,7.7,2.4,7.7,7.6c0,5.1-2.7,8.6-8.5,8.5v0.9c7.1,0.4,13.1-3.2,13.1-9.9
		c0-5.5-3.8-8.6-11.4-8.6L615.5,771.6L615.5,771.6z M459.7,778.6c-4.1,0-7.7,2.6-7.7,5.7c0,3.8,2.4,5.3,4.3,6.6
		c5.3,3.6,6.6,5.4,6.6,7.8c0,2.6-2.1,4.5-4.6,4.5c-2.8,0-5.3-1.6-5.7-5.5h-0.9v5.1c0,0.3,0.1,0.4,0.3,0.5c1.9,0.7,3.8,1.2,6.1,1.2
		c4.2,0,8.7-2.4,8.7-6.6c0-3-1.2-4.8-5-7.6c-3.6-2.7-6.1-4.1-6.1-6.7c0-2.7,1.9-3.8,3.9-3.8c2.9,0,4.2,2,4.5,4.5h0.9v-4.6
		c0-0.2,0-0.3-0.3-0.4C463.3,778.8,461.3,778.6,459.7,778.6L459.7,778.6z M743.4,778.6c-4.1,0-7.7,2.6-7.7,5.7
		c0,3.8,2.4,5.3,4.3,6.6c5.3,3.6,6.6,5.4,6.6,7.8c0,2.6-2.1,4.5-4.6,4.5c-2.8,0-5.3-1.6-5.7-5.5h-0.9v5.1c0,0.3,0.1,0.4,0.3,0.5
		c1.9,0.7,3.8,1.2,6.1,1.2c4.2,0,8.7-2.4,8.7-6.6c0-3-1.2-4.8-5-7.6c-3.6-2.7-6.1-4.1-6.1-6.7c0-2.7,1.9-3.8,3.9-3.8
		c2.9,0,4.2,2,4.5,4.5h0.9v-4.6c0-0.2,0-0.3-0.3-0.4C746.9,778.8,745,778.6,743.4,778.6L743.4,778.6z M840.8,778.6
		c-3,7.9-7.1,19.5-8.7,22.7c-0.6,1.2-1.6,1.8-2.6,1.8v0.9h6.5v-0.9c-1.6,0-2.3-1.2-1.8-2.6l1.7-4.7h9.1l1.6,4.6
		c0.6,1.6,0.4,2.8-1.9,2.8v0.9h8.3v-0.9c-1.6,0-2.1-1.2-2.9-3.2c-1.2-3.2-4.8-14.2-7.3-21.3L840.8,778.6L840.8,778.6z M917.2,778.6
		c-3,7.9-7.1,19.5-8.7,22.7c-0.6,1.2-1.6,1.8-2.6,1.8v0.9h6.5v-0.9c-1.6,0-2.3-1.2-1.8-2.6l1.7-4.7h9.1l1.5,4.6
		c0.6,1.6,0.4,2.8-1.9,2.8v0.9h8.3v-0.9c-1.6,0-2.1-1.2-2.9-3.2c-1.2-3.2-4.8-14.2-7.3-21.3L917.2,778.6L917.2,778.6z M320.9,779
		v0.9c2.1,0,3.2,1.2,4.1,2.5v16.9c0,0.8-0.1,1.4-0.2,1.9c-0.2,1.3-1.4,1.8-3.1,2v0.9h8.8v-0.9c-2.4-0.2-3.6-0.7-3.8-2
		c-0.1-0.6-0.2-1.2-0.2-1.9v-15.8c5.8,6.8,11.7,13.9,17.4,20.6h1.2v-20.1c0-0.8,0.1-1.4,0.2-2c0.2-1.3,1.4-1.8,3.1-2v-0.9h-8.8v0.9
		c2.4,0.2,3.6,0.7,3.8,2c0.1,0.6,0.2,1.2,0.2,2v14.7l0,0c-5.3-6.5-10.9-13-16.2-19.5L320.9,779L320.9,779z M355.8,779v0.9
		c3.3,0.4,3.1,0.2,3.1,3.6v16.1c0,3.4,0.1,3.2-3.1,3.6v0.9h9.6v-0.9c-3.3-0.4-3.1-0.2-3.1-3.6v-16.1c0-3.4-0.1-3.2,3.1-3.6V779
		H355.8z M370.9,779v0.9c1.7,0,2.9,1.1,4.1,4.9c2.2,6.1,4.6,12.9,6.8,19.1h1.8c3-7.3,6-14.6,9.1-21.9c0.8-1.8,2-2.2,3-2.2V779h-7.7
		v0.9c2.5,0,3.4,1.1,2.5,3.4c-2.2,5.4-4.3,11-6.7,16.4c-1.9-5.4-3.9-11.5-5.3-15.8c-1.2-3.5,0.3-4,2.2-4v-0.9L370.9,779L370.9,779z
		 M401.2,779v0.9c3.3,0.4,3.1,0.2,3.1,3.6v16.1c0,3.4,0.1,3.2-3.1,3.6v0.9h17.6l1.1-6.4h-0.9c-1.7,3.8-1.4,5.3-6.6,5.3
		c-3.3,0-4.6-0.3-4.6-3.3v-8.1h3c2.4,0,3.3,1.3,3.3,3.4h0.9v-7.6h-0.9c-0.1,2.2-1.1,3.2-3.3,3.2h-3v-10.3h4.8c2.6,0,3.3,2,3.7,4.6
		h0.9v-5.7L401.2,779L401.2,779z M425.2,779v0.9c3.3,0.4,3.1,0.2,3.1,3.6v16.1c0,3.4,0.1,3.2-3.1,3.6v0.9h9.6v-0.9
		c-3.3-0.4-3.1-0.2-3.1-3.6v-6.6h3.4c4.3,7.2,5.4,11.1,7.6,11.1h3.7v-0.5c-1.3-0.8-3.3-3.3-5-5.8l-3.5-5.3c2.8-1.1,5-3.7,5-7.3
		c0-4.1-3.7-6.1-7.2-6.1L425.2,779L425.2,779z M473.1,779v0.9c3.3,0.4,3.1,0.2,3.1,3.6v16.1c0,3.4,0.2,3.2-3.1,3.6v0.9h9.6v-0.9
		c-3.3-0.4-3.1-0.2-3.1-3.6v-16.1c0-3.4-0.1-3.2,3.1-3.6V779H473.1z M488.8,779l-1,5.4h0.9c1.2-2.4,1.9-4.3,5-4.3h3.2v19.3
		c0,3.4,0.2,3.2-3.1,3.6v0.9h9.6V803c-3.3-0.4-3.1-0.2-3.1-3.6v-19.3h3.3c3.1,0,3.8,2,5,4.3h0.9l-1-5.4H488.8L488.8,779z M513.7,779
		v0.9c1.7,0,2.7,0.9,3.8,3.3L523,794v5.5c0,3.4,0.1,3.2-3.1,3.6v0.9h9.6v-0.9c-3.3-0.4-3.1-0.2-3.1-3.6v-3.9c0-0.9,0.1-1.9,0.4-2.6
		l5.9-10.9c1-1.7,2-2.2,3-2.2v-0.9h-7.4v0.9c2.1,0,3.3,1,2.1,3.3l-4.9,9l-4.3-9c-0.9-1.9-1.1-3.3,1.6-3.3v-0.9L513.7,779L513.7,779z
		 M645.5,779v0.9c3.3,0.4,3.1,0.2,3.1,3.6v16.1c0,3.4,0.1,3.2-3.1,3.6v0.9h17.6l1.1-6.4h-0.9c-1.7,3.8-1.4,5.3-6.6,5.3
		c-3.3,0-4.6-0.3-4.6-3.3v-8.1h3c2.4,0,3.3,1.3,3.3,3.4h0.9v-7.6h-0.9c-0.1,2.2-1,3.2-3.3,3.2h-3v-10.3h4.8c2.6,0,3.3,2,3.7,4.6h0.9
		v-5.7L645.5,779L645.5,779z M669.5,779v0.9c2.1,0,3.2,1.2,4.1,2.5v16.9c0,0.8-0.1,1.4-0.2,1.9c-0.2,1.3-1.4,1.8-3.1,2v0.9h8.8v-0.9
		c-2.4-0.2-3.6-0.7-3.8-2c-0.1-0.6-0.2-1.2-0.2-1.9v-15.8c5.8,6.8,11.7,13.9,17.4,20.6h1.2v-20.1c0-0.8,0.1-1.4,0.2-2
		c0.2-1.3,1.4-1.8,3.1-2v-0.9h-8.8v0.9c2.4,0.2,3.6,0.7,3.8,2c0.1,0.6,0.2,1.2,0.2,2v14.7h-0.1c-5.3-6.5-10.9-13-16.2-19.5
		L669.5,779L669.5,779z M701.4,779v0.9c2.1,0,3.2,1.2,4.1,2.5v16.9c0,0.8-0.1,1.4-0.2,1.9c-0.2,1.3-1.4,1.8-3.1,2v0.9h8.8v-0.9
		c-2.4-0.2-3.6-0.7-3.8-2c-0.1-0.6-0.2-1.2-0.2-1.9v-15.8c5.8,6.8,11.7,13.9,17.4,20.6h1.2v-20.1c0-0.8,0.1-1.4,0.2-2
		c0.2-1.3,1.4-1.8,3.1-2v-0.9h-8.8v0.9c2.4,0.2,3.6,0.7,3.8,2c0.1,0.6,0.2,1.2,0.2,2v14.7H724c-5.3-6.5-10.9-13-16.2-19.5L701.4,779
		L701.4,779z M755.9,779v0.9c1.7,0,2.7,0.9,3.8,3.3l5.5,10.9v5.5c0,3.4,0.1,3.2-3.1,3.6v0.9h9.6v-0.9c-3.3-0.4-3.1-0.2-3.1-3.6v-3.9
		c0-0.9,0.1-1.9,0.4-2.6l5.9-10.9c1-1.7,2-2.2,3-2.2v-0.9h-7.4v0.9c2.1,0,3.3,1,2.1,3.3l-4.9,9l-4.3-9c-0.9-1.9-1.2-3.3,1.6-3.3
		v-0.9L755.9,779L755.9,779z M783.8,779v0.9c3.3,0.4,3.1,0.2,3.1,3.6v16.1c0,3.4,0.1,3.2-3.1,3.6v0.9h17.6l1.1-6.4h-0.9
		c-1.7,3.8-1.4,5.3-6.6,5.3c-3.2,0-4.5-0.3-4.5-2.8v-16.7c0-3.4-0.1-3.2,3.1-3.6V779H783.8L783.8,779z M805.2,779v0.9
		c1.7,0,2.9,1.1,4.1,4.9c2.2,6.1,4.6,12.9,6.8,19.1h1.8c3-7.3,6-14.6,9.1-21.9c0.8-1.8,2-2.2,3-2.2V779h-7.7v0.9
		c2.5,0,3.4,1.1,2.5,3.4c-2.2,5.4-4.4,11-6.7,16.4c-1.9-5.4-3.9-11.5-5.3-15.8c-1.2-3.5,0.3-4,2.3-4v-0.9L805.2,779L805.2,779z
		 M857.5,779v0.9c2.1,0,3.2,1.2,4.1,2.5v16.9c0,0.8-0.1,1.4-0.2,1.9c-0.2,1.3-1.4,1.8-3.1,2v0.9h8.8v-0.9c-2.4-0.2-3.6-0.7-3.8-2
		c-0.1-0.6-0.2-1.2-0.2-1.9v-15.8c5.8,6.8,11.7,13.9,17.4,20.6h1.2v-20.1c0-0.8,0.1-1.4,0.2-2c0.2-1.3,1.4-1.8,3.1-2v-0.9h-8.8v0.9
		c2.4,0.2,3.6,0.7,3.8,2c0.1,0.6,0.2,1.2,0.2,2v14.7h-0.1c-5.3-6.5-10.9-13-16.2-19.5L857.5,779L857.5,779z M890.8,779v0.9
		c3.3,0.4,3.1,0.2,3.1,3.6v16.1c0,3.4,0.1,3.2-3.1,3.6v0.9h9.6v-0.9c-3.3-0.4-3.1-0.2-3.1-3.6v-16.1c0-3.4-0.1-3.2,3.1-3.6V779
		H890.8z M431.7,780.2h2.8c2.6,0,4.7,1.4,4.7,5.2c0,4-1.4,6.4-4.5,6.4h-3L431.7,780.2L431.7,780.2z M565,780.4
		c-7.7,0-12.9,9.1-12.9,15.1c0,4.3,1.6,9.1,7.5,9.1c8.9,0,12.9-10.9,12.9-15.9C572.5,784.5,571.1,780.4,565,780.4L565,780.4z
		 M564.6,781.5c0.7,0,3.7,0.2,3.7,5c0,8.1-2.8,16.8-8.1,16.8c-3.5,0-3.8-4.3-3.8-6.7C556.3,790.5,559.5,781.5,564.6,781.5
		L564.6,781.5z M840.7,782.8L840.7,782.8l3.8,11.6h-8.1L840.7,782.8L840.7,782.8z M917.1,782.8L917.1,782.8l3.8,11.6h-8.1
		L917.1,782.8L917.1,782.8z"/>
</g>
</svg>
