<?xml version="1.0" encoding="utf-8"?>
<!-- Generator: Adobe Illustrator 27.0.0, SVG Export Plug-In . SVG Version: 6.00 Build 0)  -->
<svg version="1.1" id="Layer_1" xmlns="http://www.w3.org/2000/svg" xmlns:xlink="http://www.w3.org/1999/xlink" x="0px" y="0px"
	 viewBox="0 0 975.1 300" style="enable-background:new 0 0 975.1 300;" xml:space="preserve">
<style type="text/css">
	.st0{fill:#002147;}
	.st1{fill:#FFFFFF;}
</style>
<g>
	<path class="st0" d="M975.1,300H0V0h975.1V300z"/>
	<path class="st1" d="M382,187.6c0-25.2-12.3-42.9-33-42.9c-22.5,0-33,21.2-33,42.9c0,25.2,12.3,42.9,33,42.9
		C371.5,230.5,382,209.3,382,187.6 M397.3,187.1c0,27.8-21.4,48-48.3,48c-27.4,0-48.3-20.4-48.3-47c0-27.8,21.4-48.1,48.3-48.1
		C376.4,140.1,397.3,160.6,397.3,187.1 M676.7,187.6c0-25.2-12.3-42.9-33-42.9c-22.5,0-33,21.2-33,42.9c0,25.2,12.3,42.9,33,42.9
		C666.2,230.5,676.7,209.3,676.7,187.6 M692,187.1c0,27.8-21.4,48-48.3,48c-27.4,0-48.3-20.4-48.3-47c0-27.8,21.4-48.1,48.3-48.1
		C671.1,140.1,692,160.6,692,187.1 M750.5,202.9c-5.4-7.7-7.4-10.5-14-10.5h-7.2v31.2c0,2.5,1.1,3.8,3.8,4.3l10.5,2.3v3.4h-41.1
		v-3.4l9.5-2.3c2.9-0.7,3.8-1.8,3.8-4.3v-72c0-2.5-1.1-3.6-3.8-4.3l-9.5-2.3v-3.4h40.1c8.5,0,14.3,0.7,19.1,2.5
		c9.9,3.8,15.5,13.3,15.5,22.2c0,11.3-8.5,20.7-22.5,24v0.5c2.9,1.3,4.3,3.1,14.3,16.2l12.5,16.6c1.8,2.5,4.1,4.1,6.9,4.6l9.2,2v3.4
		h-22c-2.5,0-3.8-0.7-6.1-3.8L750.5,202.9z M729.3,188.1h11.5c17.3,0,21.2-11,21.2-21.4c0-7.9-3.6-15.3-11.7-18.9
		c-4.3-1.8-8.5-1.8-14-1.8h-6.9L729.3,188.1z M570.4,173h3.8v30.6h-3.8l-2.3-9.2c-0.7-3.4-2.9-4.6-5.9-4.6H540v33.7
		c0,2.5,1.1,3.8,3.8,4.3l10.5,2.3v3.4h-41.1v-3.3l9.4-2.3c2.9-0.7,3.8-1.8,3.8-4.3v-72c0-2.5-1.1-3.6-3.8-4.3l-9.4-2.3v-3.4h69.5v23
		h-3.8l-4.3-13.8c-1.1-3.6-2.5-4.9-5.6-4.9h-28.8v39.6h22.2c3.1,0,4.9-1.3,5.9-4.6L570.4,173z M832.1,146v79.2
		c0,3.4,0.7,4.1,4.1,4.1h11.2c10.8,0,18.7-1.6,24.3-5.6c9.4-6.9,13.8-19.4,13.8-35.3c0-15.5-4.3-30.8-17.1-38.3
		c-5.4-3.1-12.3-4.1-23-4.1H832.1z M805.2,233.6v-3.3l9.5-2.3c2.9-0.7,3.8-1.8,3.8-4.3v-72c0-2.5-1.1-3.6-3.8-4.3l-9.5-2.3v-3.4
		h43.2c11.7,0,20.2,1.6,27,4.6c17.3,7.9,25.2,25,25.2,41.9c0,16.4-6.1,31.7-21.8,39.8c-7.2,3.8-17.1,5.6-30.1,5.6L805.2,233.6z
		 M433.3,230.3v3.4h-32.4v-3.4l8.1-2c3.1-0.7,5.1-1.8,7.2-4.1l28.1-35.3l-28.1-37.3c-1.8-2.5-4.1-3.8-6.9-4.6l-7.7-2v-3.4H442v3.4
		l-8.7,1.8c-3.1,0.5-2.3,1.8-0.7,3.8l20.7,29.6h0.5l21.2-29.6c1.6-2,2-2.9-0.7-3.6l-8.1-2v-3.4h32.4v3.4l-8.1,2
		c-3.1,0.7-5.1,1.8-7.2,4.1l-26.5,33.5l29.6,39.1c1.8,2.5,4.1,3.8,6.9,4.6l7.7,2v3.4h-40.4v-3.4l8.7-1.8c3.1-0.5,2.5-1.5,1.1-3.6
		l-22.5-31.7h-0.5l-22.7,31.5c-1.6,2-2,2.7,0.7,3.6L433.3,230.3z M336.5,98.3c-2.5,2.5-6.3,4.2-11.6,4.2c-4.6,0-9-1.5-11.8-4.3
		c-4-4-3.8-9-3.8-14.5V58.2h5.2v27.5c0,3.5-0.1,6.9,2.5,9.5c1.9,1.9,4.8,2.9,8,2.9s5.8-1.2,7.4-2.7c3-3,2.7-6.2,2.7-14.2V58.2h5.2
		v21.7C340.5,88.1,340.8,94.1,336.5,98.3 M382.8,101.7l-21-35.7l0.1,35.7h-4.8V58.2h5.4l21,35.9l-0.1-35.9h4.8v43.5H382.8z
		 M406.4,58.2h5.3v43.5h-5.3V58.2z M444.3,101.7h-6l-15-43.5h5.5l12.7,38.5l13.1-38.5h5.1L444.3,101.7z M471.4,101.7V58.2h23.7v4.3
		h-18.6v14.4h17.4v4.2h-17.4v16.2h19v4.4L471.4,101.7z M533.5,101.7l-5-11.3c-3.1-7-4.5-7.7-10.9-7.7h-3.1v18.9h-5.2V58.2h9.4
		c5.8,0,10.2,0,13.6,3.4c2.2,2.2,3.4,5.1,3.4,8.7c0,3.1-0.8,5.6-2.7,7.5c-1.6,1.7-4.1,3.2-7,3.5c1.5,0.1,2.7,1,3.6,1.7
		c1.2,1.2,2,3,3.4,5.8l5.8,13H533.5z M528.7,64.8c-2.5-2.5-5.7-2.4-9.3-2.4h-4.9v16.3h1.7c4.4,0,9.1,0.2,12.1-2.7
		c1.5-1.5,2.2-3.5,2.2-5.7C530.7,67.7,529.8,65.7,528.7,64.8 M589.9,58.2h5.3v43.5h-5.3V58.2z M624.9,62.5v39.2h-5.3V62.5h-13v-4.3
		h31.1v4.3H624.9z M663,84.5v17.2h-5.2V84.5l-13.8-26.3h6l10.8,20.4l10.5-20.4h5.7L663,84.5z M725.7,102.6
		c-11.3,0-19.5-9.3-19.5-22.4c0-13.4,8.1-22.8,20-22.8c11.4,0,19.4,9.3,19.4,22.4C745.6,93.3,737.4,102.6,725.7,102.6 M725.7,61.8
		c-8.6,0-14,7.2-14,18.1c0,10.8,6.1,18.2,14.4,18.2c9.1,0,14.2-7.7,14.2-18.5C740.1,68.9,734.2,61.8,725.7,61.8 M765.1,62.5v14.4
		h16.8v4.2h-16.8v20.6h-5.2V58.2h23.1v4.3L765.1,62.5z M549.5,68.8c0-6.7,5.4-11.4,13.2-11.4c7.9,0,11.8,4.1,12.1,4.5l-2.5,3.1
		c-1-0.7-4.4-3.3-9.3-3.3c-5.6,0-8.7,2.9-8.7,6.9c0,1.9,0.7,3.3,2,4.4c1.5,1.4,3.7,2.3,6,3.4c3,1.4,7,2.9,9.6,5.6
		c1.9,1.9,3.3,4.4,3.3,7.8c0,7.3-5.1,12.8-14,12.8c-7.7,0-12.6-4.2-13-4.6l2.4-3.5c1.3,1,6.1,3.8,10.5,3.8c6.5,0,9-3.6,9-7.9
		c0-2-1-3.6-2.3-5c-2-2-5.1-3.3-8-4.6c-3-1.4-5.7-2.7-7.7-4.9C550.8,74.5,549.5,72.3,549.5,68.8 M149.2,117.3c0-3.8-1.3-7-4.1-8.7
		c-1.8-1.1-4.1-1.4-7.1-1.4h-21.4v43.3h23.3c5.4,0,8.6,1.2,8.9,6h0.5L149.2,117.3z M152.1,117.3c0-3.8,1.3-7,4.1-8.7
		c1.8-1.1,4.1-1.4,7.1-1.4H185v43.3h-23.6c-5.4,0-8.6,1.2-8.9,6h-0.4V117.3z"/>
</g>
</svg>
