<?xml version="1.0" encoding="utf-8"?>
<!-- Generator: Adobe Illustrator 27.0.0, SVG Export Plug-In . SVG Version: 6.00 Build 0)  -->
<svg version="1.1" id="Layer_1" xmlns="http://www.w3.org/2000/svg" xmlns:xlink="http://www.w3.org/1999/xlink" x="0px" y="0px"
	 viewBox="0 0 1194 300" style="enable-background:new 0 0 1194 300;" xml:space="preserve">
<style type="text/css">
	.st0{fill:#1E1E1E;}
	.st1{fill:#A51C30;}
	.st2{fill:#FFFFFF;}
</style>
<g>
	<path class="st0" d="M482.4,207.1c0-2.6-1.7-4.3-5.1-5.1v-1.7c1.7,0,8.1,0.4,9.8,0.4c1.3,0,7.7-0.4,9.4-0.4v1.7
		c-3,0.9-4.7,2.6-4.7,5.1v32c0,10.2,5.5,15.8,17,15.8c10.2,0,17.9-4.7,17.9-15.3v-32.8c0-2.6-1.7-4.3-5.1-5.1v-1.3
		c1.3,0,6.4,0.4,8.1,0.4s6.8-0.4,8.1-0.4v1.7c-3.8,0.9-5.1,2.6-5.1,5.1v31.1c0,14.1-8.1,22.2-25.6,22.2c-16.2,0-24.7-7.2-24.7-20.5
		L482.4,207.1z M552.3,257.8c3.8-0.9,5.1-2.6,5.1-5.1v-44.3c0-3.8-2.1-5.5-5.5-6.4v-1.7h12.4l38.4,45.2v-38.4c0-2.6-1.7-4.3-5.1-5.1
		v-1.7c1.3,0,6.4,0.4,8.1,0.4c1.7,0,6.8-0.4,8.1-0.4v1.7c-3.8,0.9-5.5,2.6-5.5,5.1v53.3H606c-1.3-0.4-4.3-1.7-8.5-6.4l-34.5-40.1
		v39.2c0,2.6,1.3,4.3,5.1,5.1v1.7c-1.3,0-6.4-0.4-8.1-0.4s-6.8,0.4-8.1,0.4L552.3,257.8z M855.7,245.9h1.7c0.9,3.4,2.6,6.4,5.5,8.1
		c2.6,2.1,7.2,3,10.7,3c7.7,0,12.8-3.8,12.8-9.8c0-6.4-6.4-9.4-13.6-13.2c-5.5-3-16.6-7.2-16.6-17.9c0-9.8,7.7-16.2,19.6-16.2
		c8.1,0,11.5,2.1,17,1.7v11.9H891c-2.1-7.2-8.5-9.4-15.8-9.4c-8.1,0-10.7,4.7-10.7,8.9c0,6.4,6.4,9.8,13.6,13.2
		c8.1,3.4,17,8.1,17,18.3c0,9.8-7.7,16.6-21.3,16.6c-8.1,0-13.2-2.6-17.5-3L855.7,245.9z M1020.6,234.8l-15.8-25.1
		c-2.6-4.3-4.7-6.8-7.7-7.7v-1.7c2.1,0,8.1,0.4,9.4,0.4c1.7,0,7.7-0.4,10.2-0.4v1.7c-2.1,0.4-3,1.3-3,3c0,1.3,0.9,3,1.7,4.7
		c0.9,1.3,11.5,19.2,11.5,19.2l11.1-19.2c1.3-2.1,1.7-3.8,1.7-5.1c0-1.3-0.9-2.1-2.6-2.1v-2.1c1.7,0,6,0.4,7.2,0.4s6-0.4,7.7-0.4
		v1.7c-4.3,1.7-6.8,5.5-9.4,9.8l-14.1,23.9 M1029.5,232.7v20c0,2.1,1.7,4.7,5.1,5.1v1.7c-1.7,0-8.1-0.4-9.8-0.4
		c-1.7,0-7.7,0.4-9.8,0.4v-1.7c3.4-0.9,5.1-3,5.1-5.1v-19.2 M730,200.3h36.6c1.3,0,3,0,4.3-0.9h1.7l-0.4,11.9h-1.7
		c-1.3-3.8-3-6.8-9.8-6.8h-15.8v21.3h12.4c1.7,0,3.8,0,4.7-0.4c2.6-0.4,3.8-2.1,4.7-4.7h1.7v14.9h-1.7c-0.9-2.6-1.7-4.3-4.7-4.7
		c-0.9-0.4-3-0.4-4.7-0.4h-12.4v24.3h17.5c7.7,0,9.8-3,11.5-7.7h1.7l-1.7,12.4c-5.5-0.4-8.9-0.4-15.3-0.4h-18.3
		c-1.7,0-8.1,0.4-10.2,0.4v-1.7c3.4-0.9,5.1-2.1,5.1-5.5v-45.2c0-3-1.7-4.7-5.1-5.1L730,200.3z M636.2,207.5c0-3-1.7-4.7-5.1-5.5
		v-1.7c2.1,0,8.1,0.4,10.2,0.4c1.7,0,8.1-0.4,10.2-0.4v1.7c-3.4,0.9-5.5,2.1-5.5,5.5v44.7c0,3,1.7,4.7,5.5,5.5v1.7
		c-2.1,0-8.1-0.4-10.2-0.4c-1.7,0-8.1,0.4-10.2,0.4v-1.7c3.8-0.9,5.5-2.1,5.5-5.5L636.2,207.5z M914.5,207.5c0-3-1.7-4.7-5.1-5.5
		v-1.7c2.1,0,8.5,0.4,10.2,0.4s8.1-0.4,10.2-0.4v1.7c-3.4,0.9-5.1,2.1-5.1,5.5v44.7c0,3,1.7,4.7,5.1,5.5v1.7
		c-2.1,0-8.1-0.4-10.2-0.4c-1.7,0-8.1,0.4-10.2,0.4v-1.7c3.8-0.9,5.1-2.1,5.1-5.5V207.5z M965.6,200.7c-20,0-23.4-0.4-27.3-0.9v11.9
		h1.7c1.7-5.5,4.7-6.8,8.5-6.8h12.8v46.9c0,3-1.7,4.7-5.5,5.5v1.7c2.1,0,8.5-0.4,10.2-0.4c1.7,0,8.1,0.4,10.2,0.4v-1.7
		c-3.4-0.9-5.5-2.6-5.5-5.5V205h12.4c3.8,0,6.8,1.3,8.5,6.8h1.7v-11.9C988.6,200.3,985.7,200.7,965.6,200.7L965.6,200.7z M805,252.3
		c0,3,1.7,4.7,5.5,5.5v1.7c-2.1,0-8.5-0.4-10.2-0.4s-7.7,0.4-9.8,0.4v-1.7c3.4-0.9,5.1-2.1,5.1-5.5v-45.2c0-3-1.7-4.7-5.1-5.1v-1.7
		c2.1,0,8.1,0.4,9.8,0.4c3,0,11.1-0.4,14.5-0.4c14.1,0,21.7,6,21.7,15.8c0,7.7-6,13.2-14.9,15.3c0,0,2.1,1.3,4.3,3.4
		c2.6,3,9.4,12.4,11.9,15.8c2.6,3.4,6.4,7.2,10.2,7.2v1.3c-1.7,0.4-4.7,0.9-6.8,0.9c-4.7,0-8.5-1.7-12.4-6
		c-3.4-3.8-8.5-11.9-11.9-16.2c-2.1-2.6-4.7-4.7-8.9-5.5c-0.9,0-1.7-0.4-2.6-0.4L805,252.3z M805,228.4c1.7,0.4,4.7,0.4,7.2,0.4
		c11.1,0,14.5-6.4,14.5-11.9c0-8.1-5.1-12.8-14.9-12.8c-2.1,0-4.7,0.4-6.8,0.9V228.4z M665.2,207.5c-1.3-3-3.4-5.1-6.8-5.5v-1.7
		c2.1,0,9.4,0.4,11.1,0.4c1.3,0,7.7-0.4,9.8-0.4v1.7c-1.7,0.4-4.3,1.3-4.3,3.4c0,1.3,0.9,3.4,2.6,6.8l15.3,34.5l14.5-34.5
		c1.3-3,2.1-5.1,2.1-6.4c0-1.7-1.7-3-4.3-3.4v-2.1c1.7,0,6.4,0.4,8.1,0.4c1.3,0,6.8-0.4,8.9-0.4v1.7c-3.4,0.9-6,3-7.7,7.7
		l-21.3,49.9h-4.7L665.2,207.5z M719.8,50.3c-2.6-5.5-6.4-9.4-12.4-10.7v-3c3.8,0,17,0.4,20,0.4c2.6,0,15.3-0.4,19.6-0.4v3
		c-3.4,0.9-7.7,2.6-7.7,6.4c0,2.6,1.7,6.4,4.7,12.8l29,65.6l27.3-65.6c2.1-5.1,3.8-9.4,3.8-12.4c0-3.4-3.4-6-7.7-6.8v-3
		c3.8,0,12.4,0.4,15.3,0.4c2.6,0,12.8-0.4,17-0.4v3c-6.8,1.7-11.1,6-14.9,14.5l-40.1,94.6h-8.9L719.8,50.3z M332,144.9
		c5.1-1.3,8.9-3.4,8.9-9.4V49c0-5.5-3.4-8.1-8.9-9.4v-3.4c2.6,0,14.5,0.4,17.5,0.4c3.4,0,15.8-0.4,18.3-0.4v3
		c-5.1,1.3-8.9,3.4-8.9,9.4v36.6h64.8V49c0-6-3.4-8.5-8.9-9.4v-3.4c2.6,0,14.9,0.4,18.3,0.4c3,0,14.9-0.4,17.9-0.4v3
		c-5.1,1.3-8.9,3.4-8.9,9.4v86.5c0,5.5,3.4,8.1,8.9,9.4v3c-2.6,0-14.9-0.4-17.9-0.4c-3.4,0-15.3,0.4-18.3,0.4v-2.6
		c5.1-1.3,8.9-3.4,8.9-9.4V94.6h-64.8v40.9c0,6,3.4,8.1,8.9,9.4v3c-2.6,0-15.3-0.4-18.3-0.4c-3,0-14.5,0.4-17.5,0.4V144.9z
		 M1078.6,144.9c6.8-1.3,10.2-3.8,10.2-9.8V49c0-6-3.8-8.5-10.2-9.4v-3.4c3.8,0,15.8,0.4,19.2,0.4c5.5,0,20.5-1.3,32.4-1.3
		c39.6,0,63.9,22.2,63.9,55.8c0,32.8-25.1,57.1-66.1,57.1c-11.9,0-25.6-0.9-31.1-0.9c-3.4,0-14.5,0.4-18.3,0.4V144.9z M1106.7,139.4
		c4.3,0.9,11.5,1.3,17.5,1.3c33.2,0,50.7-20,50.7-48.2c0-29-18.3-49.4-49.4-49.4c-6.4,0-14.5,0.4-18.8,1.3L1106.7,139.4z M629,134.7
		c0,5.5,3.8,8.9,10.2,10.2v3c-3.8,0-15.8-0.4-19.6-0.4c-3,0-14.9,0.4-18.7,0.4v-3c6.4-1.3,9.8-4.3,9.8-10.2V49.4
		c0-5.1-3-8.5-9.8-9.8v-3.4c3.8,0,15.3,0.4,18.7,0.4c5.5,0,20.9-0.9,27.3-0.9c26.8,0,41.8,11.1,41.8,29.8c0,14.9-11.1,24.7-28.1,29
		c0,0,3.8,2.1,7.7,6.8c4.7,5.5,17.9,24.3,23,30.7c5.1,6.4,11.9,13.6,19.2,13.6v2.6c-3.4,0.9-8.9,1.3-13.2,1.3
		c-8.9,0-16.2-3.4-23.4-11.9c-6-7.2-16.6-23-22.6-30.7c-3.8-5.1-8.5-8.9-17-10.2c-1.7-0.4-3.4-0.4-5.1-0.9L629,134.7z M629,89.5
		c3.4,0.4,8.9,0.9,14.1,0.9c20.9,0,27.3-11.9,27.3-22.6c0-14.9-10.2-24.3-28.1-24.3c-3.8,0-9.4,0.4-13.2,1.3V89.5z M981,134.7
		c0,5.5,3.8,8.9,10.2,10.2v3c-3.8,0-15.8-0.4-19.2-0.4c-3,0-14.9,0.4-18.7,0.4v-3c6.4-1.3,9.8-4.3,9.8-10.2V49.4
		c0-5.1-3-8.5-9.8-9.8v-3.4c3.8,0,15.3,0.4,18.7,0.4c5.5,0,20.9-0.9,26.8-0.9c26.8,0,41.8,11.1,41.8,29.8c0,14.9-11.1,24.7-28.1,29
		c0,0,3.8,2.1,7.7,6.8c4.7,5.5,17.9,24.3,23,30.7c5.1,6.4,11.9,13.6,19.2,13.6v2.6c-3.4,0.9-8.9,1.3-13.2,1.3
		c-8.9,0-16.2-3.4-23.4-11.9c-6-7.2-16.6-23-22.6-30.7c-3.8-5.1-8.5-8.9-17-10.2c-1.7-0.4-3.4-0.4-5.1-0.9L981,134.7z M981,89.5
		c3.4,0.4,8.9,0.9,14.1,0.9c20.9,0,27.3-11.9,27.3-22.6c0-14.9-10.2-24.3-28.1-24.3c-3.8,0-9.4,0.4-13.2,1.3V89.5z M467.1,144.9
		c7.2-1.7,11.1-6.4,13.6-12.4l35.8-86.1c1.7-3.4,3.4-10.7,3.4-10.7h10.2c0,0,1.7,7.2,3.4,11.1l37.9,86.1c2.6,6,5.5,10.2,13.2,11.9v3
		c-4.3,0-16.6-0.4-19.6-0.4s-14.9,0.4-19.2,0.4v-3c5.5-1.3,7.2-4.3,7.2-6.8c0-2.1-0.9-5.1-2.1-7.7l-8.1-18.3h-41.8l-7.2,18.7
		c-0.9,2.1-1.7,5.1-1.7,7.2c0,3,1.7,5.5,7.7,7.2v3c-3.8,0-13.6-0.4-15.8-0.4l-16.2,0.4L467.1,144.9z M538.2,103.1l-17.9-41.3
		l-16.6,41.3L538.2,103.1z M821.6,144.9c7.2-1.7,11.1-6.4,13.6-12.4L871,46.5c1.7-3.4,3.4-10.7,3.4-10.7h10.2c0,0,1.7,7.2,3.4,11.1
		L926,133c2.6,6,5.5,10.2,13.2,11.9v3c-4.3,0-16.6-0.4-19.6-0.4s-14.9,0.4-19.2,0.4v-3c5.5-1.3,7.2-4.3,7.2-6.8
		c0-2.1-0.9-5.1-2.1-7.7l-8.1-18.3h-41.8l-7.2,18.7c-0.9,2.1-1.7,5.1-1.7,7.2c0,3,1.7,5.5,7.7,7.2v3c-3.8,0-13.6-0.4-15.8-0.4
		l-16.2,0.4v-3.4H821.6z M892.3,103.1l-17.9-41.3l-16.6,41.3L892.3,103.1z"/>
	<path class="st1" d="M1.7,1.7H251v94.2c0,43-16.2,134.7-123.6,202.8c0,0-116.8-48.6-125.7-202.8L1.7,1.7z"/>
	<path d="M83.7,150.3c-0.6,0-1.2,0.3-1.6,0.7c-0.9,0.7-1.4,1.8-1.4,1.8c-1,1.3-3,1.7-4.8,1.6c-1.8-0.1-3.4-0.5-3.4-0.5l-0.1,0
		l-0.1,0c-2.6,0.9-3.8,2-4.3,2.9c-0.2,0.5-0.3,0.9-0.3,1.2c0,0.2,0,0.4,0,0.4v9.8c-0.1,0.5-0.3,0.9-0.7,1.1
		c-0.4,0.2-0.8,0.4-1.3,0.4c-0.9,0.1-1.9-0.1-1.9-0.1h0c-3.3-0.7-5.5,0.1-6.9,1.1c-1.4,0.9-1.9,2-1.9,2.1c-1.4,1.9-0.5,4.6-0.5,4.6
		v0c0.1,0.2,0.2,0.5,0.3,0.7c0,0,0,0,0,0c1.3,3.4,6,3.4,6,3.4c1.7,1.3,4.7,0.4,4.7,0.4c0.9,0,1.4,0.4,1.7,0.8
		c0.2,0.6,0.1,1.3,0.1,1.3l0,0.1l0,0.1c0,0.1,0.1,0.7,0.1,1.5c0,0.8,0,1.9,0,3.1c0,2.5,0,5.6,0,8.7c-0.1,6.2-0.2,12.1-0.2,12.1
		c0,2.1-0.4,3.3-0.4,3.3l0,0v0.1c0,0.1,0,0.2-0.1,0.2c-0.1,0.1-0.3,0.2-0.6,0.3c-0.5,0.1-1.3,0.2-2.1,0.2c-1.6,0-3.2-0.2-3.2-0.2
		l0,0l0,0c-4.4,0.4-5.8,4.4-5.8,4.5v0c-0.4,0.8-0.3,1.7-0.1,2.4c0.1,0.4,0.3,0.7,0.5,1.1c0.8,1.9,2.9,3.4,2.9,3.4
		c0,0.9,8.1,1.3,8.1,1.3c0.5,0.1,0.8,0.5,1.1,0.9c0,0.1,0.1,0.1,0.1,0.2c0.2,0.7,0.2,1.4,0.2,1.4c-0.1,0.2-0.1,0.5-0.1,0.8
		c0,0.4,0,0.9,0,1.5c0,1.1,0.1,2.6,0.2,3.9c0.2,2.7,0.4,5.3,0.4,5.3l0,0v0c0,0.3,0.2,0.5,0.3,0.7c0,0,0,0.1,0,0.1
		c0.4,2.6,8.5,1.7,8.5,1.7s28.4-0.7,36-0.5c1.1,0,1.8,0.1,1.9,0.1c0.9,0,3-0.4,3-0.4l3,2.1c1.2,0.9,2.4,1.2,3.6,1.1
		c0.2,0,0.5,0,0.7-0.1c2.2-0.4,3.8-1.9,3.8-1.9l4.3-0.8c0.9,0,35.4-0.4,35.4-0.4c3,0.9,4.3-0.4,4.3-0.4l5.5-0.4c0.2,0,0.4,0,0.6,0
		c1.4-0.2,2.1-1.3,2.4-2.4c0.1-0.2,0.2-0.4,0.3-0.6c0.5-1.2,0.4-2.5,0.4-2.5v-7.2c0.1-0.6,0.2-1,0.3-1.4c0.8-1.4,1.9-1.6,1.9-1.6
		l5.1-0.9l2.6-1.3c1-0.2,1.5-0.9,1.8-1.8c0.1-0.1,0.2-0.2,0.2-0.4c0.4-0.8,0.5-1.6,0.5-2.5c0-1.7-0.4-3.2-0.4-3.2l0,0l0,0
		c-0.9-1.9-3.1-2.6-4.9-3c-1.9-0.3-3.5-0.2-3.5-0.2h0c-2.1,0.2-2.8-0.4-3.2-1c-0.4-0.6-0.3-1.2-0.3-1.2v0l0.4-26.4
		c0.2-1,0.5-1.8,0.7-2.4c0.3-0.6,0.6-1,0.6-1c1.3,0.4,5.5-0.9,5.5-0.9c2.4-0.2,3.5-1.7,3.9-3c0-0.1,0.1-0.1,0.1-0.2
		c0.6-1.2,0.6-2.3,0.6-2.3c0.2-1.7-0.9-3.1-2.1-4c-1.2-0.9-2.4-1.5-2.4-1.5l-0.1,0h-6c-0.2,0-0.3-0.1-0.4-0.3
		c-0.1-0.2-0.3-0.5-0.4-0.8c-0.2-0.7-0.3-1.6-0.3-2.5c-0.1-1.8,0.2-3.6,0.2-3.6l0,0v-3.4c0-1.7-1.2-2.8-2.3-3.5
		c-1.1-0.7-2.2-1-2.2-1l-0.1,0h-7.6c-0.2-0.3-0.4-0.6-0.6-0.7c-0.4-0.2-0.8-0.4-1.2-0.6c-0.8-0.3-1.6-0.4-1.6-0.4
		c-1.4-0.4-3.5-0.4-3.5-0.4h-0.1l-0.1,0.1c-2.7,1.8-7.3,2.6-11.3,2.9c-4,0.3-7.2,0.1-7.2,0.1l-13.4-0.9l-0.1,0.1c0,0,0,0-0.2,0.1
		c-0.1,0-0.3,0.1-0.6,0.2c-0.4,0.1-1,0.2-1.6,0.3c-1.1,0.2-2.2,0.3-2.2,0.3l-0.2,0l-0.1,0.2c-0.4,1.1-1.5,1.5-1.5,1.5L124,156
		c-0.8-0.7-2-1.2-3.1-1.5c-1.2-0.4-2.2-0.6-2.3-0.6c0,0,0,0,0,0c0,0-0.1,0-0.1,0c-0.1,0-0.1,0-0.2,0c-0.2,0-0.4,0-0.7,0
		c-0.6,0-1.3,0-2.2,0c-1.8,0.1-4.1,0.2-6.4,0.3c-4.6,0.3-9.2,0.6-9.2,0.6c-5.3,0.2-8.9-0.6-11.1-1.5c-2.2-0.9-3.1-1.8-3.1-1.8
		C84.9,150.7,84.3,150.3,83.7,150.3L83.7,150.3z M83.6,151c0.4,0,0.8,0.2,1.3,0.9l0,0l0,0c0,0,1,1,3.4,1.9c2.3,0.9,6,1.8,11.4,1.6h0
		c0,0,4.6-0.3,9.2-0.6c2.3-0.1,4.6-0.2,6.4-0.3c0.9,0,1.6,0,2.2,0c0.3,0,0.5,0,0.6,0c0.1,0,0.1,0,0.1,0l0,0l0.1,0
		c0,0,1.1,0.2,2.3,0.6c1.2,0.4,2.6,0.9,3.1,1.5l0.1,0.2l1.5-0.5c0,0,0.9-0.5,1.5-1.5c-0.5,1.2-1.6,1.5-1.6,1.5l-1.3,0.9
		c-1.3-1.3-5.5-2.1-5.5-2.1c-0.4-0.4-18.8,0.8-18.8,0.8c-10.7,0.4-14.5-3.4-14.5-3.4c-2.1-3-4.3,1.3-4.3,1.3c-2.1,3-8.5,1.3-8.5,1.3
		c-2.4,0.8-3.4,1.7-3.9,2.6c0-0.1,0.1-0.3,0.2-0.5c0.4-0.7,1.4-1.7,3.8-2.6c0.1,0,1.6,0.4,3.4,0.5c1.9,0.1,4.2-0.3,5.4-1.9l0,0l0,0
		c0,0,0.5-1,1.2-1.7C82.9,151.2,83.3,151,83.6,151L83.6,151z M163.7,151.6c0.2,0,2.1,0,3.2,0.4l0,0l0,0c0,0,0.7,0.1,1.5,0.4
		c0.4,0.1,0.8,0.3,1.1,0.5c0,0,0.1,0.1,0.1,0.1c-1-0.6-2.6-0.9-2.6-0.9C165.8,151.7,163.6,151.7,163.7,151.6
		c-5.6,3.9-18.9,3.1-18.9,3.1l-13.2-0.9c-0.4,0.4-4.5,0.8-4.6,0.8c0,0,0-0.1,0.1-0.1c0.1,0,1-0.1,2.1-0.3c0.6-0.1,1.1-0.2,1.6-0.3
		c0.2-0.1,0.4-0.1,0.6-0.2c0.1,0,0.2-0.1,0.3-0.1l13.1,0.8c0,0,3.3,0.2,7.3,0C156.2,154.3,160.8,153.6,163.7,151.6L163.7,151.6z
		 M170.4,153.8h7.7c0,0,0.6,0.2,1.3,0.6c-0.7-0.4-1.3-0.5-1.3-0.5L170.4,153.8C170.4,153.8,170.4,153.8,170.4,153.8L170.4,153.8z
		 M179.5,154.4c0.2,0.1,0.3,0.2,0.5,0.3c0.1,0,0.1,0.1,0.1,0.1C180,154.7,179.8,154.6,179.5,154.4L179.5,154.4z M182.6,168.3
		c0,0.1,0.1,0.2,0.1,0.2c0.2,0.3,0.5,0.5,0.9,0.6l0,0h5.9c0.1,0,1.1,0.5,2.2,1.4c0.7,0.6,1.4,1.3,1.7,2.2c-0.8-1.2-2.2-2.2-3-2.7
		c-0.4-0.2-0.7-0.4-0.7-0.4h-6C183.1,169.5,182.8,169,182.6,168.3L182.6,168.3z M68,169.6c-1.1,2-4.1,1.3-4.1,1.3
		c-6.4-1.3-8.5,3-8.5,3c-0.1,0.1-0.1,0.2-0.1,0.2c0.1-0.3,0.2-0.6,0.4-0.9l0-0.1c0,0,0.5-1,1.7-1.8c1.3-0.9,3.3-1.6,6.4-1
		c0,0,1,0.2,2.1,0.1c0.5-0.1,1.1-0.2,1.6-0.5C67.7,169.9,67.8,169.7,68,169.6L68,169.6z M182,211.7c0.5,0.8,1.6,1.5,3.8,1.2
		c0,0,1.6-0.1,3.3,0.2c1.8,0.3,3.6,1,4.4,2.6c0,0,0,0.2,0.1,0.3c-2-3-7.8-2.6-7.8-2.6C183,213.8,182.2,212.6,182,211.7L182,211.7z
		 M67.4,213.8c0,0,0,0.2,0,0.2c0,0.2-0.1,0.4-0.3,0.5c-0.2,0.1-0.4,0.2-0.7,0.3c-1.8,0.5-5.4,0-5.4,0c-3.1,0.3-4.6,2.4-5.2,3.5
		c0,0,1.2-3.6,5.2-4c0.1,0,1.6,0.2,3.2,0.2c0.8,0,1.6,0,2.3-0.2c0.3-0.1,0.6-0.2,0.9-0.4C67.3,213.8,67.3,213.8,67.4,213.8
		L67.4,213.8z M97.1,32l-0.1,0.1C90.3,37.5,80.6,35,80.6,35l0,0h0c-9.4,0-12.4,0.4-12.4,0.4l-0.1,0l-0.1,0.1c-1,1.2-2.2,1.1-3.2,0.8
		c-1-0.3-1.8-0.9-1.8-0.9c-0.2-0.3-0.5-0.4-0.8-0.6c-0.4-0.1-0.8-0.2-1.2-0.3c-0.8-0.1-1.6-0.1-1.6-0.1h0l0,0
		C49.9,35.2,44,34.7,40.5,34c-1.7-0.3-2.9-0.7-3.6-1c-0.7-0.3-1-0.5-1-0.5l0,0c-0.1-0.1-0.3-0.2-0.4-0.2c-0.2,0-0.3-0.1-0.5-0.1
		c-0.4-0.1-0.9-0.1-1.3-0.1C32.8,32,32,32,32,32h-0.2l-0.1,0.2c-0.4,0.7-1.5,2.3-1.6,2.4c-0.1,0-0.2,0.1-0.4,0.1
		c-0.2,0-0.6,0-0.9,0.1c-0.7,0-1.6,0-2.4,0c-1.7-0.1-3.3-0.2-3.3-0.2l0,0h0c-1.8,0-2.8,0.6-3.4,1.2C19,36.4,18.8,37,18.8,37l0,0
		l-0.4,8.1v0c0.2,2.5,0,3.6-0.2,3.8c-0.1,0.1-0.1,0.1-0.1,0.1l-0.3-0.2l-0.2,0.3c-0.1,0.2-0.5,0.4-1.1,0.5c-0.6,0.1-1.4,0.2-2.1,0.2
		c-1.5,0.1-2.8,0-2.8,0l0,0l0,0c-1.2,0.1-2,0.7-2.6,1.4c-0.6,0.8-1,1.7-1.2,2.6c-0.4,1.8-0.3,3.6-0.3,3.6v0c0.2,1.2,0.9,2,1.7,2.5
		c0.8,0.5,1.8,0.8,2.7,0.9c1.8,0.2,3.4-0.1,3.5-0.1h0c2.3,0.2,3.1,0.9,3.4,1.5c0.3,0.6,0.1,1.1,0.1,1.1l0,0v0.1
		c0,0.9,0.1,7.9,0.2,14.7c0.1,6.8,0.2,13.3,0.2,13.4c-0.1,0.9-0.3,1.5-0.6,1.8c-0.3,0.4-0.6,0.5-0.9,0.6c-0.7,0.1-1.3-0.1-1.3-0.1
		l-0.1,0h-0.1c-4.8,0-7,1.7-7.9,3.4c-0.9,1.7-0.6,3.4-0.6,3.4c0.2,3.1,2.2,4.5,4,5.1c1.8,0.6,3.6,0.3,3.6,0.3l0,0
		c2.3,0,3.2,0.6,3.6,1.1c0.4,0.5,0.3,1,0.3,1l0,0.1l0,0.1c0,0,0,0.2,0.1,0.5c0,0.3,0,0.8,0,1.2c0,1-0.1,2.2-0.2,3.5
		c-0.2,2.4-0.4,4.8-0.4,4.8v0l0,0c0.4,2.5,1.9,3.5,3.1,3.7c1.2,0.3,2.2,0,2.3,0h0l34,0.9c4.9,3.5,8,3.6,9.9,2.7
		c1.8-0.9,2.3-2.6,2.3-2.8l0.6,0.1c0.4,0.1,1.1,0.1,2.2,0.1c1.1,0,2.5,0,4.1,0.1c3.3,0,7.4,0,11.4,0c4,0,8-0.1,11.1-0.1
		c3,0,5.1-0.1,5.3-0.1h0c1.4,0.3,2.5,0.2,3.3-0.1c0.9-0.3,1.4-0.9,1.8-1.5c0.8-1.2,0.7-2.5,0.7-2.6v0l0.4-10.2
		c0.2-0.7,0.9-1.2,1.6-1.5c0.7-0.3,1.4-0.4,1.4-0.4c4.7,0.6,7-1,8.1-2.9c1-1.9,0.8-3.9,0.8-3.9v0c-0.2-3.1-2.1-4.6-3.8-5.3
		c-1.7-0.7-3.4-0.5-3.4-0.5l0,0c-2.3,0-3.3-0.8-3.8-1.5c-0.5-0.8-0.5-1.5-0.5-1.5v0c0.1-0.7,0.2-2.6,0.2-5.1
		c0.1-2.5,0.1-5.6,0.1-8.7c0.1-6.1,0.1-11.8,0.1-11.8c0-0.5,0.3-1.4,0.6-2c0.3-0.6,0.5-0.9,0.5-1c2.6,0.3,4.6,0.1,6-0.4
		c1.5-0.5,2.4-1.4,2.9-2.3c1-1.8,0.6-3.6,0.6-3.7c0.2-1.6,0-2.8-0.6-3.7c-0.6-0.9-1.4-1.3-2.3-1.6c-1.7-0.5-3.3-0.2-3.4-0.2
		c-2.9,0-3.9-0.8-4.3-1.5c-0.4-0.7-0.1-1.4-0.1-1.4l0,0l0,0c0.6-4.1,0.4-6.9,0-8.7c-0.4-1.8-1-2.6-1-2.6l0,0l-0.1,0
		c-0.4-0.3-1.1-0.4-1.8-0.5c-0.8-0.1-1.6-0.1-2.5-0.1c-1.7,0-3.2,0.1-3.2,0.1l-0.1,0l-0.1,0.1c-0.3,0.2-0.6,0.2-1.1,0
		c-0.5-0.2-1-0.7-1.4-1.2c-0.9-1-1.7-2.1-1.7-2.1l-0.1-0.1L97.1,32z M217.7,32l-0.1,0.1c-6.7,5.4-16.3,2.9-16.3,2.9l0,0h-0.1
		c-9,0-12,0.4-12,0.4l-0.1,0l-0.1,0.1c-1,1.2-2.2,1.1-3.2,0.8c-1-0.3-1.8-0.8-1.8-0.9c-0.2-0.3-0.5-0.4-0.8-0.6
		c-0.4-0.1-0.8-0.2-1.2-0.3c-0.8-0.1-1.6-0.1-1.6-0.1h0l0,0c-9.4,0.6-15.2,0.1-18.7-0.6c-1.7-0.3-2.9-0.7-3.6-1
		c-0.7-0.3-1-0.5-1-0.5l0,0c-0.1-0.1-0.3-0.2-0.4-0.2c-0.2,0-0.3-0.1-0.5-0.1c-0.4-0.1-0.9-0.1-1.3-0.1C153.8,32,153,32,153,32h-0.2
		l-0.1,0.2c-0.4,0.7-1.5,2.3-1.6,2.4c-0.1,0-0.2,0-0.4,0.1c-0.2,0-0.5,0-0.9,0.1c-0.7,0-1.6,0-2.4,0c-1.7-0.1-3.3-0.2-3.3-0.2l0,0h0
		c-2,0-3.1,0.6-3.8,1.2c-0.7,0.6-0.8,1.3-0.8,1.3v8.6c0.2,2.3-0.1,3.2-0.2,3.4c-0.1,0.1-0.1,0.1-0.1,0.1c0,0,0,0,0,0l-0.3-0.2
		l-0.2,0.3c-0.1,0.2-0.5,0.4-1.1,0.5c-0.6,0.1-1.4,0.2-2.1,0.2c-1.5,0.1-2.8,0-2.8,0l0,0l0,0c-1.3,0.1-2.2,0.7-2.9,1.4
		c-0.7,0.8-1.1,1.7-1.3,2.6c-0.5,1.8-0.4,3.6-0.4,3.6v0l0,0c0.2,1.2,0.9,2,1.7,2.5c0.8,0.5,1.8,0.8,2.7,0.9c1.8,0.2,3.4-0.1,3.5-0.1
		h0c2.3,0.2,3.1,0.9,3.4,1.5c0.3,0.6,0.1,1.1,0.1,1.1l0,0v0c-0.1,0.3-0.1,0.9-0.1,1.8c0,0.9,0,2.1-0.1,3.4c0,2.7,0,6.2,0,9.6
		c0.1,6.8,0.2,13.3,0.2,13.4c-0.1,0.9-0.4,1.5-0.6,1.8c-0.3,0.4-0.6,0.5-0.9,0.6c-0.7,0.1-1.3-0.1-1.3-0.1l-0.1,0h-0.1
		c-4.8,0-7,1.7-7.9,3.4c-0.9,1.7-0.6,3.4-0.6,3.4c0.2,3.1,2.2,4.5,4,5.1c1.8,0.6,3.6,0.3,3.6,0.3l0,0c2.1,0,3,0.6,3.5,1.1
		c0.5,0.6,0.5,1.1,0.5,1.1v0.1l0,0.1c0,0,0,0.2,0.1,0.5c0,0.3,0,0.8,0,1.2c0,1-0.1,2.2-0.2,3.5c-0.2,2.4-0.4,4.8-0.4,4.8l0,0l0,0
		c0.4,2.5,1.9,3.5,3.1,3.7c1.2,0.3,2.2,0,2.3,0h0l34,0.9c4.9,3.5,8,3.6,9.9,2.7c1.8-0.9,2.4-2.7,2.4-2.9l0,0
		c0.2-0.3,0.5-0.4,0.6-0.4c0.1,0,0.1,0,0.1,0c0,0,0,0-0.1,0.1l-0.2,0.4l0.5,0.1c0.4,0.1,1.1,0.1,2.2,0.1c1.1,0,2.5,0,4.1,0.1
		c3.3,0,7.4,0,11.4,0c4,0,8-0.1,11.1-0.1c3,0,5.1-0.1,5.3-0.1c1.5,0.3,2.6,0.2,3.5-0.1c0.9-0.3,1.5-0.9,1.8-1.5
		c0.7-1.2,0.6-2.6,0.6-2.6l0,0l0.4-10.2c0.2-0.7,0.9-1.2,1.6-1.5c0.7-0.3,1.4-0.4,1.4-0.4c4.7,0.6,7-1.1,8.1-2.9
		c1-1.9,0.8-3.8,0.8-3.9v0c-0.2-3.1-2.1-4.6-3.8-5.3c-1.7-0.7-3.4-0.5-3.4-0.5l0,0c-2.5,0-3.5-0.8-4-1.5c-0.5-0.7-0.4-1.5-0.4-1.5v0
		c0-2.5,0.4-25.6,0.4-25.6v0c0-0.5,0.3-1.4,0.6-2c0.3-0.6,0.5-0.9,0.5-1c2.6,0.3,4.6,0.1,6-0.4c1.5-0.5,2.4-1.4,2.9-2.3
		c1-1.8,0.6-3.6,0.6-3.7c0.2-1.6-0.1-2.8-0.6-3.7c-0.6-0.9-1.4-1.3-2.3-1.6c-1.7-0.5-3.3-0.2-3.4-0.2c-2.9,0-3.9-0.8-4.3-1.5
		c-0.4-0.7-0.1-1.4-0.1-1.4l0-0.1c0.6-4.1,0.4-6.9,0.1-8.7c-0.4-1.8-1-2.6-1-2.6l0,0l-0.1,0c-0.4-0.3-1.1-0.4-1.8-0.5
		c-0.8-0.1-1.6-0.1-2.5-0.1c-1.7,0-3.2,0.1-3.2,0.1l-0.1,0l-0.1,0.1c-0.3,0.2-0.6,0.2-1.1,0c-0.5-0.2-1-0.7-1.4-1.2
		c-0.9-1-1.7-2.1-1.7-2.1l-0.1-0.1L217.7,32z"/>
	<path d="M127,300l-0.9-0.4C125.3,299.1,8.9,248.9,0,95.9V0h252.3v95.5c0,37.5-11.9,133-124.4,203.7L127,300z M3,3v92.5
		c8.5,144.9,114.2,196.9,124,201.1c110.4-70.3,122.3-164.1,122.3-201.1V3L3,3z"/>
	<path class="st2" d="M37.5,35.8c0,0-2.6,0-2.1,1.7l-0.8,64.8c0,0,0,3,4.7,3.4c0,0,6,0.4,7.2,0h13.6c0,0,2.6,2.6,2.6-0.4
		c0,0,1.7-52.4,0.8-63.5c0,0,0-4.7-3.8-4.7c0,0-15.3,1.3-16.6,0L37.5,35.8z M96.7,35.9c-0.6,0-1.5,0.1-2.9,0.7c0,0,0.4,1.7-18.7,0.9
		c-0.4,0-7.7,0-8.1,3c0,0-0.4,30.7-0.4,31.5L66,97.6l-0.4,8.9c0,0,1.3,1.7,2.1,0.4c0,0,6.4-1.7,10.7-0.8c0,0,12.8,1.3,15.8-0.9
		c0,0,2.1,0.9,2.6-2.1c0,0,0.9-56.7,0.4-57.5c0,0,0.9-8.1,0.4-8.9C97.6,36.7,97.6,36,96.7,35.9L96.7,35.9z M26.4,37.5
		c-0.8,0-2.1,0.5-3.8,2.1l-0.4,8.5c0,0,0,4.7-4.3,4.3c0,0-4.7,0-7.2,2.1c0,0-1.3,4.3,3.4,3.8c0,0,7.2,0,7.7,3l-0.4,30.7
		c0,0,1.7,5.1-3.8,5.1c0,0-6.8-0.4-6.8,3.8c0,0,1.3,3.4,7.2,2.6c0,0,4.3,0.9,3.8,4.7v7.7c0,0-0.4,3,3.8,3.4h31.5c0,0,1.7,0,1.7-1.7
		c0,0,0-1.7-2.6-1.7l-26-0.8c0,0-4.3,1.3-4.7-5.1c0,0,0.4-54.7,0.4-57.1c0,0,0,0,0,0s0-0.2,0-0.2c0,0,0-0.6,0-0.6c0,0,0,0,0,0
		c0-2.1-0.1-9.5,2.1-13.2C28.1,38.8,27.8,37.5,26.4,37.5L26.4,37.5z M107.1,37.7c-1.8,0.2-1.8,2.4-1.8,2.4c0.9,0.9,1.3,3.8,1.3,3.8
		c0.4,6.8,0,14.5,0,21.7c-0.4,24.3-1.3,46.4-1.3,46.4c0,4.7-2.6,3.4-2.6,3.4H74.6c-3,0-3,1.7-3,1.7c0.4,2.6,3,1.7,3,1.7
		c2.6,0.4,30.7,0,30.7,0c4.3,0.4,3.8-5.1,3.8-5.1c0.4-9.8,1.3-10.7,1.3-10.7c0.9-0.4,5.5-0.4,5.5-0.4c7.7,0.4,4.3-4.7,4.3-4.7
		c-0.9-1.3-6-1.3-6-1.3c-4.7,0.4-4.3-4.7-4.3-4.7l0.4-29.4c-0.9-2.6,1.3-3.8,1.3-3.8h4.7c6.4,0.4,4.7-3.8,4.7-3.8c0-2.1-5.5-3-5.5-3
		c-5.1,0.9-4.7-2.1-4.7-2.1v-7.2c0.9-4.7-2.1-4.7-2.1-4.7C108,37.7,107.5,37.6,107.1,37.7L107.1,37.7z M101.1,38.6
		c-0.5,0.1-1.1,0.5-1.8,1.5V104c0,0,1.7,5.5,4.3,5.1c0,0,0.4-1.3,0.4-3.4l0.9-60.9C104.8,44.8,103.4,38.3,101.1,38.6L101.1,38.6z
		 M32.4,39.2c-3.8,0-4.3,7.2-4.3,7.2L27.7,107c0.4,3,1.3,2.6,1.3,2.6c3.8-2.6,3.4-6.8,3.4-6.8s0.4-57.5,0.4-58.4
		C32.8,43.5,32.4,39.2,32.4,39.2L32.4,39.2z M34.2,107.4c-0.2,0-0.4,0-0.6,0.1c-0.9,0.2-1.9,1-2.8,2.7l0,0l0,0c0,0-0.3,0.8-0.1,1.6
		c0.1,0.4,0.3,0.8,0.8,1c0.4,0.2,1,0.2,1.8,0h20.8l5.6,1.3l0.1,0c0,0,0.4-0.1,0.9-0.3c0.5-0.2,1.1-0.4,1.5-0.9
		c0.2-0.2,0.4-0.5,0.5-0.8c0.1-0.3,0-0.7-0.1-1.1c-0.3-0.7-1.1-1.5-2.7-2.3l-0.1,0H39.7c0,0-0.9-0.2-2-0.5c-1.1-0.3-2.3-0.6-2.6-0.8
		l0,0h0C35.1,107.5,34.7,107.3,34.2,107.4L34.2,107.4z M97.5,108.5c-1.2-0.1-2.9,0.2-2.9,0.2c-3.4,2.1-23.4,0.4-23.4,0.4
		c-1.3,0-3,2.1-3,2.1c-0.4,3.8,6,2.1,5.5,2.1h23.9c3.8,0.9,3.8-0.8,3.8-0.8c0-1.3-3-3.8-3-3.8C98.2,108.6,97.9,108.5,97.5,108.5
		L97.5,108.5z M65.9,113.3c-0.1,0-0.2,0-0.3,0.1c0,0-3.8,0-3.8,5.1c0,0,0.4,3.8,4.3,3.8c0,0,3.4-0.9,3.4-4.7
		C69.5,117.6,67.6,113.1,65.9,113.3L65.9,113.3z M157.7,35.8c0,0-2.6,0-2.1,1.7l-0.8,64.8c0,0,0,3,4.7,3.4c0,0,6,0.4,7.2,0h13.6
		c0,0,2.6,2.6,2.6-0.9c0,0,1.7-52.4,0.9-63.5c0,0,0-4.7-3.8-4.7c0,0-15.3,1.3-16.6,0L157.7,35.8z M216.7,36.3
		c-0.5,0-1.2,0.2-2.3,0.7c0,0,0.4,1.7-18.8,0.9c-0.4,0-8.1-0.4-8.1,3c0,0-0.4,30.7-0.4,31.5L186.6,98l-0.8,8.9c0,0,1.3,1.7,2.1,0.4
		c0,0,6.4-1.7,10.7-0.8c0,0,12.8,1.3,15.8-0.8c0,0,2.1,0.9,2.6-2.1c0,0,0.9-56.7,0.4-57.5c0,0,0.9-8.1,0.4-9
		C217.8,37.1,217.8,36.3,216.7,36.3L216.7,36.3z M146.1,37.5c-0.8,0-2.1,0.5-3.8,2.1v8.1c0,0,0,4.7-4.3,4.3c0,0-4.7,0-7.2,2.1
		c0,0-1.3,4.3,3.4,3.8c0,0,7.2,0,7.7,3l-0.4,30.7c0,0,1.7,5.1-4.3,5.1c0,0-6.8-0.4-6.8,3.8c0,0,1.3,3.4,7.2,2.6c0,0,4.3,0.9,4.3,4.7
		v7.7c0,0-0.4,3,3.4,3.4h31.5c0,0,1.7,0,1.7-1.7c0,0,0-1.7-2.6-1.7l-25.6-0.4c0,0-4.3,1.3-4.7-5.1c0,0,0.4-57.1,0-58v0.9
		c0,0-0.4-9.8,2.1-14.1C147.9,38.8,147.5,37.5,146.1,37.5L146.1,37.5z M227.3,37.7c-1.8,0.2-1.8,2.4-1.8,2.4
		c0.4,0.9,1.3,3.8,1.3,3.8c0.4,6.8,0,14.5,0,21.7c-0.4,24.3-1.3,46.4-1.3,46.4c0,4.7-2.6,3.4-2.6,3.4h-28.1c-3,0-3,1.7-3,1.7
		c0.4,2.6,3.4,1.7,3.4,1.3c2.6,0.4,30.7,0,30.7,0c4.3,0.4,3.8-5.1,3.8-5.1c0.4-9.8,1.3-10.7,1.3-10.7c0.9-0.4,5.5-0.4,5.5-0.4
		c7.2,0.4,3.8-4.7,3.8-4.7c-0.9-1.3-6-1.3-6-1.3c-4.7,0.4-4.3-4.7-4.3-4.7l0.4-29.4c-0.9-2.6,1.3-3.8,1.3-3.8h4.7
		c6.4,0.4,4.7-3.8,4.7-3.8c0-2.1-5.5-3-5.5-3c-5.1,0.9-4.7-2.1-4.7-2.1v-6.8c0.9-4.7-2.1-4.7-2.1-4.7
		C228.2,37.7,227.7,37.6,227.3,37.7L227.3,37.7z M221.2,38.8c-0.5,0-1.1,0.4-1.8,1.3V104c0,0,1.7,5.5,4.3,5.1c0,0,0.4-1.3,0.4-3.4
		l0.8-60.9C225,44.8,223.6,38.6,221.2,38.8L221.2,38.8z M152.6,39.2c-3.8,0-4.3,7.2-4.3,7.2l-0.4,60.5c0.4,3,1.3,2.6,1.3,2.6
		c3.8-2.6,3.4-6.8,3.4-6.8s0.4-57.5,0.4-58.4C153,43.5,152.6,39.2,152.6,39.2L152.6,39.2z M155,107.3c-0.7,0-2.1,0.3-3.3,2.7
		c0,0-0.9,3,2.1,2.1h20.9l5.5,1.3c0,0,6-1.3,0-4.7h-20c0,0-3.8-0.9-4.7-1.3C155.5,107.4,155.3,107.3,155,107.3L155,107.3z
		 M217.9,108.1c-1.1,0-2.2,0.2-2.2,0.2c-3.4,2.1-23.4,0.4-23.4,0.4c-1.3,0-3,2.1-3,2.1c-0.9,3.8,5.5,2.1,5.5,2.1h23.9
		c3.8,0.9,3.8-0.8,3.8-0.8c0-1.3-3-3.8-3-3.8C219.1,108.1,218.5,108,217.9,108.1L217.9,108.1z M186.5,112.8c-0.1,0-0.2,0-0.3,0.1
		c0,0-3.8,0-3.4,5.1c0,0,0.4,3.8,4.3,3.8c0,0,3.4-0.4,3.4-4.7C190.5,117.2,188.2,112.7,186.5,112.8L186.5,112.8z M123.2,195.6
		c0,0,0,4.7-0.4,9.4c-0.4,2.6,0.9,14.5,0,20.5c0,0,0,2.1-4.3,0.4c0,0-26,0.4-26.4-0.4c0,0-7.2,0.4-7.7-3.4c0,0,0.9-27.7,0.4-28.6
		c0,0-0.4-14.9,0-16.6c0,0,0.4-14.1,0-15.8c0,0,0-3.4-0.4-4.7c0,0,0-2.1,3.4-0.9c0,0,1.3,2.1,7.7,1.3c0,0,4.7,0.9,9.4,0
		c0,0,10.2-0.9,12.8,0c0,0,4.3-0.9,5.1,3.8V173l1.3,4.3l1.3-0.9l0.4-3v-13.2c0,0,0.9-2.6,4.3-3c0,0,5.1-0.4,6,0
		c0.9,0.4,11.9,0.9,14.9,0.4c3-0.4,3.4,2.1,12.8-2.6c0,0,2.6,0,2.6,1.7c0,0-0.9,17,0,20.5c0,0,0,31.5-0.9,33.7l0.4,10.2
		c0,0,0.4,4.3-6.8,4.7c0,0,4.3,0.4-23.4-0.4c0,0-4.3-0.4-9.4,2.1c0,0-0.9-0.4-0.9-3c0,0,0.9-9.4,0-18.7l-0.4-10.2L123.2,195.6z
		 M167.9,223.3c0,0,2.6,4.7,3.4,5.1c0,0,2.1,2.6,1.7-2.1l0.4-58.4c0,0-0.4-2.1,0-5.1l-2.6-4.3c0,0-2.6-2.1-2.6,1.3v61.8L167.9,223.3
		z M83.1,225.9c0,0,3,3,7.7,3l27.3,0.4c0,0,3,0.4,3,1.7c0,0-0.4,2.6-4.3,1.7l-33.2-0.4l-3.8,0.4c0,0-2.6-0.4,1.3-5.1L83.1,225.9z
		 M77.1,159c0,0-2.6,4.3-2.1,5.5v67.3c0,0-0.4,4.7,3.4,3.4c0,0,35.4-0.9,37.9,0c0,0,3.4,0.4,2.1,2.1c0,0,0,1.3-2.1,0.9
		c0,0-16.6,1.7-32,0.9c0,0-10.2,0.4-10.7-0.4c0,0-1.7-0.4-1.7-6c0,0,0-5.5-0.4-6.4c0,0,0.4-3-4.7-3.4c0,0-7.2,1.3-7.2-3
		c0,0,0.9-3,8.1-2.6c0,0,5.1,0.9,3.8-3.4l0.4-29.8c0,0,0.9-5.1-3-5.5h-4.3c0,0-6,0-5.5-3.4c0,0,2.1-3.4,8.1-3c0,0,4.3,0.9,4.7-4.3
		c0,0,0-10.2,2.1-10.7C73.7,157.3,78.8,157.7,77.1,159 M80.5,158.5c0,0,1.3,0,1.3,2.6L81.4,222c0,0,0.4,3.8-3,6.8
		c0,0-1.7,2.1-1.7-1.3l0.9-62.2C77.6,165.4,77.6,160.7,80.5,158.5 M128.3,230.1c0,0,3.4-2.6,5.1-2.1c0,0,18.3,1.3,23.9,0.4
		c5.5-0.9,2.1-0.4,2.1-0.4s4.7,0,6.4-1.7c0,0,1.3-0.4,2.1,0.9l3,3.4c0,0,0,2.1-3.4,1.7c0,0-32.8,0-34.1,0.4
		C133.8,232.7,127.8,233.5,128.3,230.1 M130.4,235.7c0,0,2.6-1.3,4.3-0.9c1.7,0.4,25.1-0.4,25.1-0.4s10.2,0.9,11.9-0.9l2.6-0.9
		c0,0,0.9-1.3,0.9-3v-7.2l0.4-2.1v-55.8c0,0,0.9-4.3-1.7-6.8c0,0,0-1.7,0.9-1.3c0.9,0.4,0.4,0,0.4,0s3.4-0.9,4.3,0.4
		c0,0,1.7,4.7,0,7.7c0,0-0.4,6,2.6,6c0,0,1.3,1.3,3.4,0.4c0,0,5.1,0.4,5.1,2.1c0,0,0,3.8-3.4,3l-4.7,0.4c0,0-3.4,0.9-3,4.3
		c0.4,3.8,0,31.5,0,31.5s0,3.4,5.1,3c0,0,6.4-0.4,6.4,1.7c0,0,1.7,3.8-3,4.3c0,0-8.5-0.4-7.7,2.1c0,0-0.4,5.5-0.9,6.8
		c0,0,0.9,4.7,0,5.5c0,0-0.4,2.6-6,2.1c0,0-34.5,0-40.1,0.4C133,239.1,129.5,238.7,130.4,235.7 M124.4,231.8c0,0,3.4,0.4,3.4,3.8
		c0,3.4,0,5.1-1.7,5.5c-2.1,0.4-4.3-0.4-4.7-3C120.6,235.7,121.4,232.7,124.4,231.8"/>
	<path d="M60.9,59.2l-1.7,3.8c0,0-4.3,19.6-6.8,23.4c0,0-0.4,4.3-3.8,0.9c0,0-8.1-24.7-8.5-25.6l-2.6-1.7c0,0-1.7-2.1,1.3-2.6h7.7
		c0,0,2.6,2.1-0.9,4.3c0,0,0.4,3.4,4.7,15.8c0,0,1.3,4.7,2.6,1.3l4.3-14.5l-1.3-4.3c0,0-1.3-2.1,0.4-2.1
		C56.2,58,60.5,57.5,60.9,59.2 M72.4,62.6V84L72,85.7c0,0-2.1,2.6-0.4,3c0,0-1.7,1.3,12.8,1.3c0,0,5.5,0.9,4.3-6.4
		c0,0-0.4-2.6-2.6,1.3c0,0-0.4,3.4-8.1,2.1c0,0-1.7-1.3-1.7-3V75c0,0,0-2.1,3.4-2.1c0,0,3.8,2.6,4.3,1.3c0,0,1.3-3.4,0-5.1
		c0,0-1.7,0-2.1,0.4c0,0-1.3,2.6-4.7,0.9c0,0-1.7-3.4-0.4-6c0,0-0.4-5.1,3-4.7c0,0,4.3,0.9,4.3,2.1c0,0,0.9,2.6,2.1-0.4l-0.9-3
		c0,0-0.4-1.3-1.7-0.9c0,0-6.8,0.9-7.7,0L70.3,58c0,0-0.9,2.1,1.7,3C72,61.4,72.4,61.8,72.4,62.6 M194.7,59.2
		c-0.4-1.7,3.4-1.7,3.4-1.7l2.1,0.4c1.3,0,3,0.4,3,0.4c1.3,2.1-0.9,3.4-0.9,3.4l-0.9,2.6v21.3c0.4,0.9,2.1,3,2.1,3
		c0,1.7-2.1,1.3-2.1,1.3h-6c-1.7,0-1.3-2.1-1.3-2.1c2.1-0.9,2.6-4.7,2.6-4.7v-20L194.7,59.2z M167.5,78l-0.4,6.4l1.7,3
		c1.3,1.7-0.9,3-0.9,3l-6.4-0.9c-1.3-0.4,0-2.6,0-2.6c1.7-0.9,1.7-3.4,1.7-3.4V63.1c0-0.9-1.7-3-1.7-3c-1.3,0-0.9-2.1-0.9-2.1
		c0.4-0.9,3.8-0.4,3.8-0.4h8.5c8.1,2.6,6.8,8.5,6.8,8.5c0.4,6-5.5,8.1-5.5,8.1l-0.4,3.4l6,9.4c0.9,0.9,0.9,1.7,0.9,1.7
		c-0.9,2.1-4.3,0-4.3,0l-7.2-11.5C168.3,76.3,167.5,78,167.5,78 M167.5,61.8v10.7c3.8,3,6-1.3,6-1.3c5.1-4.7,0-9.4-0.9-10.7
		c-0.9-1.3-4.7,0-4.7,0L167.5,61.8z M105.3,181.1c0,0,0.4,14.9,0,17v3.4c0,0,0.9,2.1,2.1,3c0,0,0.9,3-1.3,2.6c0,0-5.1-0.4-6.4,0
		c0,0-3,0,0-3.4c0,0,0.9-1.3,0.9-5.1c0,0,0-17,0.4-17.9c0,0,0.4-2.1-0.9-3h-2.6l-3,3c0,0-0.9,3-2.1,0V179l1.7-4.7h1.3
		c0,0,1.7,1.3,3.4,1.7h9.4l3.4-1.7c0,0,1.3,0,0.9,2.1c0,0,0.4,4.7-2.1,5.1c0,0-1.7-0.4-2.6-3C107.8,178.1,105.3,176.4,105.3,181.1
		 M149.6,175.6c0,0-7.7-0.9-7.7,7.7c0,0-0.9,5.5,7.7,9.4c0,0,6.4,3,6,6.8c0,0-0.9,6.8-7.7,3.4c0,0-3.4-1.7-3-3.4
		c0,0-0.9-2.1-2.1-1.7c0,0-1.3,0.4-0.9,7.2c0,0,0,2.6,3,0l1.7,0.4c0,0,5.5,4.3,10.2-0.9c0,0,5.1-4.7,1.3-10.2c0,0-2.6-4.3-7.2-6
		c0,0-4.3-2.1-5.5-5.5c0,0,1.3-6,6.8-3c0,0,2.1,2.6,3.4,3c0,0,1.7,0,1.3-3.8l-0.4-3c0,0-0.4-2.1-3.4,0
		C153,175.6,150.4,176.9,149.6,175.6 M125.3,171.3c1.3,0.9,1.7,3,1.7,3c4.3,10.7,7.7,26.4,7.7,26.4c0.9,2.1,3,3.4,3,3.4
		c3.4,1.3,0,2.1,0,2.1c-1.3,0.4-6,0-6,0c-2.6-0.4-1.3-1.3-1.3-1.3c0.9-0.9,0-5.1,0-5.1c0-1.7-2.1-4.3-2.1-4.3
		c-0.9-0.4-2.1,1.3-2.1,1.3s-2.1,0.9-2.6,0c-0.4-0.9-1.7-1.7-1.7-1.7c-2.6,0-3.4,6-3.4,6c1.3,5.1,0,4.3,0,4.3
		c-1.3,1.7-5.1,0.4-5.1,0.4c-1.7-0.4-0.4-1.7-0.4-1.7c2.1-0.4,3-3,3-3c0.9-1.3,7.7-27.7,7.7-27.7C123.2,173,123.6,170.5,125.3,171.3
		 M121.9,184.9c0,0.9-1.7,6.8-1.7,6.8l1.3,2.1h4.3c0.9,0,1.3-0.9,1.3-2.1c0-0.9-2.1-7.2-2.1-7.2l-0.9-1.3L121.9,184.9z"/>
</g>
</svg>
