<?xml version="1.0" encoding="utf-8"?>
<!-- Generator: Adobe Illustrator 27.0.0, SVG Export Plug-In . SVG Version: 6.00 Build 0)  -->
<svg version="1.1" id="Layer_1" xmlns="http://www.w3.org/2000/svg" xmlns:xlink="http://www.w3.org/1999/xlink" x="0px" y="0px"
	 viewBox="0 0 1489 300" style="enable-background:new 0 0 1489 300;" xml:space="preserve">
<style type="text/css">
	.st0{fill:#0081FB;}
	.st1{fill:url(#SVGID_1_);}
	.st2{fill:url(#SVGID_00000067229319802557397480000010633914313849236651_);}
	.st3{fill:#192830;}
</style>
<g>
	<path class="st0" d="M48.7,197.7c0,17.3,3.7,30.5,8.7,38.5c6.5,10.5,16.1,15,26,15c12.7,0,24.4-3.2,46.8-34.2
		c17.9-24.8,39.2-59.7,53.4-81.6l24.2-37.1c16.8-25.8,36.1-54.4,58.4-73.7C284.4,8.9,304,0,323.7,0c33.1,0,64.7,19.2,88.7,55.2
		c26.5,39.4,39.2,89,39.2,140.2c0,30.5-6,52.7-16.1,70.5c-9.8,17.1-29,34.2-61.5,34.2v-48.7c27.7,0,34.7-25.5,34.7-54.5
		c0-41.5-9.7-87.6-31-120.5c-15.3-23.4-34.8-37.6-56.5-37.6c-23.4,0-42.1,17.6-63.2,49c-11.3,16.6-22.7,36.9-35.6,59.8l-14.2,25.2
		c-28.5,50.6-35.8,62.3-50.2,81.3c-25,33.2-46.3,46-74.5,46C50.2,300,29,285.5,16,263.7C5.3,246,0,222.6,0,196.1L48.7,197.7z"/>
	
		<linearGradient id="SVGID_1_" gradientUnits="userSpaceOnUse" x1="64.1797" y1="583.9826" x2="383.5345" y2="567.8536" gradientTransform="matrix(0.9737 0 0 -0.9737 35.4053 710.8486)">
		<stop  offset="0" style="stop-color:#0064E1"/>
		<stop  offset="0.4" style="stop-color:#0064E1"/>
		<stop  offset="0.83" style="stop-color:#0073EE"/>
		<stop  offset="1" style="stop-color:#0082FB"/>
	</linearGradient>
	<path class="st1" d="M38.4,58.5C60.8,24,93.1,0,130.2,0c21.5,0,42.7,6.3,65,24.5c24.4,19.8,50.3,52.6,82.6,106.5l11.6,19.4
		c28.1,46.6,44,70.6,53.2,81.9c11.9,14.5,20.3,18.9,31.3,18.9c27.7,0,34.7-25.5,34.7-54.5l43.1-1.3c0,30.5-6,52.7-16.1,70.5
		c-9.8,17.1-29,34.2-61.5,34.2c-20.2,0-37.9-4.4-57.6-22.9c-15.2-14.2-32.9-39.5-46.5-62.4l-40.5-67.6c-20.3-34-39-59.2-49.7-70.8
		C168.2,64,153.4,49,129.5,49c-19.2,0-35.6,13.5-49.4,34.2L38.4,58.5z"/>
	
		<linearGradient id="SVGID_00000123402762257871949650000003249209926915683746_" gradientUnits="userSpaceOnUse" x1="30.4769" y1="505.8479" x2="30.4769" y2="623.5898" gradientTransform="matrix(0.9737 0 0 -0.9737 35.4053 710.8486)">
		<stop  offset="0" style="stop-color:#0082FB"/>
		<stop  offset="1" style="stop-color:#0064E0"/>
	</linearGradient>
	<path style="fill:url(#SVGID_00000123402762257871949650000003249209926915683746_);" d="M129.4,49C110.2,49,93.7,62.6,80,83.2
		C60.6,112.4,48.7,156,48.7,197.7c0,17.3,3.7,30.5,8.7,38.5l-41.6,27.4C5.3,246,0,222.6,0,196.1c0-48.2,13.2-98.5,38.4-137.4
		C60.8,24,93.1,0,130.2,0L129.4,49z"/>
	<path class="st3" d="M546.5,9.5h56.5l96,173.5l96-173.5H850v285.2h-46V76.1l-84.2,151.3h-43.2L592.4,76.1v218.5h-46V9.5z
		 M994.2,115.8c-33.1,0-52.9,24.8-57.6,55.6h112.1C1046.3,139.7,1028.1,115.8,994.2,115.8L994.2,115.8z M891,189
		c0-64.7,41.8-111.8,104-111.8c61.3,0,97.7,46.5,97.7,115.3v12.6H936.5c5.5,33.4,27.7,56,63.5,56c28.5,0,46.5-8.7,63.4-24.7l24.5,30
		c-23.1,21.1-52.4,33.4-89.5,33.4C931.1,299.8,891,250.6,891,189z M1148.5,119.8h-42.4V82.3h42.4V19.8h44.4v62.4h64.4V120h-64.4
		v95.5c0,32.6,10.5,44.2,36.1,44.2c11.8,0,18.4-1,28.4-2.6v37.3c-12.4,3.5-24.2,5.2-36.9,5.2c-47.9,0-71.9-26.1-71.9-78.7V119.8z
		 M1444.4,156.6c-8.9-22.6-28.9-39-58.1-39c-38.1,0-62.3,26.9-62.3,71c0,42.9,22.4,71.1,60.5,71.1c30,0,51.3-17.4,59.8-39.2V156.6z
		 M1488.9,294.7h-43.5V265c-12.3,17.6-34.4,34.8-70.3,34.8c-57.7,0-96.3-48.4-96.3-111.5c0-63.7,39.5-111.3,98.9-111.3
		c29.4,0,52.3,11.8,67.9,32.4V82.3h43.5L1488.9,294.7L1488.9,294.7z"/>
</g>
</svg>
